/* XPM */
static char *result[] = {
/* columns rows colors chars-per-pixel */
"32 32 68 1 ",
"  c black",
". c #010000",
"X c #000100",
"o c #010101",
"O c #020001",
"+ c #000002",
"@ c #010103",
"# c #173F58",
"$ c #174157",
"% c #144158",
"& c #164058",
"* c #174159",
"= c #154259",
"- c #15415A",
"; c #17415A",
": c #184059",
"> c #18425A",
", c #5D5D5B",
"< c gray36",
"1 c #5D5D5D",
"2 c #5E5C5D",
"3 c #5C5E5D",
"4 c gray37",
"5 c #27729A",
"6 c #26749B",
"7 c #28719A",
"8 c #28739A",
"9 c #28739B",
"0 c #28739D",
"q c #29749C",
"w c #5AADD7",
"e c #59AED7",
"r c #5CAED6",
"t c #5BAED8",
"y c #5AAFD8",
"u c #5AAEDA",
"i c #5BAEDA",
"p c #5CADD8",
"a c #ABAAA8",
"s c #ABA9AA",
"d c #AAAAAA",
"f c #ACAAAB",
"g c #AAAAAC",
"h c #ACD5EB",
"j c #ADD6EA",
"k c #AFD5EC",
"l c #ACD6EC",
"z c #ADD6EC",
"x c #AED7ED",
"c c #ADD5EE",
"v c #AED6EF",
"b c #DFDDDE",
"n c gray87",
"m c #DFDFDF",
"M c #DEDEE0",
"N c #D3EAF0",
"B c #D2EBF2",
"V c #D4EBF1",
"C c #D4EBF3",
"Z c #D6EAF3",
"A c #D3ECF3",
"S c #D5ECF2",
"D c #D4EAF5",
"F c #D7EBF4",
"G c #D5ECF4",
"H c #FFFFFD",
"J c #FFFEFF",
"K c white",
/* pixels */
"        +           . X         ",
"            .   *  .X           ",
"        X      *C*   + o        ",
"              ;zK*    .         ",
"           oX*CGKz*             ",
"            *ACBKx*             ",
"        +  =KCGCHzz*   +        ",
"         O *KACCCKh*            ",
"Xo +       *iKCCSKzz*      .    ",
"       .  X*pKcCzJzt*        .  ",
"        *  *twJzzCtwt;         X",
".  .   %J* *twCiC8CtC;          ",
"     o;GHk*=xttCt99C9* .X o +   ",
"  o  *CCKzz*zztVtt9C9&    o     ",
"o  o*CCCKhzv9ztCtt0Z9=          ",
"  o *CClJzzzy9zVtryC9* ****     ",
" +  *CClKkzztz9GtttC***CzK=     ",
".   *CzK9Kttwz9Azct9KCCCzK*     ",
" XX  *K999Ctz9$KzhC0KFCCzK9%    ",
"    o%ett96CZ9*KzzC9KGClzKt*    ",
" X   *ktyt9z99*xKlD9pKCzK6t:    ",
"     *xttt9z99*tKj9ttHzzKttz*  +",
"      *iwtiz9*ytztqztKxjKt9z*  @",
"      *xiitz5*t1119ziKGVz9z9*+  ",
"      *zttiC9;1nnm6zC980z9z*o +X",
"      -zzytS9*nmd6zyC799jx;     ",
"+X   21*zttNt>dan*tC6999z*1     ",
"   .1nn*zzyCt*ddb*pZu99t&dm1    ",
"    1nd*zztZi*dnn&Ctttt*fnd3 X+ ",
"   1gdds*#zK*ddddM*ttt*ddddd1   ",
"   111111<**311111<:$*11,1411   ",
"   o.  o    .             .   .o"
};
