/* XPM */
static char *result[] = {
/* columns rows colors chars-per-pixel */
"64 64 240 2 ",
"   c #32291F",
".  c #382E22",
"X  c #2B3639",
"o  c #363C3A",
"O  c #442C16",
"+  c #48341F",
"@  c #523519",
"#  c #5B3B1C",
"$  c #633E1B",
"%  c #473927",
"&  c #573E24",
"*  c #423D32",
"=  c #3A413E",
"-  c #65411E",
";  c #68431F",
":  c #5B432B",
">  c #494439",
",  c #574938",
"<  c #5F513F",
"1  c #654424",
"2  c #694624",
"3  c #674828",
"4  c #6B4B2C",
"5  c #704F2E",
"6  c #634D34",
"7  c #6C4F31",
"8  c #614E3B",
"9  c #6D5134",
"0  c #68533C",
"q  c #725435",
"w  c #745739",
"e  c #755A3C",
"r  c #7B5D3D",
"t  c #7E603F",
"y  c #2B3D43",
"u  c #1F404F",
"i  c #1C4458",
"p  c #28424B",
"a  c #364648",
"s  c #2A4855",
"d  c #354B53",
"f  c #3B535E",
"g  c #1D4E68",
"h  c #195778",
"j  c #244E63",
"k  c #2A566B",
"l  c #375967",
"z  c #255973",
"x  c #335D72",
"c  c #2C627C",
"v  c #35627B",
"b  c #474B47",
"n  c #584D41",
"m  c #595346",
"M  c #465355",
"N  c #585B57",
"B  c #6C5A44",
"V  c #645848",
"C  c #735C41",
"Z  c #7B5F41",
"A  c #645D54",
"S  c #5D605A",
"D  c #7E6141",
"F  c #78634B",
"G  c #686258",
"H  c #796B5C",
"J  c #475D66",
"K  c #515E63",
"L  c #4B616B",
"P  c #596568",
"I  c #486777",
"U  c #566B75",
"Y  c #5A727C",
"T  c #646866",
"R  c #696F6F",
"E  c #79746A",
"W  c #67767C",
"Q  c #767878",
"!  c #80613F",
"~  c #836543",
"^  c #856847",
"/  c #826649",
"(  c #866A4C",
")  c #877258",
"_  c #837B74",
"`  c #91887B",
"'  c #165E84",
"]  c #1B658B",
"[  c #266889",
"{  c #356C87",
"}  c #316F8E",
"|  c #2B7398",
" . c #377898",
".. c #2B79A2",
"X. c #347DA3",
"o. c #456E82",
"O. c #47758A",
"+. c #557684",
"@. c #477D96",
"#. c #547E92",
"$. c #667B85",
"%. c #3D83A4",
"&. c #3783AA",
"*. c #398AB2",
"=. c #5B808F",
"-. c #49829B",
";. c #57859A",
":. c #6A818A",
">. c #788488",
",. c #698896",
"<. c #768C96",
"1. c #75909B",
"2. c #4787A7",
"3. c #548AA4",
"4. c #5D93AB",
"5. c #438DB2",
"6. c #4994B8",
"7. c #589AB9",
"8. c #668EA3",
"9. c #6895A9",
"0. c #7697A7",
"q. c #669BB5",
"w. c #719DB2",
"e. c #5DA0BF",
"r. c #7AA0AD",
"t. c #6BA2BB",
"y. c #79A3B8",
"u. c #4C9BC4",
"i. c #579EC2",
"p. c #4FA0C9",
"a. c #54A1C5",
"s. c #5AA6CA",
"d. c #56A8D2",
"f. c #5BADD5",
"g. c #5BAED8",
"h. c #5DB0D8",
"j. c #69A8C6",
"k. c #63ACCB",
"l. c #77ABC5",
"z. c #67B0CB",
"x. c #79B3CD",
"c. c #63ADD1",
"v. c #67B3D5",
"b. c #63B4DA",
"n. c #6BB6DC",
"m. c #6BBADD",
"M. c #79B8D5",
"N. c #73BCDD",
"B. c #67B9E2",
"V. c #6BBDE1",
"C. c #75BDE1",
"Z. c #7CC5DD",
"A. c #73C4E3",
"S. c #7AC3E4",
"D. c #7BC9E6",
"F. c #7BCAE9",
"G. c #79CAED",
"H. c #878986",
"J. c #99948D",
"K. c #89969A",
"L. c #979999",
"P. c #A7A49D",
"I. c #889BA4",
"U. c #959EA0",
"Y. c #98A4A8",
"T. c #87AABA",
"R. c #95ADB7",
"E. c #92AEB9",
"W. c #A3A8AA",
"Q. c #AAAAAA",
"!. c #ADB1B0",
"~. c #A8B3B7",
"^. c #B3B3B4",
"/. c #B9BCBD",
"(. c #85AFC4",
"). c #8AB6C9",
"_. c #97B9C8",
"`. c #87BBD4",
"'. c #95BDD3",
"]. c #A6BBC3",
"[. c #B6BEC2",
"{. c #88C3DB",
"}. c #96C8D5",
"|. c #98C5D9",
" X c #A8C4CD",
".X c #B9C5C8",
"XX c #A8CAD8",
"oX c #B6CDD8",
"OX c #ACD6DE",
"+X c #BBD3DB",
"@X c #87C8E6",
"#X c #97CCE5",
"$X c #8CD7E9",
"%X c #99D5EA",
"&X c #84CFF1",
"*X c #89D6F4",
"=X c #96D6F1",
"-X c #A8D8EA",
";X c #AFD9ED",
":X c #B5D3E2",
">X c #B9D8E5",
",X c #B3DBEC",
"<X c #A4DBF3",
"1X c #92E1F3",
"2X c #92E4F5",
"3X c #9BE5F4",
"4X c #B9E2ED",
"5X c #ABE6F6",
"6X c #B8E8F4",
"7X c #C2C3C4",
"8X c #C5C9CA",
"9X c #CBCCCC",
"0X c #C1CED2",
"qX c #C5D5DA",
"wX c #CDDADE",
"eX c #D4D4D3",
"rX c #C4DAE4",
"tX c #C4DCE6",
"yX c #CCDCE2",
"uX c #D1DEE3",
"iX c #C8E3EC",
"pX c #CCE4EC",
"aX c #D4E1E6",
"sX c #D2E5EB",
"dX c #DBE6EA",
"fX c #D5E9EE",
"gX c #DBE9EE",
"hX c #C7EBF6",
"jX c #CCEBF3",
"kX c #D4EBF3",
"lX c #D2EAF4",
"zX c #DCEBF2",
"xX c #C8F2F9",
"cX c #D6F2F6",
"vX c #E3EBEE",
"bX c #E2EDF1",
"nX c #EAEFF2",
"mX c #E2F0F4",
"MX c #ECF3F5",
"NX c #F2F7F7",
/* pixels */
"( ( ( ( ( ( ( ( ( ( ( ( ( ( ( ( ( ( ( ( ( ( ( ( ( ( ( ( ( ( ( ( ( ( ( ( ( ( ( ( ( ( ( ( ( ( ( ( ( ( ( ( ( ( ( ( ( ( ^ ( ( ( ( ( ",
"( ( ( ( ( ( ( ( ( ( ^ ^ ( ( ( ( ( ( ( ( ( ( ^ ( ( ( ( / ( ( ( ( ( / F C F F ( ( ( ( ( ( ( ( ( ^ ( ( ( ( ( ( ( ( ( ( ! ! ( ( ( ( ",
"^ ^ ^ ^ / / / / ( ^ ^ ^ ^ ^ ^ ^ ^ ^ ^ ~ ^ ^ / / ~ ~ / / / / / / / Z m n V B ! / ^ ^ ^ ^ ^ D ^ ^ ^ ^ ( ^ ^ ^ ^ ( ( ( ( ` ^ ^ ^ ^ ",
"^ ~ ^ ^ ~ ! ~ ! ^ ~ ~ ^ ^ ~ ^ ^ ~ ^ ~ ~ ~ ~ ~ ~ ~ ~ ~ ~ ~ ~ ~ ! C B T T A A F ! t ^ t ^ ^ ^ ^ ^ ^ ~ ~ ^ ^ ! ^ ! ! ! ! ! ^ ^ ^ ^ ",
"~ ~ ~ ~ r Z r Z ! ~ ~ ~ ^ ~ ~ ~ ^ ~ ~ ~ ~ ~ ~ ~ ~ ~ ! ! / ! ! C m S <.U.H.Q F B F t t ^ ^ ! ^ ^ ~ ~ ^ ^ ! ^ ^ ^ ~ ~ ^ ^ ^ ^ ^ ^ ",
"^ ^ ~ ! e w r r ! ~ ~ ~ ~ ~ ~ ~ ~ ~ ~ ~ ! ~ ~ ~ ~ ~ ! ! ! ! C F S Q ~..XW.H.A V t t t D ! ^ ! ! ~ ~ ! ^ ! ^ ! ^ ~ ~ ^ ^ ^ ^ ^ ^ ",
"~ ^ ~ ~ e e e C ! ! ! ! ! ! ~ ~ ! ! t t t t t D ! ! ! ! ! B n A >.W.qXeX!.>.N , 0 q w t t ^ ! ^ ~ ~ ~ ^ ^ ^ ! ^ ^ ^ ^ ^ ^ ^ ~ ^ ",
"^ ~ ~ ! r e Z Z ! ! ! ! ! ! ! ! r e e e e e e e ! ! Z C B A T $.W.0XdXdX[.K.R N < 8 9 t t ! ^ t ~ ! ! ~ ! ^ ^ ! ~ ~ ! ! ~ ! ~ ~ ",
"~ ~ ~ / ! ! ! ! ! w Z q q 7 9 7 7 7 5 7 5 5 5 5 5 9 8 n m R K.~.+XaXMXnXwX/.K.W N > 0 q t D D ^ ! ~ ~ ~ ! ~ t t ! ! ! ! r ! ! ! ",
"/ ~ / / ! ! C ! w q 7 7 4 3 3 3 1 - 1 3 3 3 3 3 3 , < m T >. XaXaXvXNXNXdX0X~.<.K > < q t D D D ~ ! ! ~ t e e w ! ! 5 5 5 q t t ",
"~ ~ ! ! ! C C 5 4 4 2 2 - - - - - - - - - - - - : , S Q K.~.qXpXdXvXNXNXvXwX].1.L a 0 t t t t t ! ^ ! t e w 9 5 ; ; ; ; 4 5 5 5 ",
"/ ~ / ! ! 9 q 5 4 2 ; - $ $ $ $ $ $ $ $ - # - : V G ` U.[.0XsXfXdXvXNXNXvXwX XT.+.J V e t t t t ! ! ! t w q 4 3 ; - ; ; ; ; 2 4 ",
"^ ~ ~ ! 5 7 2 2 2 ; ; $ $ $ $ $ $ $ $ $ - $ # 0 _ J.^.9XwXaXsXfXdXvXNXNXvXuXoXE.r.:.S < 0 t t t ! ! ~ t w 5 5 3 1 $ $ - - - 3 : ",
"^ ~ ! ! ! 4 2 2 ; ; ; ; - $ $ $ $ $ $ $ # # : V J./.eXaXfXgXkXfXgXvXNXMXbXuX+XXX}.0.P b 0 t t t ! ! t t r w 5 5 3 3 3 1 2 3 4 7 ",
"/ ! ! ! 5 ; 4 2 ; ; ; $ $ $ $ $ $ $ $ $ - # > m P.9XaXcXkXkXkXkXfXbXMXMXbXdXyX+X}.T.L > < t t t t t t ! t t t e e w 0 9 e t t t ",
"/ ! ! ! ! 5 5 2 2 ; ; $ ; $ $ $ $ $ $ $ - & * K Y.+XpXcXcXkXkXkXfXgXbXbXbXcXfX4XOXT.Y f m 0 0 t w t t t t ~ D D D t t t D D D F ",
"~ ~ ~ ! ! 5 4 2 ; ; ; ; ; ; $ $ $ $ $ $ $ & o J 0.}.>XhXhXjXjXkXfXfXgXcXmXcXkXjXOX}.8.Y N m < 0 q w t t t t t ! ! t ! ~ D t ^ ^ ",
"~ ~ ! ! ! ! q 5 5 4 2 2 2 ; 1 $ # $ $ $ $ & y l 3.).-X6XxXcXkXfXfXfXfXfXcXmXcXjX4X}.r.=.l a , 6 4 7 q q t t t t ! ! ~ ! ~ ^ ! ~ ",
"~ ~ ~ ! ! ! ! ! q q q 4 4 3 : # # # $ # # & y k 2.j.#X;XxXcXjXsXfXfXfXfXcXcXcXxX5XOX}.r.O.d > : 1 4 5 q w t t t ! ! ! ~ ! ^ ^ ^ ",
"! ! ! ! ! ! ! ! ! r w q 5 4 1 : : & 1 1 1 > a k X.j.N.-XhXjXfXpXsXjXiXfXkXcXcXhX-X$X}.z.} l b : : 3 5 q q t t t ! ! ! ! t ~ ! ! ",
"w w 9 q q ! ! ! r ! r r w q , & , , 6 9 7 , a z @.i.`.%X4XpXaXyXsXiXtX4XiXhXxX6X3X{.M.7. .x d b , 6 w t t t t t e e e e t t t t ",
"7 7 7 7 q w ! w ! r r ! r C n n > , 8 9 w 8 a k X.i.M.{.OX:XaXaXyXtX>X>X4X6X6X3X$XZ.v.a.%.} l b > < 0 t t q w w w 9 9 9 9 w t t ",
"w 9 7 9 w w ! ! ! ! r r r B M M M b , , 0 , a k X.7.j.x.).XXaXbXyX:X>X;X,X;X<X=XS.n.b.s.a.5.{ l d b e t t t q 5 4 3 3 1 3 4 w t ",
"C C q 9 ! ! w ! ! r r e 0 A R Y Y P n , , , p k @.7.j.l.(.'.lXlX:XXX-X-X%X$X{.Z.A.V.b.b.m.z.O.k j b 0 t q q q 5 9 4 3 3 3 4 w t ",
"! ! ! ! ! ! ! ! ! ! 9 B m T I.].R.K.S b * > y k @.e.t.l.l.'.;X,X|.|.-X%X{.z.z.z.Z.Z.A.m.D.Z.-.k d a 0 w r w w w w w w w w e ~ ~ ",
"! ! ! ! ! ! ! C C C n A U K.[.yXaX X>.L b y p k #.t.l.l.l.`.#X#X{.@X$X@Xz.e.5.6.Z.Z.A.Z.Z.e.@.k s b , 5 5 q w e e e e e t D ^ ~ ",
"/ ! / ! ! ! ! / ! V M U I..XaXnXgXwX~.<.J s u x #.(.`.M.x.v.C.G.=X$XF.m.p.6.%.&.%.e.$X$Xz.%.z j s a , 4 5 5 5 9 w 9 e e D ~ ~ ~ ",
"! ! ! ! ! ! C C V A +.#.'.pXMXNXMXdX+XE.#.o.g x t.`.`.@XM.n.B.V.2X2XA.h.p.*.&.&.%.6.$X1X7.%.z i p = & 2 2 2 2 3 4 7 w w e r ! ~ ",
"! C C C q w 8 n M R T.XXtXgXMXNXMXbXrX X_.w.{ { q.`.@X#X&X@XB.G.2X2XF.b.f.p.6.6.&.6.$X$X7.| z j p o : - - - - - 1 2 3 5 w r ! ~ ",
"w w 9 7 6 8 A T U 0.:XlXlXbXMXNXMXbXrX:X;X'.4.@.q.n.@X&X&X&XV.C.2X2XA.h.h.d.p.6.&.6.$X$Xe.| z i p o & $ # # # # # # : 3 4 w t ! ",
"7 6 2 1 & n K $._.:XtXlXlXnXMXNXMXgXrX+X-X#X'.M.i.i.c.C.&X&XB.C.2X2XA.b.h.d.d.6.%.7.$X$Xa.} z i p o & # @ O O   O O O + : 6 e ^ ",
"7 4 2 : > b K $.[.lXlXlXaXdXMXNXMXbXrX:X:X<X<X@Xc.u.i.f.B.C.B.C.2X2XA.b.h.d.d.u.*.e.$X$X7.%.h i p o % @ @ .         . . % , e ! ",
"q 9 3 : > b L 1.:XlXlXsXyXaXvXNXnXvXwX:X;X;X<X=XN.s.u.6.6.s.A.*X2X2XA.b.h.h.d.d.s.v.2X%Xq.} z i p X . + X X X X X X X X = b C ! ",
"w e 9 6 , M L ,.XXxXlXsXyXeXvXnXnXvXrX:X;X-X<X&XC.b.d.u.6.u.A.$X3X2XD.h.h.h.h.h.h.A.3X$X4.v z i u p o > K I K L L L l d a b B ~ ",
"! t t e n N P 1.:XhXlXsXqXwXvXnXMXnXtX:XXX;X<X=XS.b.b.n.b.b.a.k.2X2XZ.h.h.f.d.h.h.Z.3X}.3.z i j u i s I T.(.(.(._.(.<.Y l b B / ",
"~ ~ D D B G R K.oXjXpXaXuXwXwXwXuXtXtX:XXX#X#X@XC.m.C.F.F.m.5.7.$X2XF.A.A.b.A.b.v.x.{.{.8.=.I v I I +.9.XXtX,X;XtX:XT.,.l d V Z ",
"~ ! ^ ! ~ ( ) J.oXsXyXyXlXyX].R.R.].+XrX].).).(.l.n.M.@X@XM.2.7.#X5X=X*X&X@X@XN.z.t.9.r.E. X_.}.}._.'.XX4XhX,X,XhX>XE.;.k s m 0 ",
"~ ~ ~ ! ! ^ ) J.^.9XeXwXpX].r.8.#.T.'.XX].(.l.l.l.x.`.M.`.j.-.3.}.5X<X<X=X%X%X|.`.r.=.<..XaXdXpXiXiXiXhXhXhX,X,XhX4X{.4.v s b n ",
"~ ^ ~ ! ! ^ ( ) ` P.eXuX].0.#.@.@.3.w.E.XXXX(.(.`.`.l.y.8.@.v -.}.hX,X;X-X;X;XOXOXE.:.<.oXvXbXzXfXlXjXjXhXhX;X6X6X4X'.4.} z d a ",
"~ ! ~ ~ ! ! ! ( ( ` 8XqXE.9.@.X.X.@.-.9._.]._._.XX'.(.q.;.v k +. XxX,X;X:X:X:X>X>X X>.>..XvXbXbXkXkXkXlXhXiX,X,XxX4X}.j.2.[ j i ",
"! ^ ! ! ! ! t t Z _ P.].I.q.7.6.6.2.@.@.8.y.}.-X5X-X).q.O.c k +. XjXiX+X:X:X+XrXrX].,.<..XfXcXkXlXlXlXlXtX>X:XrXjX6XOXZ.7.-.g u ",
"^ ! ^ ! ^ t e e B R I.(.T.t.j.i.s.6.%. . .9.{.<X-X#Xl.4.O.c j O. XjXiXrXqXrXrXrXtX X,.,. X4XxXxXcXlXjXyXrXqXrXrXiXOX}.Z.s.%.z i ",
"! ^ ! ! D t e B B H Y.'.l.j.c.c.s.i.6.5. .5.{.=XZ.z.7.-.} c k O.R.iXsXdXuXyXrXrXyX X,.@.l.#X6XxXxXcXlXtXrXqXaXuX X).y.z.s.2.z i ",
"^ ! ^ ! D t w 0 0 E (.|.`.j.c.g.f.d.u.6.%.%.Z.&Xz.6.%. .} c j I E.+XdXbXdXuXqX+X:X_.3.3.s.{.-X6XxXjXlXyX0XyXnXaX].T.t.e.e.6.{ k ",
"~ ~ ~ ~ t e w 9 9 E R.|.`.z.k.c.h.d.p.u.&.5.A.F.s.5. .| [ c g v w. XsXmXgXyXoX_.T.w.4.7.j.C.<XxXxXxXiXrX0XwXnXvX].T.w.j.s.s.t.9.",
"~ ~ ~ ~ t e w 5 9 H R.'.l.z.c.f.g.d.d.u.&.*.A.S.a.*.| | [ [ h { 9._.tXzXlX>X X(.9.3.e.j.d.N.3X6XxXjXtX:XoXyXnXvX X(.j.e.k.z.M.`.",
"~ ~ ~ ~ ! r w q 9 A <.y.j.j.f.f.g.g.d.p.*.u.A.G.p.&.| ] ] ] [ %.7.).>XiX>XXX'.j.3.3.j.n.v.C.%X6XxXxX>X>XqXyXnXvXoX(.j.7.i.c.{.%X",
"! ~ ! ~ ! ! r w 9 V U 3.q.j.k.f.g.g.g.d.p.d.F.G.p.&.| ] ' | %.5.4.l.|.XXXX`.l.4.X.5.n.S.n.C.<X6XxX6X4X>X:XyXnXvX XT.w.7.i.s.`.#X",
"e t t ! ~ t t t e V f v q.z.v.b.g.f.g.d.d.B.G.G.s.&.[ ' h [ 2.7.4.9.y.T.y.w.4.2.X.5.C.&XM.M.3X6XxXxX6X4X>XtXbXyX].y.q.q.i.j.l.(.",
"e e t ! ~ ~ ~ D D N s v q.M.n.b.g.g.g.g.g.B.G.F.a.&.] ' h [ 3.q.3.,.1.0.8.3.3.@.X.5.@X&XZ.Z.-X4X6X6X4X5X,X>XpX+XT.0.q.t.l.j.q.8.",
"e r D ~ D ~ ~ D D V d v j.M.n.n.g.g.g.g.g.B.&XF.a.&.[ h h c ;.1.,.$.:.,.,.,.;.%. .6.S.%X{.'.}.-X,XOX%X%X-X:X>X XI.8.q.y.`.(.#.$.",
"r Z D D ~ ~ ~ D D m s v l.@XC.n.b.g.g.g.g.B.*X&Xs.%.[ h g l =.<.I.I.K.K.0.0.9.3.X.7.@X%X|.}.}.}.}.{.x.`.`.'.XX'.w.8.0.l.).T.$.R ",
"~ ~ ~ ~ ~ ~ ~ D C m y { t.@X@XB.n.b.g.g.g.V.1X$Xs.2.[ h g l W K.].[./.[.]._.T.t.7.i.`.%X-XXXT.9.;.2.2.2.2.q.'.|.T.9.0.y.T.I._ Z ",
"^ ~ ^ ~ ~ ~ t e B n a x w.{.@X@XC.N.c.g.g.V.2X$Xk.%.c z j l >.Q.9XeX9X7X]._.(.l.e.c.`.#X,X-Xt.;. .} [ | } 3.).|.(.y.0.1.1.>.) / ",
"^ ~ ^ ^ D e e 0 & > y L 9.'.{.#X@XC.v.c.g.V.2X*Xk.%.[ z k U Y.8XeXeX7X^.Y.0.8.t.M.S.N.`.%X}.t.-. .} | | } -.{.XX'.(.I.$.U A F / ",
"~ ~ Z e e 0 6 8 n b M L $.y.'.#X#X@Xn.f.g.V.2X2Xz.6.%.z k Y ~.9X9X8X7X^.K.,.=.3.n.F.D.S.{.x.6.%.} | | } } 3.).}._.I.$.U K N Z / ",
"/ / w w 6 : , n N S A K K +.I.'.#X{.M.c.g.B.2X2XA.s.X.{ k I L.^.^.[.9X[.U.$.O.@.e.S.*X$Xz.6.&.| | | |  .| 3.(.R.0.$.T P T G / / ",
"/ Z w 8 : , n A Q H.H.$.J L 0.).|.#X`.n.g.C.2X2XD.c.2.{ x I K.Q.Q.^.9X7XY.$.o.} i.C.3X=Xs.5.&.| ..| | X.@.#.0.<.$.$.$.$.Q _ ) F ",
"Z Z w 7 8 A A _ ^.7X7XW.U L 0.).#X-X=XC.n.C.*X2XF.f.2.{ k L K.Q.Q.^.9X7XW.$.I o.q.`.<X<XZ.a.*.&.......X.3.3.+.+.$.K.U.Q.^.L.$.A ",
"/ Z 7 6 8 A Q J.7XeXeXQ.$.L 0.'.XX=X=X@Xn.B.=X2XD.k.2.{ x I K.^.^.7XeX7XU.$.L +.y.'.#X@XA.s.6.*.&.&.&.&.3.#.o.+.K.W.[.[.7XQ.$.A ",
"~ Z 7 6 n A _ L.7X9X7XL.P K $.'.#X#X#X@Xm.Z.1X3XD.s.2.{ x I K.^.7XeXeX9XW.$.R $.R.XX'.l.c.d.d.p.u.u.u.&.{ o.Q L.^.7X7X7XQ.L.Q A ",
"~ Z 8 n A T Q L./.7X^.L.$.$.#.I.y.(.l.M.m.D.3X3XZ.7.2.O.o.$.U.^.7X9X9X7XW.K.>.K.Y.R.(.j.j.c.c.g.d.i.5.@.o.+.K.^./.7X/.^.Q.J._ Q ",
"Z C V A Q _ L.P.^.^.Q.Y.L.>.$.+.I x o.3.M.1X6X3Xy.-.#.#.1.I.W.Q.^.^.^.^.^.~.W.K.$.$.#.y.l.j.j.j.q.@.o.o.$.I.L.Q.^.^.Q.Q.Q.Q.L.L.",
"w C A G Q H.L.Q.Q.Q.Q.Q.Q.K.$.f s s j O.M.5XxXOX8.I +.,.I.R.Q.Q.Q.Q.Q.^.[.[.^.L.K J 0.y.l.j.j.q.q.#.x o.0.~.Q.Q.Q.Q.Q.Q.Q.Q.Q.Q."
};
