/* XPM */
static char *result[] = {
/* columns rows colors chars-per-pixel */
"64 64 211 2 ",
"   c #000104",
".  c #02040A",
"X  c #04080C",
"o  c #09090A",
"O  c #15120F",
"+  c #010716",
"@  c #040B11",
"#  c #0D1417",
"$  c #0B141C",
"%  c #151412",
"&  c #191612",
"*  c #161915",
"=  c #1A1A16",
"-  c #12151B",
";  c #151B1D",
":  c #1C1D19",
">  c #211E1B",
",  c #1E221D",
"<  c #23221D",
"1  c #29231E",
"2  c #000A20",
"3  c #061325",
"4  c #111723",
"5  c #151D23",
"6  c #191E20",
"7  c #121F2A",
"8  c #061D38",
"9  c #1C2324",
"0  c #1A2427",
"q  c #15212A",
"w  c #1C262B",
"e  c #1F292E",
"r  c #0E2232",
"t  c #152735",
"y  c #1A2631",
"u  c #1C2C35",
"i  c #152B3A",
"p  c #1E2E3B",
"a  c #1F303D",
"s  c #242522",
"d  c #2A2623",
"f  c #252A24",
"g  c #2A2B26",
"h  c #23262A",
"j  c #28272B",
"k  c #242A2C",
"l  c #2C2C2A",
"z  c #312F2B",
"x  c #27302A",
"c  c #2D312D",
"v  c #31322D",
"b  c #3E362C",
"n  c #242D33",
"m  c #2A2F31",
"M  c #242F39",
"N  c #273135",
"B  c #2A3235",
"V  c #24313C",
"C  c #2A3339",
"Z  c #343532",
"A  c #393632",
"S  c #363835",
"D  c #3A3936",
"F  c #323739",
"G  c #35393A",
"H  c #3B3C3A",
"J  c #43392D",
"K  c #493A29",
"L  c #443D35",
"P  c #4C3F31",
"I  c #413E3A",
"U  c #3F403E",
"Y  c #4B4134",
"T  c #41413F",
"R  c #4F493F",
"E  c #544433",
"W  c #584632",
"Q  c #564837",
"!  c #5C4C3A",
"~  c #62472C",
"^  c #6B4C2C",
"/  c #70502F",
"(  c #654E34",
")  c #664E35",
"_  c #64533F",
"`  c #6C553C",
"'  c #725434",
"]  c #73573A",
"[  c #745A3C",
"{  c #7B5D3D",
"}  c #7E603F",
"|  c #0A2A49",
" . c #162C41",
".. c #1C3444",
"X. c #1D364B",
"o. c #1C394C",
"O. c #093254",
"+. c #163654",
"@. c #1D3D55",
"#. c #143B5D",
"$. c #1D3E58",
"%. c #243543",
"&. c #293641",
"*. c #263947",
"=. c #2B3A45",
"-. c #253A4C",
";. c #2A3C4A",
":. c #333D43",
">. c #353F45",
",. c #263E52",
"<. c #293F51",
"1. c #1E425B",
"2. c #2E414E",
"3. c #3D4140",
"4. c #33424D",
"5. c #3B454A",
"6. c #264156",
"7. c #2B4254",
"8. c #25445B",
"9. c #2B465B",
"0. c #27485E",
"q. c #2D485D",
"w. c #314452",
"e. c #344958",
"r. c #324B5D",
"t. c #3F5059",
"y. c #1A4567",
"u. c #1D4B70",
"i. c #264664",
"p. c #294760",
"a. c #264A65",
"s. c #2D4B64",
"d. c #244E6D",
"f. c #2D4E69",
"g. c #324D62",
"h. c #304F68",
"j. c #2D516C",
"k. c #345065",
"l. c #3C5464",
"z. c #32536C",
"x. c #39566B",
"c. c #3D586B",
"v. c #2D5473",
"b. c #285678",
"n. c #2B5779",
"m. c #2C5A7D",
"M. c #325672",
"N. c #355975",
"B. c #3B5C75",
"V. c #345C7B",
"C. c #3A5E7A",
"Z. c #37607F",
"A. c #3D617D",
"S. c #434442",
"D. c #474845",
"F. c #4C4B46",
"G. c #474948",
"H. c #4A4B4A",
"J. c #544D42",
"K. c #5B4F40",
"L. c #5D574C",
"P. c #425057",
"I. c #42525C",
"U. c #665542",
"Y. c #6A5742",
"T. c #665A4A",
"R. c #775D40",
"E. c #7B5F41",
"W. c #7E6141",
"Q. c #465965",
"!. c #415D70",
"~. c #426176",
"^. c #41637E",
"/. c #836544",
"(. c #866846",
"). c #856748",
"_. c #866949",
"`. c #886C4E",
"'. c #896E50",
"]. c #2C5E83",
"[. c #325E82",
"{. c #2D6087",
"}. c #2D618A",
"|. c #356284",
" X c #3A6484",
".X c #3E6886",
"XX c #35668A",
"oX c #396789",
"OX c #37688D",
"+X c #3B6A8C",
"@X c #366B92",
"#X c #3B6D93",
"$X c #3B6F98",
"%X c #3D7196",
"&X c #3C729B",
"*X c #3B75A1",
"=X c #416683",
"-X c #436A85",
";X c #436C8C",
":X c #4A6E89",
">X c #47718E",
",X c #49718E",
"<X c #426E92",
"1X c #447294",
"2X c #497494",
"3X c #44759B",
"4X c #497599",
"5X c #47799D",
"6X c #517D9E",
"7X c #4177A0",
"8X c #427AA4",
/* pixels */
"'.`._.).(./././.} } /././././././././.(./.} ` ! Y S C *.6.0.k.M.M.j.0.6.u e c U W ` E././././././././.(.(./.(.(.(.(./.(.(.(./.(.",
"`.`._.).(././././.} E./././././.W.{ Y.Y.Y.Y.T.J.D.5.4.w.g.z.N.Z.Z.N.z.q.6.V U U J.K.U.U.U.R././././././././././././.(.(.(./.(./.",
"_.).).(././././.{ E.{ E.W.W./.{ ` W L Z 3.5.P.I.Q.Q.!.A.^.-X:X>X%X>XA.~.A.c.l.t.e.5.:.F b P Y./././.(./././././././.(./././././.",
").).(./././.} } { { { { { ] ` ( Q L N ..,.0.x.A.^.-X-X:X>X>X2X2X2X2X2X>X-X:XA.Z.B.p.,.%.M A ! Y.] [ /./././././././././././.{ { ",
"_.)./././././.} { { { [ ) W J Z G >.6.0.j.Z..X>X>X%X%X>X%X+X+X+X>X+X#X>X>X%X>X%X#X[.M.g.<.;.3.I J P [ /./.E.} } } /././.} /.{ /.",
").(.(.(././.} } { [ ` ! E D B V ;.r.j.N.Z.+X%X1X%X%X%X+X+X.XoXZ.Z. X.X+X%X%X%X%X<X#XoX[.M.g.<.:.F J ! Y.[ [ { { { } } } /.} E.{ ",
"(.(.(././././.} { ` P A G :.2.r.x.B.A..X.X+X+X+X+XoX|.Z.Z.Z.Z.N.M.N.Z.A.XXOX+X+X<X<X+X=X=X!.N.g.<.>.>.P W ^ ' ] { { { { /.{ /.{ ",
"(.(./././././.} ] W S C 2.r.z.B. X-X;X-X X X|.Z.Z.Z.Z.M.M.z.s.s.s.j.j.M.Z.Z.Z.|.[.[.oX;X;X,X=X!.x.g.>.:.L P ~ ) ' ' ' { { /.E.E.",
"(.(.(.(./././.] P A &.<.z.C. X;X<X<X+X XZ.N.M.v.M.z.f.s.s.9.,.,.7.9.0.s.h.j.M.M.M.N.[..X;X<X;X;X;XZ.z.w.:.b K ~ ^ ^ ' { } } } } ",
"(./.(././.E.R.! A N <.f.[.<X1X1X<X#X XN.z.z.s.s.p.9.9.,.,.-.-.-.*.;.2.7.9.9.p.p.f.f.M.C. XoX<X<X1X+XZ.z.7.F J K ~ ^ / ] { } { { ",
"/.(.(././.[ ! Y F *.g.C.+X1X1X#X+X XN.z.s.8.7.6.,.<.-.*.%.%...M V V *.*.-.<.,.,.,.9.p.z.N.=XoX<X%X%X+XC.g.w.G J ~ ^ / / { { /.{ ",
"(.(./././.` Y F *.9.B.=X<X3X;X.XC.N.z.s.7.*.*.%.%.%.%.M M M n M p N V V &.%.%.%.-.-.<.9.g.!.[.=X#X<X1X.XC.g.=.A P / / { { { E./.",
"(.(.(./.{ ! S V 9.z.=X1X<X<X XC.N.g.9.;.%.M C M M M n n j h h h k n k n n n n N M M &.;.<.g.z.[.oX+X<X,X XN.9.:.R ) ] { /.E.E./.",
"(.(./.E.` E C ,.z. X;X>X<X XC.z.r.<.&.M n m j j h h h h j j h h f k j j j j j j n m n C &.>.9.z.V. X;X<X<X Xf.w.S.Q ] { E./.E.E.",
").)./.] W D 4.f.[.+X1X;X XN.z.q.;.V y h j z z z d j s s d d 1 1 d d d d d g g z d z d j j M *.<.k.V.[.oX#XoXC.g.>.3._ R.E./.E.E.",
").W.R.U.T 5.r.C.+X#X;X XN.f.9.;.M k h s d d d d d > > > > > 1 1 < > d > 1 1 1 d d d d d d h &.=.9.g.N.[.oXoX XB.g.<.F.U.R.E./.E.",
"/.R.` R 5.k.^.-XoX|.[.N.g.7.*.V n k h , > > > > & & & & & & & & & & & & = & = = > > > > d k m N &.7.g.M.V.|. X XA.x.4.S.Y.W.W.E.",
"R.` Q 5.l.B.,X1XoX[.N.g.7.*.M n k g d < > = = & O O O O O O O & & O & O O O & * > > > > 1 d k x n &.<.s.j.m.oX<X1XZ.8.5.Y.W.E.E.",
"! Y F -.M.+X4X4XoXn.f.7.&.n m m l d s : & O & O O O O O O O O O O O O O O O O O O O & & < s g g g m =.<.f.N.+X#X3X#XM.P.T.R.E.R.",
"R S.%.@.m.#X4X2X Xv.9.-.n k k l v z s : & O O O O O O O O O O O O O O O O O O O O O & = d g g g d j n -.9.v. X#X8X3XV.c.L.T.T.T.",
"I.Q.9.i.V.+X4X2X Xf.6.%.h h j z b v x < * O O O O O O O O O O O O O O O O O O O O O = 1 v U v z j d w ..,.j.V.@X8X*XoXN.c.P.I.P.",
"!.!.z.B.V. X2X,X[.f.,.V h d l z S U z , , O % O O O O O O O O O O O O & O O O O O O , < b U v g d j w p ,.f.V.oX3X3XoXV.N.j.f.a.",
"=X=X X[.C.C.,X,XC.f.,.V j j d l c c f , , * % o O O O O O O O & O O O O O O O O O & : < g c z g g g y p ,.f.N.oX3X&X@XXX+X[.d.y.",
"C.[.-X=XC.C.:X:XC.h.<.C l d > s g x , , , * % % O O O O O O O O O O O O O O O O * , , < f x g g z l n M ,.f.N. X#X%XOX@X#XXXy.#.",
"f.M.C.!.[.!.:X=X!.h.<.&.j d > > < 1 f , , % o o * O O O O O O O O O O O O O O O * , , f x z c z z l h p <.g.M.[.oX+X XoX+X[.#.O.",
"8.p.B.C.!.[.=X=XN.h.;.M j 1 > = , , < , , * % O O O O O O O O O O O O O O O O O % * < x z c c z z j y M <.p.h.M.C.[. X[. Xd.+.| ",
"%.<.g.z.z.M.N.N.z.p.;.M j > = = , , , , % O O O O O O O & O O O O O O O O O O O O * < f f z z z d g h p -.9.g.z.z.M.M.N.N.i.| 8 ",
"t  .,.s.z.z.z.j.h.p.&.M s > > = , < , , * % O O O O O O O O O O O O O O O O O O O & < g f z z g g d 7 p ,.<.p.z.j.z.M.f.p.+.8 3 ",
"3 7  .8.f.v.v.j.h.9.*.M d > > 1 x v x 1 , = & O O O O O O O O O O & O O O O O O * , g v c l v c z f w p -.9.s.f.M.M.z.p.X.8 3 2 ",
"@ $ i ,.d.V.M.M.f.<.=.M d > > d Z U S g < < = * O O O O O O O O O O O O O O O O = s v D v v v v g d w u -.9.f.j.v.M.M.9.t 3 + + ",
". @ t o.v.[.V.N.z.9.*.C d > > j S U D Z x < : & O O O O O O O O O O O O O O O & : d H H H A D A v k w p ,.i.z.M.[.[.B.9.r + + . ",
"  @ 8 @.n.oX XC.z.p.*.M j > 1 j U U U S c 1 : & O O O O O O O O O O O O O O O = s v H S.H H D v z g w p <.i.M.N.[.[.!.e.7 @ . . ",
"  @ r #.[.#X;X=XN.q.;.n g 1 1 d A T T I l d > = O O O O O O O O O O O O O O & > d Z S.S.T H A v z l e p ,.s.M.[.oXoX!.k.7 X . . ",
"  + r ,.[.<X<X=Xz.q.;.C g s s d F T G.T m d > = & O O O O O O O O O & O O & & < j H G.F.T S A z l l e a ,.f.M.[.@X#X=Xe.w o .   ",
"  o r ,.[.4X2X-XN.q.*.N j d 1 l S 3.D.I v d , = O O O & & O O O O O O O O & & 1 v I H.H.U Z z z l l e p ,.s.V.[.#X#X=Xg.7 X .   ",
"  @ 8 ,.[.3X1X;XN.9.;.C g g d z D T G.T m h , = O O O O O O O O O & O O O O & 1 Z T H.H.:.Z z j g l y M ,.g.N. X#X<X=Xe.q X .   ",
"  X r ,.[.<X<X=XN.9.;.N l f g v S S.G.T v d : = & O O O O O O & O O O & O & = < A S.H.H.H Z l l z g w p <.s.C.oX#X#XA.e.7 X .   ",
"  X r $.[.$X<X Xz.9.;.C g g d g Z H S.T v d > = O O O O O O O O O O O O O & , < z >.H.H.3.D Z z z j h p <.f.n.XX#X#XZ.9.5 o .   ",
"  @ r $.].#X<X XM.9.*.N d 1 < 1 g Z H H z 1 > & O O O O O O O O O O O O O O = < d Z 3.D.D.3.H Z z j y a ,.s.n.|.@X@XA.r.7 X .   ",
"  + r $.[.#X<X Xz.q.;.B f 1 > < s l S S d 1 > & O O O O O O O & O O O O O & & : s l G S.G.G.T D Z g k a ,.i.M.|.@X#XA.9.7 X .   ",
"  X r $.].#X3X;XN.9.;.C l 1 = = : d Z Z f : : = O O O O O O O O O O O O O & & = < g G S.H.H.S.H Z c u a 8.f.n.|.$X#XA.q.q X     ",
"  @ r @.[.3X4X;XN.g.;.C l 1 > = < k S S k < : = O O O O O O O O O & O O O % & = d j H G.H.G.S.H Z c k a 6.h.n.|.@X%XA.q.q . .   ",
"  @ r 1.[.3X4X,XN.9.;.C l 1 : : f Z U T F l s > & O O O O O O O O O O O O & = > l S G.G.D.U U D A B k a 7.h.M.|.@X#XA.e.q X     ",
"  X r @.].$X<X-XN.q.;.C l 1 > < k Z 3.S.S l d = O O O O O O O O O O O O & & = s l A S.D.D v S S v v e a 7.f.v.C.#X+XA.w.0 o o o ",
"  @ r @.m.@XoXC.j.9.;.C l 1 : , f l S F Z z s > O O O O O O O O & O O O O & = > j Z S S c l c z z l n p 7.0.j.n.XX|.A.w.0 % O O ",
"  @ r #.m.|.[.v.f.9.;.C g 1 : : s k l m m j > = & O O O O O O O O O & O O & = 1 j z c c f f g g z l k p 6.a.j.b.m.|.x.9.w # = = ",
"  # i 1.b.].m.b.d.8.;.C g s : : , , d d j j > = O O O O O O O O O O O O O & & > l Z m c f f f g g k u a 1.a.d.b.m.m.v.9...7 - - ",
". # ..d.].}.].m.b.f.9.*.g 1 = = : , : 6 d s > - & O O O O O O O O O O O O O & > l z l d f f g x g k t ..0.b.b.{.}.}.].j.$. .r 4 ",
"X 4 8.Z.&X*X&X&X%XZ.x.>.m > = = , * * * , , * * O O O O O O O O O O O O O O * < f x f f , f z v z c u o.v.OX#X%X*X*X%XOXV.0...x ",
"# y r..X&X*X*X*X&X.Xc.w.m > = = * , * * , * * % O O O O O O O O O O O & O & & = 1 f , , , 1 x v g x u @.m.@X3X7X8X8X8X%XOXj.6.u ",
"u *.z. X&X*X*X&X%XXXz.w.j > = = , * * * * * * % O O O O O O O O O O O O O O * * , < f , , f g z x k t o.v.OX@X&X*X*X&X%XXXv.+.i ",
"6.0.N..X&X&X*X&X@X|.z.4.m > = = * , * * * * % % O O O O O O O O O O O O O O O * : , , , , , f g g f t o.d.XX@X&X&X&X&X@XOXb.#.| ",
"s.j.Z.OX&X&X&X&X$XXXz.7.j > = = * * * * * * O O O O O O O O O O O O O O O O O % = : , , , , f x g f u o.j.|.+X%X&X&X$X#X@X{.y.#.",
"N.Z.oX@X&X&X&X&X$X+Xx.4.m 1 : = , * , * % * o O O O O O O O O O O O O O O O o O * = : , , f x g g c u o.j.|.%X%X&X&X$X&X@X}.b.u.",
"|.XXOX$X&X&X&X&X$XXXz.4.c 1 : = , * , * * % O O O O O * O O O O O O O O O O O * O * : , , f x c v c a o.j.XX+X&X&X&X&X#X#X@X}.].",
"XXXX@X%X#X%X%X%X#X|.z.4.B 1 , = , , , * % % % o O O O O O O O O O O O O O O O O O * , , 1 x v c v c u o.j.Z.+X%X$X&X&X#X@X+X@X@X",
"}.|.OX+X@X+X+X+XXXV.s.2.l 1 , , < f , * * % % % O O O O O O O O O O O O O O O O O * : , x c U c v x u ..f.N. XoXOX@XOXOXXXOX%X5X",
"XXXXXXXXOXOXOX|.|.v.q.=.f 1 < < x x , , * % % % O O O o o O % O O O O O O O O O % * : , x c c U v k e ..i.v.V.|.XXOXoXXXZ.oX2X6X",
"+XOXOXXX.XOX|.|.|.N.r.=.f < , < x < , : * % % o % O O % % % O O O O O O O O O % * * , , x x c S g k y ..s.M.C. X|..X.XoX|..X2X6X",
"3X%X>X+X#X+X+X.X XC.r.=.f , , , 0 0 , ; # # % % O # % O # % # O & & O O O % % % * # ; , f x x x f w w ..f.N. X-X+X+X+X+X+X+X5X6X",
"5X5X5X5X5X5X2X1X>X=Xk.2.e , , q 9 9 , * - # # # # # # # % # # - # % # % # # # # * ; ; , w k x k w w t ..h.=X;X,X1X4X3X3X2X1X3X2X",
"5X5X5X5X5X5X4X1X;XA.l.2.u 9 9 9 0 h 0 9 9 9 6 6 , ; ; , ; 4 ; 6 5 ; 6 , , , ; 9 9 9 9 w x x N k h w t o.h.^.;X,X4X4X4X4X3X2X>X>X",
"#X%X%X&X%X%X#X+X|.B.k.2.V y e k m B B Z B v c x k x e e n h h n k n k k c k B c c v v S S F C N N u i o.s.C. XoX#X#X#X<X<X;X.XA.",
"#X#X@X%X#X#XOX|.Z.z.g.7.V N N N C S D H H D G F C B N N N n n N m m C C C F F F D D U T U H F N a a a o.9.N.C.oXoX#X#X#X#X+XA.A."
};
