/* XPM */
static char *result[] = {
/* columns rows colors chars-per-pixel */
"32 32 122 2 ",
"   c #000000",
".  c #020609",
"X  c #05090C",
"o  c #0E130D",
"O  c #11130E",
"+  c #070D12",
"@  c #090D14",
"#  c #091015",
"$  c #0D161D",
"%  c #111610",
"&  c #141A14",
"*  c #1A1A17",
"=  c #171C18",
"-  c #1C1D1A",
";  c #201D1B",
":  c #1D221C",
">  c #23221E",
",  c #0E1B24",
"<  c #101B22",
"1  c #131F2B",
"2  c #1F2120",
"3  c #162635",
"4  c #1D2530",
"5  c #162836",
"6  c #1E2832",
"7  c #1B2D3D",
"8  c #242522",
"9  c #2A2623",
"0  c #242A23",
"q  c #2B2B26",
"w  c #25282E",
"e  c #2C2E2A",
"r  c #322E2B",
"t  c #2D332B",
"y  c #2E382D",
"u  c #31332D",
"i  c #31392E",
"p  c #252A30",
"a  c #212E39",
"s  c #24323C",
"d  c #333632",
"f  c #333B32",
"g  c #393B36",
"h  c #3B3D3A",
"j  c #374234",
"k  c #3A4537",
"l  c #3D433D",
"z  c #42443F",
"x  c #1C2F40",
"c  c #1D3446",
"v  c #243544",
"b  c #20364B",
"n  c #23394E",
"m  c #283B4C",
"M  c #223D54",
"N  c #293E52",
"B  c #244056",
"V  c #2A4155",
"C  c #26425C",
"Z  c #2B445B",
"A  c #2C4762",
"S  c #2D4B64",
"D  c #2D4E6A",
"F  c #314D65",
"G  c #304E6A",
"H  c #2F516D",
"J  c #30536F",
"K  c #2F5675",
"L  c #315573",
"P  c #325876",
"I  c #335779",
"U  c #345C7C",
"Y  c #444644",
"T  c #464945",
"R  c #484D47",
"E  c #4D4E4B",
"W  c #465246",
"Q  c #4F504B",
"!  c #51514F",
"~  c #555554",
"^  c #595956",
"/  c #5B5B5B",
"(  c #636463",
")  c #6B6B6B",
"_  c #747473",
"`  c #7B7B7B",
"'  c #345F81",
"]  c #366284",
"[  c #386484",
"{  c #3B6887",
"}  c #36658A",
"|  c #39668A",
" . c #3A698D",
".. c #376991",
"X. c #3A6C93",
"o. c #396E98",
"O. c #3D729C",
"+. c #3E77A3",
"@. c #3F79A2",
"#. c #41759D",
"$. c #4177A0",
"%. c #437AA4",
"&. c #437EA9",
"*. c #497FAB",
"=. c #4581AD",
"-. c #4982AE",
";. c #4785B1",
":. c #4985B2",
">. c #4D89B5",
",. c #4E8DB9",
"<. c #508BB5",
"1. c #518DBA",
"2. c #5291BD",
"3. c #5191C1",
"4. c #838283",
"5. c #8A8A8A",
"6. c #939393",
"7. c #9C9C9C",
"8. c #A0A0A0",
"9. c gray67",
"0. c #B1AFB0",
"q. c gray76",
/* pixels */
"                      . , 3 M K K C 5 , .                       ",
"                . @ 7 D ..o.*.$.O.&.O...H 7 # .                 ",
"              @ x S ' *.$.O.#.[ U X.O.#.&.[ F x #               ",
"          . c U +.%.#.' ' U L D L P P ] ' X.*.#.' c X           ",
"        + M o.&.#.{ L F Z Z V s v m Z A S P #.#.&.o.C #         ",
"      X M O.%...L F s p e q > 9 9 9 8 w p s Z I | %.O.B +       ",
"      n  .%.' H v ; q r u 9 q q r q 9 r r 9 ; v H ' O.| M .     ",
"    b o.#.P D s 9 r > r t 9 0 t 0 e q t u q r 9 s S P | O.M .   ",
"  # ] *.X.F a q 9 9 z ^ j > * & = - : h ~ Y 0 9 q s S { =.} $   ",
"[ A U %.P V ; q 9 Y ) Y > > : * : 2 : - Y ) R 0 9 ; V P -.X.S U ",
"H %.P %.U V 9 q t d d 8 * ; ; ; : : - * : d g q 9 9 N I %.] %.H ",
"c ] [ X.] Z > q t - d ~ > ; > 9 : : = 8 E d 0 i r > N J { } ..M ",
"< D J G D N ; q f : q ! ! t O O % o t E E w : y q : m S G H D 1 ",
"  $ L I D N ; 9 d e Y d *.8.` ^ / _ 6.` g Y u f q - N S P U <   ",
"  $ | ..P Z > r i q ^ _ ` 7.q.9.6.0.7.` ` ( t f e 8 V H } O.,   ",
"  $ o.$.U V > r k t e ( 5.5.6.4.` 5.5.5.( u u u r > V P o.%.1   ",
"  $ ] +.P V ; r W Q ; R 5.7.6.4._ 6.8.6.! > T l q > N L o.o.,   ",
"  , } o.L N > e l d u / ^ ~ ) ` _ _ / ^ / f d f e ; N L o.o.,   ",
"  $ | ;.L Z 9 r i - g ` ( > d ^ / h e ) 4.l : y r 9 Z J O.o.,   ",
"  $ | -.L Z > u i : u ( _ ` 5.4._ ` ` ` ( i : j u 9 Z L O.o.,   ",
"  $ } ] J V > r i : > 0 m ^ ) ! E ) ^ V r > : t e 9 N J ] ..,   ",
"  7 L J Z V > q q : 0 0 8 R ) / / ) E q > > : 0 q 8 V S H J b + ",
"  H -.;.%.#.; 8 t = 0 0 t E ) / / ( R e 0 0 : j q ; { ;.;.;.%.4 ",
"c U { X.[ J ; 8 t = > 0 0 t ^ / / ^ t 8 0 > : t q ; S [  .{ [ 5 ",
"} #.+.&.@.[ 8 r i : : : 2 y h f f j y 2 : : = y r 9 U #.%.%.$.[ ",
"X.] X...[ S ; r i 2 j 2 : : : t t 2 : : y y 2 i r 8 A ]  . .[ ..",
"%.[ [ } U F ; 8 y j 0 : : 0 t y y t 2 : : y j t 9 - F ] [ [ [ $.",
"%.=.;.@.%.[ ; ; 0 t e e y y y y y t y 0 e t t e ; - P #.&.&.&.%.",
"[ o.o...' D 4 a s s s s s s s s s s s s s s s s a 6 F ' ..X.o.' ",
"L J L L L L P ....] U P |  .} } } }  .[ I L ' [ ' P D G J H L I ",
"U %.:.=.&.*.:.:.>.&.o.O.:.3.2.,.,.2.2.,.%.X.%.;.:.*.$.#.#.O.o.] ",
"..>.>.1.1.>.1.>.,.=.O.+.@.=.;.,.,.1.2.2.>.#.+.&.<.1.1.<.>.>.:.%."
};
