/* XPM */
static char *result[] = {
/* columns rows colors chars-per-pixel */
"32 32 105 2 ",
"   c #000001",
".  c #030509",
"X  c #060A0E",
"o  c #0F100B",
"O  c #16120F",
"+  c #060910",
"@  c #090D13",
"#  c #0B141C",
"$  c #151311",
"%  c #1B1715",
"&  c #161815",
"*  c #191A16",
"=  c #1C1D1A",
"-  c #221E1B",
";  c #1D221D",
":  c #23211E",
">  c #28231F",
",  c #0F1C25",
"<  c #1F2024",
"1  c #152533",
"2  c #162836",
"3  c #1F2C35",
"4  c #1A2B3A",
"5  c #232424",
"6  c #2B2623",
"7  c #262A25",
"8  c #2B2A26",
"9  c #232629",
"0  c #252A2E",
"q  c #2D2C29",
"w  c #322A26",
"e  c #332D2A",
"r  c #2C332B",
"t  c #2F3B2F",
"y  c #32332E",
"u  c #222C34",
"i  c #2F2F31",
"p  c #212E39",
"a  c #233039",
"s  c #343533",
"d  c #303C30",
"f  c #383D37",
"g  c #3D3E3C",
"h  c #364235",
"j  c #394039",
"k  c #40423F",
"l  c #1D3346",
"z  c #253543",
"x  c #283545",
"c  c #263846",
"v  c #25384B",
"b  c #283A4B",
"n  c #233D54",
"m  c #283E51",
"M  c #2A4157",
"N  c #244358",
"B  c #2C455C",
"V  c #2B4660",
"C  c #2C4B65",
"Z  c #2E4E69",
"A  c #304F6B",
"S  c #2F516D",
"D  c #30526E",
"F  c #2D5473",
"G  c #2F5878",
"H  c #315573",
"J  c #365B76",
"K  c #335779",
"L  c #335C7C",
"P  c #37607C",
"I  c #434343",
"U  c #474946",
"Y  c #4C4C4B",
"T  c #525253",
"R  c #345F82",
"E  c #366284",
"W  c #386486",
"Q  c #36658B",
"!  c #39668A",
"~  c #36688D",
"^  c #3A698D",
"/  c #376690",
"(  c #376A92",
")  c #3A6C93",
"_  c #3C6F9A",
"`  c #397097",
"'  c #3D739C",
"]  c #3D75A2",
"[  c #3F79A5",
"{  c #3F7CA8",
"}  c #41759D",
"|  c #44789F",
" . c #4276A1",
".. c #437BA5",
"X. c #437DA9",
"o. c #487FA8",
"O. c #4581AD",
"+. c #4981AD",
"@. c #4684B0",
"#. c #4986B2",
"$. c #4C8AB6",
"%. c #4E8CB8",
"&. c #518CB5",
"*. c #518EBA",
"=. c #5291BD",
/* pixels */
"                    . X , 4 N G G n 2 , .                       ",
"                . # l G ) ' ..o.X.X._ ~ C 1 X .                 ",
"            . # v F } o.' ' ) ! E _ ' ....! C 4 X               ",
"          @ n ~ .. .W R E K H D A K L R R } X. .F 2 .           ",
"        # Z ' { } R A C C n b z c m V C A K /  .{ Q l X         ",
"      # Z [  .Q H B u u 0 5 6 6 6 7 9 9 0 x Z K ) X.) l .       ",
"    X C } } E C u - w e e 6 w 6 6 w w w e w > m H E ' P 2 .     ",
"  . C  .E L B u w 6 - - O O O O $ $ $ - - - w 6 x S H ' ) 1 .   ",
"  1 ) O.E B 0 q q - O $ O O O O O O O O O O - w 8 z S ` X.F X . ",
"W C E ..H z : e g 8 $ $ O O O O O O O O O - U y 6 5 V E +.E C C ",
"W  .H o.H c q > s < * $ O O O O O O O O * ; 9 8 q 9 B E } Q  .v ",
"B E W ) L c 6 * ; 7 & $ $ O O $ O O O O & q y t e 5 B J W ~ / 2 ",
"4 S A A C x > * * ; o $ O O O O O O O O O < 7 q 6 5 M C Z S C @ ",
"  4 K H V z - > U s 9 % O O O O O O O O = I r t q < B D L S X   ",
"  4 ) ) Z c 6 : I I 7 - O O O O O O O * q U U j e 5 C H ) W +   ",
"  4 ] ..C x 6 5 g Y 7 = O O O O O O O = s T s 7 e 5 B R ' ! @   ",
"  4 _ ' C c 6 e k U 8 = O O O O O $ O - I T s 7 e 5 B R ' R +   ",
"  4 ) ) C c 6 * 8 I 9 = O O O O O O O = 7 k Y f e 5 B R _ R +   ",
"  4 _ ..D x w * ; s = * O O O $ $ O O * 5 I T j y 9 C L ] R @   ",
"  4 ' ..D x q * e T s 5 O O O O O $ $ - s T j h s 9 C K ] R X   ",
"  4 ( L C c 8 * 7 s i < O O O O O O O - q s 7 7 e 9 B D ~ G @   ",
". m K Z B b 6 * ; = 9 * O O O O O O O % s q 7 7 q 7 B Z S Z 4 . ",
". ^ @.@.| J > * ; $ = & O O O O $ O O - 8 < ; d e 0 ' O.#.#.^ @ ",
"B E ^ ( E B : & * * & $ O O O O O O O O = 5 : 7 5 9 H ! ^ ^ P , ",
"^ } ....] H 6 = & ; $ O O O O O O O O O & ; ; r y 0 W O.[ | ' E ",
"R ^ ( ~ R m 6 - r = $ # O O O O O O O O & ; r h y 9 S E ~ ! L ..",
") E W E L M - : r = $ $ $ O O O O O O O & = r t 6 < H E W E E O.",
"O.O.@.X.} D - * = & $ $ O O O O O O O O O & 7 7 > 5 ! ..O.O...' ",
"~ _ ) ~ L B u p p u 3 3 3 3 3 3 u 3 3 3 3 3 a 3 3 3 H W ( ) ) L ",
"H H H H H D L ) ~ R F L ~ ( ! Q Q ! ! E H H E E E S Z D F S H F ",
"Q o.O.+.o.+.@.$.#...~ [ $.=.=.%.%.=.=.%.' ^ X.#.#.o.| } ' ' ) L ",
"' $.%.*.$.%.%.%.%.O.) ] X.X.$.%.%.&.=.=.+.' ..O.$.=.&.&.$.$.+.` "
};
