/* XPM */
static char *result[] = {
/* columns rows colors chars-per-pixel */
"64 64 219 2 ",
"   c #000001",
".  c #00050C",
"X  c #040A0E",
"o  c #030A12",
"O  c #010917",
"+  c #091116",
"@  c #0B151E",
"#  c #151A14",
"$  c #181D17",
"%  c #1B1E1A",
"&  c #211F1B",
"*  c #1D221C",
"=  c #21241E",
"-  c #24271F",
";  c #011421",
":  c #081524",
">  c #091827",
",  c #061A31",
"<  c #1C2325",
"1  c #15242C",
"2  c #1D262B",
"3  c #1D282D",
"4  c #09213A",
"5  c #132736",
"6  c #1C2B34",
"7  c #1C2D3B",
"8  c #1D303E",
"9  c #232622",
"0  c #292623",
"q  c #252A24",
"w  c #2A2B26",
"e  c #252729",
"r  c #282728",
"t  c #252A2B",
"y  c #2B2D2A",
"u  c #322E2B",
"i  c #293127",
"p  c #27302E",
"a  c #2D332C",
"s  c #31332D",
"d  c #35382F",
"f  c #202731",
"g  c #232C33",
"h  c #2A2E31",
"j  c #232F39",
"k  c #2C3432",
"l  c #24323D",
"z  c #2A343B",
"x  c #2A353D",
"c  c #333632",
"v  c #353934",
"b  c #3A3C36",
"n  c #353838",
"m  c #3B3D39",
"M  c #583C1F",
"N  c #43382A",
"B  c #543B23",
"V  c #473E33",
"C  c #384037",
"Z  c #3D423C",
"A  c #52432F",
"S  c #4B4133",
"D  c #42423D",
"F  c #4B453C",
"G  c #594835",
"H  c #534A3E",
"J  c #5A4E3C",
"K  c #5D513F",
"L  c #654728",
"P  c #684F33",
"I  c #64513C",
"U  c #6B5438",
"Y  c #6B553D",
"T  c #725536",
"R  c #74593C",
"E  c #7B5D3E",
"W  c #7E613E",
"Q  c #001F43",
"!  c #0E2D43",
"~  c #082E4B",
"^  c #152E43",
"/  c #1B3343",
"(  c #183448",
")  c #042D53",
"_  c #183B56",
"`  c #243543",
"'  c #2A3741",
"]  c #253846",
"[  c #2C3943",
"{  c #253A4B",
"}  c #2A3D4C",
"|  c #323D43",
" . c #313F49",
".. c #243D51",
"X. c #293F51",
"o. c #0C3B63",
"O. c #1D4158",
"+. c #3C4243",
"@. c #33424C",
"#. c #3B474D",
"$. c #264154",
"%. c #2C4355",
"&. c #26435A",
"*. c #2B465B",
"=. c #2C485E",
"-. c #314655",
";. c #384955",
":. c #314759",
">. c #33495A",
",. c #3B4D59",
"<. c #16466C",
"1. c #1D517A",
"2. c #264A65",
"3. c #2C4B63",
"4. c #254B68",
"5. c #2D4E69",
"6. c #314E64",
"7. c #304F69",
"8. c #2E516C",
"9. c #355166",
"0. c #3B5362",
"q. c #3E5866",
"w. c #33536C",
"e. c #39556B",
"r. c #3D596D",
"t. c #224F71",
"y. c #255171",
"u. c #2C5473",
"i. c #29587A",
"p. c #2D5B7C",
"a. c #325672",
"s. c #345975",
"d. c #3B5B74",
"f. c #345C7B",
"g. c #395E7C",
"h. c #36607F",
"j. c #3C617D",
"k. c #434542",
"l. c #454A44",
"z. c #474846",
"x. c #4A4A45",
"c. c #4B4D4A",
"v. c #564D41",
"b. c #4E514D",
"n. c #5E5243",
"m. c #52524D",
"M. c #45525B",
"N. c #535553",
"B. c #555954",
"V. c #575A59",
"C. c #5B5C5B",
"Z. c #635442",
"A. c #6A5741",
"S. c #6D5A43",
"D. c #685C4C",
"F. c #735C41",
"G. c #7B5E40",
"H. c #5E615D",
"J. c #7D6141",
"K. c #61625F",
"L. c #435867",
"P. c #415D73",
"I. c #466579",
"U. c #43647C",
"Y. c #646563",
"T. c #666965",
"R. c #686967",
"E. c #6B6C6B",
"W. c #6E716C",
"Q. c #70706F",
"!. c #737472",
"~. c #777A76",
"^. c #7C7D7C",
"/. c #80613E",
"(. c #846644",
"). c #856847",
"_. c #866949",
"`. c #886D4F",
"'. c #896E51",
"]. c #80807F",
"[. c #275B84",
"{. c #2B5D83",
"}. c #345F81",
"|. c #2E6289",
" X c #356283",
".X c #3A6484",
"XX c #3D6886",
"oX c #36668A",
"OX c #3A6689",
"+X c #36698E",
"@X c #3C6A8C",
"#X c #366B92",
"$X c #366C96",
"%X c #3C6E93",
"&X c #3C7096",
"*X c #37719B",
"=X c #3B729B",
"-X c #426681",
";X c #436986",
":X c #436C8C",
">X c #4A6E88",
",X c #49708E",
"<X c #416E91",
"1X c #486F90",
"2X c #437194",
"3X c #497394",
"4X c #43759B",
"5X c #4A7698",
"6X c #45799D",
"7X c #487A9D",
"8X c #4277A0",
"9X c #427AA3",
"0X c #848483",
"qX c #878887",
"wX c #8C8C8C",
"eX c #90908F",
"rX c #939393",
"tX c #9C9C9C",
"yX c #A2A2A2",
/* pixels */
"'.`.).(.(.(.(.(.E E /./.(.(.).(.).).(.).(.(.Y G S d c ' ..&.5.w.a.5.=...7 g a d A P J.(.(.).(.(.).(.).(.).(.(.(.(.(././._._._./.",
"`._.).(.(.(.(.(.E E G./.(.(.(.(.J.W Y Y A.Z.n.v.z.Z  .X.:.7.a.g.f.f.9.=.X.] m D x.v.Z.A.Y Y E /.(.(.(.).(.(.(.).).)._./._././.).",
"`.).(.(.(.(.(.(.E R E /.(.(.(./.Y G b v n +.#.,.L.L.P.P.-X-X;X;X;X;X;XU.d.r.q.q.,.#.@.n k d I R W (.(.(.(.(.(.(.).)./.).(.(.(.(.",
").).).(.(.(.(./.R T E E /./.F.I G S a 6 ` $.7.d.g.-X;X1X1X3X1X<X:X:X1X1X>X>X-Xj.d.9.&.{ 7 z S J Y R (.(.(.(.(.(./.).).).(.(././.",
").).).(.(.(.)./.R R R W /.R V d n [ { $.=.a..X:X:X<X<X2X2X2X<X;XXXXX:X<X2X2X2X%X<XOXf.5...X.| m d V R (.(.(.(.(.(.(.(.(.(.(././.",
").).).(.).(.)./.E R Y U A.J n h } %.=.8.u. X:X3X2X%X%X%X%X%XOX}.g.j.XX@X@X&X&X2X4X%X}.f.a.7.:.} j V I F.F.G.G./.G.(.(.(.(.(././.",
"_.).).(././.).)./.R G S D +. .-.9.r.j.j..X.XOX@X@X@XoXOX}.}.f.s.s.s.g. X.XoX@X+X%XOXOX.XOX-XP.e.-.@.z.x.V J Y E F.G./.(.(.(.G.G.",
"_.).).(.).).)./.R I V c @.%.6.a.j.;X:X:X@X.X.X}.}.f.f.f.s.a.7.7.6.7.w.a.s.s.h.h.}..X.XOX:X;X-Xg.d.6.>.@.V V G P P T T G.(.(./.G.",
"_.).).(.(.(.(.R A N n { =.s.j.@X<X<X<XOX}.g.f.a.u.8.5.7.3.=.&.$.%.%.*.6.5.7.w.8.u.a.f.}.;X:X<X<X<X}.d.6.X.m N M L L T T /.(././.",
"_._.(.).(.(.G.U N c [ *.s.oX%X2X<X<XOX.Xs.a.5.3.=.=.=.&...} { ] ' { } X.X.*.3.3.3.5.w.s.}.OX<X<X4X<XOXs.6.[ u N B L L T /././.G.",
"_._.(.(.(.J.I F n ' *.a.XX&X2X2X:XOXg.a.7.&.&.X.X.X.{ { { ` l l l l ' ` { X...X.$.%.3.3.a.g..X:X<X2X<X-Xd.:.z s B M M P G.(.G.G.",
"_._.(.(.(.R G V n } 9..X@X2X<X@X.Xf.a.6.*.} { ` ` ` ` l j j g g g j j j j ` ` ` ` { } &.6.7.g..X#X<X<X:X.Xa.%.n N B L T /.(./.G.",
"_.).(.(./.U V z @.>.j.:X2X<XXXj.a.7.=.X.] ' ` j j g g f g f t f t f g g g g g j l l ` ] X.:.6.a.}.:X<X<X:XP.7.@.V V A.G.(.(.G.G.",
"_.).)./.R J b [ =.a.;X,X<XXXj.s.6.*.} l j h f h g t t e r r t e y r r r e e t t h t h h x [ X.6.a.}.OX:X<XOXs.6.z.x.A.(.(./.G.G.",
").).(./.I F +.*.a..X:X,XXXh.w.6.X.` 7 e r y y u u w w r 0 u 0 r r u r 0 e y r u u u y r r f ' X.3.w.g.}.%X%X}.d.3.z.D.(.(.(.G.G.",
").(.(.F.H +.>.w.h.@X:Xj.h.w.=.$.` j 2 0 r r u u u u r 0 0 0 u 0 y 0 u 0 r 0 u u u u y 0 0 r g ' X.3.w.f.OXOX;X}.u.9.N.D.G./.G.G.",
").(./.A.k.-.d.-XOXOX}.a.7.6.X.` f f t e r y u u u u 0 0 0 0 0 r 0 r w q w w w s u s w w w q t j ` } =.7.u. X.XXX.Xd.,.b.S.W W W ",
"G.F.I x.-.7.-X1X1X.Xd.7.*.} ` j f r y r y u n b c y 0 = 9 0 0 0 - 9 0 e 9 w a n m b c a y q e t f z } =.8.f. X@X2X@X8.,.H Y Y W ",
"A.J c ' 3.}.1X5X:X}.a.3.} ` f r r 0 r u b D x.z.b k 0 = & % % % % % * * * 9 a b z.x.D b y w 0 0 w g l { 3.8.}.@X4X&Xj.0.Z S Y J.",
"n.z.j ( 8.OX5X5XOX}.7.X.` f f r r 0 u b F c.b.x.b y 9 % % % % $ $ % % % $ 9 t n z.m.b.l.b y w 0 0 r f ` $.8.f.@X6X6X:Xr.@.Z v.K.",
"V.L.-.&.u.OX1X5X}.f.3.{ 6 < e 0 0 w b l.B.B.b.Z h 0 < * % * $ % % % * * * * * a m c.V.B.l.b y - 0 0 2 6 { 2.u.OX6X9X@Xh.3.>.q.L.",
"L.L.9.w.f.}.1X1X}.u.*.{ e < e w 0 y C l.B.B.l.v 0 % * * * * * $ $ % * = * * $ 0 c k.N.B.c.Z a 0 0 0 2 6 { &.u.}.6X6X&XoXs.u.s.j.",
"w.d.U.-Xg..X1X3XOXa.:.] t 9 w w w a v Z +.Z a w % % * * = * * * % * * * * $ $ * e a b Z C v s w 0 0 3 6 ] &.a..X=X9X#X|.+XoXp.i.",
"3.7.-X-Xg.}.:X<X}.a.:.' t 0 w w i a a a v k a q 9 $ % * * * * * * * * * * $ $ * q a a d v c a t e e 2 7 ] =.7.}.&X&X+XoX&X#Xi.1.",
"..*.d.P.}.-X-X-X-Xa.>.[ t 0 w w i i q q u n V n e % % * = * * * * * * * * $ * q b m c s y y a a y r e j { X.7.g.XX+XoXoX@X X1.<.",
"^ ..6.g.d.}.-X}.d.7.:.[ e = q i a i - - u n z.k.c e 9 * * % % * * $ $ * * * q c k.k.b a q q a a u t 2 f ] X.3.w.h.h.h.h..Xi.<._ ",
"1 ^ :.w.a.a.a.a.w.6.X.[ e = 9 i a a * - r c z.c.k.b a 9 $ # # # # # # $ 9 y v k.c.k.c w - 9 a a y r < 6 ` X.3.7.w.s.s.s.u.4._ ~ ",
"@ 1 { :.5.a.a.8.7.6.X.' e * 9 i d a q 9 r n k.c.m.c.z.b y 0 9 9 9 * 9 y n z.c.c.c.k.c y 9 9 a a y e < 6 ] X.X.3.6.8.8.6.5._ ! 4 ",
"o @ 5 { 4.u.u.w.7.3.X.' r & 9 w a C i i c C D c.K.R.E.Y.N.z.V | b Z l.b.H.Y.Y.C.c.| V n a w k a y q < 6 ] X.3.3.8.w.a.3._ 5 , , ",
"X o > ^ 4.u.a.a.5.3.X.' r & 9 w i i i a C k.k.m.R.^.0X0X!.R.H.N.N.V.Y.Q.^.^.!.T.m.k.k.| a a v d u q < 3 { X.*.5.u.a.d.6./ 4 ; O ",
". X : ! 4.}.}.s.a.3.X.[ r & 0 w i C q a k.c.c.V.Q.0XeXrXrX0X^.Q.E.!.^.qXwXqX].W.C.N.b.l.v a c d a q 1 6 { X.3.8.u.}.P.7.^ > ; O ",
"  X ; ! y.}.}.}.p.7.X. .r & 0 y C i i k k.b.V.K.!.0XrXtXyXtXwX0X^.].rXrXrXrX0X!.R.C.N.l.b a c c y w 1 6 { X.3.a.}.}.-Xe./ : O . ",
"  X ; ! y.OXOXXXg.e.>.[ r - w a c c y c | b.C.E.'.wXeXtXyXyXtXeXqXqXrXtXrXeX].'.Q.Y.N.k.c h c s s w 2 6 { &.5.a.}.OX;XP.7 : o . ",
"  X ; ! i.%X:X@X.Xa.>.[ y 0 i a C v a c m z.C.E.0X].eXrXyXtXrXrXqXqXrXtXrXeXwXwX!.Y.c.m c c c s y y 3 6 [ &.7.a.OX%X>Xr.j : o . ",
"  . ; ! u.<X<X:Xj.a.-.[ e 9 w d C C c k h D N.E.0XwXeXeXrXeXeX].].wXeXrXrXwXwX].E.V.D c c c c s a a 3 6 { &.5.f.oX<X1XP.j @ o . ",
"  . ; ! u.@X<X:X.Xw.-.' r 0 y d C C b n r n c.Y.>XwXwXeXeXeXeX>X^.>X].rXrXrXwX].R.m.n u c n n c a t t 6 { =.5.f.oX&X1XP./ : o . ",
"  . ; ! u.@X<X:Xg.w.*.x r 0 w d Z l.Z Z y h z.C.'.eXrXrXeXqX0X^.'.>XwXeXrXrXwX].Y.z.c y b Z m c u q 2 6 ] =.5.}.$X<X:Xd.j @ o . ",
"  . @ ! y.OX<XOXf.w.%.' r = w c Z Z Z Z u h z.C.0X0X>X].0X0X].^.wX~.0XqXqX0X0X!.H.z.c y b Z m v y y e 7 ] &.5.}.#X<X;Xe.7 : o . ",
"  . ; ! y.#X:XXXs.7.:.[ 0 = w s C C C C h m m.C.K.Y.E.R.E.!.!.!.~.!.~.!.E.R.R.K.C.m.b c c c v v y 0 1 6 { &.5.f.#X%X:Xe.7 @ . . ",
"  . ; ! y.OX<X:Xf.7.:.' r = w s C C C i u m N.K.C.N.v.n.B.H.R.E.E.R.Y.C.N.m.C.K.Y.V.k.v a a d k w y 2 6 { &.u.p.oX%X;Xe.7 : O . ",
"  . ; ! y.%X3X1Xg.7.-.| r 0 w s i i q q a F H.W.Y.N.V m k.c.C.H.K.V.m.z.C l.C.W.Q.T.c.c i w a c s t 3 7 { 3.y.f.#X%X:Xr.7 @ o . ",
"  . @ ! y.%X5X3Xg.7.:.| r 0 w i i i - * a l.H.W.E.C.z.| z.N.C.Y.Y.C.N.z.F b.Y.!.~.T.c.c w 9 a c s h f j { 3.5.p.OX%X;Xe.7 @ o . ",
"  . @ ! y.<X5X,Xg.6.-.| y 0 y a C i * - i C H.T.E.E.Y.Y.E.!.~.!.Q.E.E.R.K.W.!.!.E.C.k.a 9 q a c s y f j ..3.5.f.OX<X;Xe.6 @ o . ",
"  . ; ! u.OX3X>Xg.7.-.| r 0 u s C i * * i C Z H.Y.R.E.Q.^.^.^.!.E.E.Q.!.!.W.W.R.C.c.v y * 0 a c s y 3 j { *.5.a.oX@X;Xq.7 @ o . ",
"  X ; ! y.OXOX.Xs.6.X.n i 0 i i C i q * q i v Z z.N.V.Y.Q.E.Y.C.V.C.R.E.Y.C.N.c.D b a 9 * = i a u y 3 7 { 3.3.a.}.OX-X0.7 @ o . ",
"  X > ! y.}.f.f.8.3.-.[ w 0 - i i i * * * w t a n D m.V.Y.Y.V.N.m.V.Y.Y.C.m.D n s w q - * * w y u y e 7 { =.2.y.f.}.P.7.7 > O O ",
"  X , ( t.[.p.u.y.3.*.n w - i i i i * * 9 q q w y n k.V.Y.R.C.V.N.V.R.Y.N.z.n y w q q 9 * 9 i a y e 3 ^ _ &.4.y.i.i.f.5.{ 4 : ; ",
"  + 5 O.i.|.|.{.i.a.6.| w - - - i q * * * q 9 9 r h +.N.Y.R.H.V.V.C.Y.Y.N.k.c y q q - - * 9 w a w q 6 7 &.5.u.{.{.{.}.u.4._ , , ",
"  + 8 6.+X9X*X*X%Xj.d.,.i - - i i * * $ * q q q i C C M.Y.Y.H.C.B.H.H.H.B.D c w q * q 9 * - i u i e 3 / 5.h.+X&X=X=X=X&X@Xi.) Q ",
"X > $.h.*X9X9X9X6X&Xj.,.i * - - i i * * * - * q i i C b.C.Y.C.C.B.H.H.H.b.Z k w q q - * * = w s y q 1 / 5..X%X6X9X9X9X9X=X{.o.) ",
"1 5 &.h.#X*X6X=X*X+Xj.,.w = - i i - * $ * q q q q i C Z B.H.B.H.V.C.H.b.Z v i q q - 9 - * = i s i q 1 ^ 2.h.@X&X=X8X*X=X$X[.o.) ",
"8 ..6.h.*X*X*X*X*Xh.d.,.e = - - i - * # * q q q i q C Z b.B.B.B.B.B.N.c.C c i q - q 9 * * * w w i q 1 ^ 2.p.oX#X*X*X*X*X$X[.<.o.",
"O.4.f.+X&X*X*X=X$X#Xg.,.t = 0 w i i * * * * - < * q i C +.b.b.c.c.c.c.+.v i w * * * q * * * w a w t 1 ( 2.p.oX&X=X*X*X$X=X{.1.<.",
"u.s..X+X&X*X=X=X=X%XP.,.k - w u i i * * * - * q * q q C Z +.D Z Z Z Z C k i < - q * * * $ * y a i t 3 / 3.f.@X&X=X=X=X=X$X$X[.[.",
" XoXoX&X&X*X=X=X=X@XP.,.u - w u i i * * * q 9 * q q q i v C v v C C C a i i q * * - - * * * i a s y 3 / =.f.@X2X=X8X4X=X$X$X[.[.",
"oX+X+X&X&X&X=X&X%X@XP.;.h - w i C i * * - i 9 = * * q q i a s c i k i i i q - * q - q < * * a c s y 6 8 =.s..X@X4X$X=X%X%X$X+X$X",
"&X+X+XoX#X%XOX#XoX Xe.@.y 9 0 s a a i i i i q - q * * q q i i i i i i * q * * q q i i q 2 i a d u t 3 7 ..w.g..XoX#X#X%XOX+X+X%X",
"&X*X|. XOXOXoXOX Xf.9. .t 9 0 w a a i a s a q - * * * * q i k i p i i * * q * * q i a a i i a d y t 1 7 &.7.g.}.}.}.OXOX}.OX<X:X",
"=X=X@XoXoXOXOX.X Xg.0.@.r & - w a a v a a w = * * q * i q i C i a i i i q * * q - q a a c a d a y e 1 6 X.7.d.g.:XOXOXOX}.OX<X1X",
"9X6X&X%X@X@XOX;XXXj.e.@.t % * 0 t a v n y w 9 < q q p i i k i k C p C p i q q q < t a v d k a p 0 < 1 6 &.e.P.-X:XOX;XOX1X<X1X5X",
"9X6X6X6X8X5X5X4X1X;XP.;.f % < < t h k k h y y y p 6 p k C p C p C C p C p p p p p p k k k k k y e < 1 7 :.P.U.>X3X1X3X5X5X2X5X5X",
"5X4X6X7X8X5X5X3X1X;XP.>.g < < e h k k n n n n v C C b C C C C C C C C C C C C C b b C C Z b v c t t 1 7 >.P.I.>X1X5X5X5X5X5X<X1X",
"@X:X2X&X4X=X<X:XOX}.e.:.j e f h n n b D F F F H H H H H H H H J F J J J K n.Y A.n.K K K K K J H D n l ` ;.L.P.U.;X1X:X<X<X:X;X-X",
".XXX@X@X<X$XOXOX}.}.7.-./ f g z n Z D F v.v.n.n.Z.Z.n.n.K K Z.A.Y I A.D.Y R W W J.F.S.S.S.S.A.I H D x ' #.L.L.P.-X;X:X:X:X:X-XP."
};
