/* XPM */
static char *result[] = {
/* columns rows colors chars-per-pixel */
"64 64 39 1 ",
"  c #5F3915",
". c #5F3E1A",
"X c #633C15",
"o c #643F19",
"O c #65411C",
"+ c #68431D",
"@ c #664523",
"# c #694622",
"$ c #674826",
"% c #6B4A25",
"& c #6C4C2A",
"* c #704C27",
"= c #714F2B",
"- c #6F502E",
"; c #72512D",
": c #6D4F30",
"> c #6F5131",
", c #745532",
"< c #785733",
"1 c #765836",
"2 c #7A5A36",
"3 c #745739",
"4 c #765A39",
"5 c #7C5D3B",
"6 c #7F603D",
"7 c #7F6141",
"8 c #7D6448",
"9 c #805F3B",
"0 c #81623E",
"q c #846541",
"w c #866846",
"e c #876949",
"r c #896B4A",
"t c #8B6F52",
"y c #8C7153",
"u c #8F7659",
"i c #927A5D",
"p c #957E62",
"a c #988367",
/* pixels */
"apuyrrrrrrrrrrrrrrrrrrrrrrrrrrrrrreereee0y0yrryrryrr0y00y0rryiaa",
"piyrrrrwrrrrrwrrrywwrrrrrrwwwwwwwwwwwweey0y0y00rr00ry0yrryrrryyi",
"iyrwrwwwwrwwwwwwr00w0rrrrr0www0www0wqwww0yy00r0yrrrrrr0y0wwwrrrr",
"yrwq0w0000qqwqwqww0wr00000000w0ww00wqqqq00000rr000r00y00rww0000w",
"rrqqwww05550qqqq0w000w0000qqqq0000qqqqqq0000000yrwrw00r0qqwqw000",
"rwwqwq0041250qqq00w00006000qqqw0wwqqq6669900y000w00rr000wwqq0q00",
"rwqq00004,50qqqq666606660606q0qw00777443<90000000r0000r0qwwqqq00",
"rwqqwww0445505956166<62206266666007773>-900000r0000w0w00qqqqwq00",
"rrr0w0wq000543,>**+-;;**=-,,,11506666,%$%;6000006866666699900000",
"ry000w00q051>:&$++++++++%##%&;;<22666<---,6000000664>-&-99290000",
"rrr0w000743>%#ooXXXXOOOOOO++@#**-;25626266660000064>&$O%++*<0000",
"y0r00w004>:$#oooXXXXOO XXXoX+O++#&,2226606660000061$$@OX++*<9099",
"rr00qq09,**+oooXXXXXXXXXXXXXoo+++%;<266666666060062&@O...O$-9000",
"r0000q00,**+ooXXXXXXXX XXXXXooX++%%;<26<22662666066,&@@O@$$,0000",
"0yr0qqq9=#++oXXX  XXXXXXXXXXoooo++*;<6262222666666666,,,14660006",
"r0r0qqq9=%+++XXXXXXXXXXXXXXXXXoo+#*;;2<<;<<<<<262666666666w00062",
"rrwqqqq0<;%+++ooXXXXXXXXXXXX X.oO%;;<,>>-%%%&->3266600000000r000",
"rrw0qqq00<;%*+#OXXooXX XX Xo.oo.$&;<=>%$$$O+#$&-225600000r0r0060",
"0w0w00qq001;;&&#+oOooX   .oOO@$&:;,;=&##OOOO++@$=,20006600r00066",
"rrw0099900052,,:%%$#@ooooO@+$$:><<;;:&#@@OOOOO+$-220666600000666",
"ew8699**2900522<<<<,=,:===;;;;;<;;,;,&%&@@OOO$$-1626226166660006",
"ew669***<500099095544,4,<<<;;;;;;;;;=,:&$$$$$%-;2662,;-;&,660r66",
"eq061-;<15009902224,,,,,;;;;;;===&&===;;;&&;;,<<262,=%$$@&,60666",
"ww6666,<259092222<2,<,,===**;*==***&==;;;;,,<<<12221=%$$$&660666",
"ew000066666655229<<<,;&&##$%==***=%&==*&;;=-----,,2113,14660ww66",
"ew0w00q866625522<<<<,=$@@@##%;%+**%**%%%++%%%%%--->,1225660w0066",
"0ww00w66666662522<<<,%@O@@@@%%%*%*##$$@@++++$++#%%$--,1566700666",
"w0w0066666622222,<<;;%$#.@.@%%%%%###$@##++++OO+OOO+$$-,148680666",
"rww0066,,,>,,122<,<,==*%$$&&&$#+##@###oOXXXXXXXXOOOO++%;160ww006",
"rw006<--$&---;;1<<<<;==*$$&&&#%%%+@####oXXXXXXXXO XO+++%;6000066",
"0w00,&%+OOO++%->,<;;,;=%&$&%##%%%%##++ooXXXXXXXXXXXXX+O$;60wq065",
"w000;&@OOOOO+%-,,<<;;;=*&&#%#%%%%%%###ooX XXXXX  XXXOO$&,500q062",
"www62=%+OX.@@$,21,,,,;=***%%+%%%%%%%#OOO  XXXXX     O+,,66000000",
"wwq621=*%%$%$,1211--;==%%*%%%%%%%%%%$##@OOOOOOOOOOO@%*,668w0w066",
"w0q6666222144422,;&$%%$$*%*%%%%%%%%%%%---%&%$%&&&>>3<200680w0062",
"0ww6w6qq666666222;$$$$@#%***%%%%###%%%%-;;---->>445590006q000066",
"ww00qq00666625221,%$@@@$*=%%%%%#@@@@$$$$;;=;;,,,1455009000q00000",
"wwwqqq00666665221;-%$#$$=*=*%%%#@@@OO.O$%;=;<<<,442520900w0w0006",
"rwqqq006666652522,--=;======%%%+OOO X XO%*;;<<<2125500226qqqq066",
"rwwqqqwww66625222,11;;;;;;==*%%%@OOXOOO+%-;;<,,2555562<<560qq666",
"rww6qqqq00066221<;,;;--%==;===**%#@@O+%--,;,,12225522<=:340qq057",
"wwqwqqqq666622,;;==%%%-%--===;;*&&&%%%->,,,,,,2225555<::,500qq75",
"rw60qqqq662,;-%%%$%%$%%%%%%*=;=;;&&&==-,,,<<1216999995556qqqq977",
"rwwwqqq065,==%#OOOOOOO%$$%%%*;=;;->>;;;;;,,,,116999900qqqqqqqq77",
"wwqqqqqq62;%++OOXXXXO+O##O##*===;;;;<<<,,,,->,,12999000qqqqqqq55",
"wwqqqqq065;%+++OXXXXXOXOOO+%=;;=;;;;<<,--%%-&:-,<250000qqqwqqq75",
"wwqqqqqq66;*+++++XXXXXXXXOO%;1;2<;<<<<*-&%#+O#%-;<290000qqqqqq77",
"wwqq00qq662;*+%%++OOOOOOO#%%,122<<<<<;*%%+OOOO+%%;<90q00qqqqq074",
"wwqq666qq66222;;=%%$$&%--->12222<<2222*%#++XXo+++%<60w0000r00r00",
"rwq6226qqqqq6621,<,,>>>>16262222<92252;%%++OXoO@@&<6000r0r000000",
"www6220qqqqqq66662606221626222259<25222<=*+O..O$&,600w0w0000qq00",
"rwqq66qqqqqqqqq6000066666626555229255552<=&%$$%=16000w000r0rq000",
"rwqqqqqqqqqqqqq6000066666665662609255552922255506qqqq0w0qqqqqq95",
"wwqqwwwqqq6666660000000062666222<2<25559990q0w000qq00wwwqqqqqq77",
"qwqwqwqq6626666600000000666662,---;19009900q0000qqqqw000qqqwqq57",
"qqqwwq06661,111226000000666622;-&&&;0q0q900qw00066666600qwwwq075",
"www0866,-%%%%-=-&-6666w0000061,-&&>>6qq7qq0qq0q0513>><40qwwwq009",
"rrw006>-$@OOOOO$$$>66600w0wq6661>>347qqqqqqqqqq053:&&:37qqqwq097",
"rww000,=$O.X XX..$6660000wq06606766600q0qqqqqqq074>&&&49qqwqq075",
"rrw0w066;$$OOOO$$&600w0000qqqqw0qqqqww0wqqqqqqq0043>:>409qqqqq75",
"rww0800666662266666w0w86w00r8q000w080w00qqqqwqqq00755000qqq0qq57",
"yrww68w688686666888066660000666806660000q7qqqq07000000009098008q",
"iur68464664444646446664646663646664664665455447438747438834748tu",
"auw644444>4444444444444414,66334414144414444444443444444443348up"
};
