/* XPM */
static char *result[] = {
/* columns rows colors chars-per-pixel */
"32 32 41 1 ",
"  c #5D3917",
". c #5D3B1C",
"X c #633E1B",
"o c #5C3F21",
"O c #65411D",
"+ c #68421E",
"@ c #5F4224",
"# c #644424",
"$ c #694523",
"% c #674927",
"& c #6B4926",
"* c #64462A",
"= c #66492C",
"- c #6C4C2B",
"; c #704F2D",
": c #6F512F",
"> c #72512F",
", c #6B4E31",
"< c #6D5134",
"1 c #6E5338",
"2 c #735433",
"3 c #785736",
"4 c #765836",
"5 c #7A5A37",
"6 c #73573A",
"7 c #755A3C",
"8 c #7B5D3C",
"9 c #7F613E",
"0 c #755C41",
"q c #7B5E40",
"w c #7E6143",
"e c #805F3E",
"r c #80623E",
"t c #836543",
"y c #866846",
"u c #856748",
"i c #866A4B",
"p c #886B4C",
"a c #8C7155",
"s c #947C63",
"d c #978267",
/* pixels */
"dapppppipppppippiiiiiipiipiiiiad",
"atytuuuuytuutttttttuttuuuuyyyyty",
"ptyt68ttttttttttttttttttuuttytt9",
"ityt19tttw8qqwtttt012tttttytyuy9",
"ptytu91<%%---,<78w8*-ttrtw767ry9",
"pytt7<$XXXXXO+$&-88tt8ttt<%O%:t8",
"pryr<$OXXXXXXXO+&>888w9r92@Xo=yw",
"yytt&$+XXXXXXXO+$-58558w9tw8wwu8",
"pttt8$$+XXXXOXX.*32,=%-<89rtttt8",
"yytttq6,##X..@*<32,$#O+#<9tttttq",
"iw<-5t8ee8774322222,*#*,98467wu8",
"yt6<qre85632>>>>;->2245588%#@8tq",
"pttww885532=%%>&;-;--,,,2788wty8",
"tttttr8863:##@---&=%$$$$%%<7wttq",
"pt82<<2543>>=<-&%%&#XXXXX+$&8ttq",
"tt,#X$$<322---&--%$+XXXXXX+#6tt8",
"it4*O@=8422;;&&---%#.XXX..*7ttt8",
"tttttw974==%-;--&--22<<<7q9twtt8",
"uttrw8854=#*>--%**#*>>34789rtttq",
"ptttt9885422>>-%$XXX-23488r5wttq",
"itttt98422,-2>>>-=%<4265885*6ttq",
"itttw2,%*$%-=->>><>24458eewttttw",
"ittt8-$+XX+#$$:>>244<<<68r9ttutq",
"ytttt<+$+XXXO#74444--+$%>8twtttq",
"it6tttq6<<,<7855558-$+X$#8tttttq",
"it7ttttt999898888888>#o*6tttttuq",
"ityytttwtt99q898e888ettttttutttq",
"tyytw8889ttrrt8,-,twettrtttttitq",
"ptt1=$%-=7tttt91,1tttttt7,,8yytq",
"itt3#. .@9trttttttttttttq,=qtytq",
"pyutiutuiututtuttttttuytttyttttq",
"sw70676077777777777777770777060s"
};
