/* XPM */
static char *result[] = {
/* columns rows colors chars-per-pixel */
"64 64 210 2 ",
"   c #3A3736",
".  c #3D3936",
"X  c #3C3B3C",
"o  c #5C3D1D",
"O  c #633E1D",
"+  c #44372D",
"@  c #4C3C2E",
"#  c #543C25",
"$  c #5C3E23",
"%  c #523E2B",
"&  c #433B35",
"*  c #4B3E33",
"=  c #433E3B",
"-  c #483F39",
";  c #623E20",
":  c #64401E",
">  c #5E4024",
",  c #55422D",
"<  c #5C432B",
"1  c #4D4235",
"2  c #46413C",
"3  c #4A433B",
"4  c #4E483F",
"5  c #534435",
"6  c #594633",
"7  c #564836",
"8  c #5C4A34",
"9  c #52463A",
"0  c #53493B",
"q  c #5B4C3B",
"w  c #5D573B",
"e  c #644323",
"r  c #684624",
"t  c #6A4827",
"y  c #63462B",
"u  c #66492B",
"i  c #6B4B2C",
"p  c #71512F",
"a  c #644C34",
"s  c #6C4E31",
"d  c #624E39",
"f  c #714F30",
"g  c #6D5134",
"h  c #63513D",
"j  c #695339",
"k  c #6C543B",
"l  c #725435",
"z  c #735639",
"x  c #755A3C",
"c  c #7B5D3D",
"v  c #7E603E",
"b  c #3F3E40",
"n  c #403F41",
"m  c #434343",
"M  c #4A4642",
"N  c #4D4943",
"B  c #464648",
"V  c #484749",
"C  c #4C4C4D",
"Z  c #524C44",
"A  c #594E42",
"S  c #524E4A",
"D  c #575046",
"F  c #5C5244",
"G  c #54514D",
"H  c #5C544B",
"J  c #4F4F50",
"K  c #535254",
"L  c #595552",
"P  c #5B5857",
"I  c #575659",
"U  c #5B5B5D",
"Y  c #635543",
"T  c #6B5642",
"R  c #645946",
"E  c #6D5A42",
"W  c #645A4B",
"Q  c #6A5D4B",
"!  c #725C44",
"~  c #7B5E40",
"^  c #705E4D",
"/  c #625C54",
"(  c #6B5F52",
")  c #635E5B",
"_  c #6D614B",
"`  c #7E6141",
"'  c #73654B",
"]  c #78654B",
"[  c #6D6354",
"{  c #66615C",
"}  c #6D645A",
"|  c #726552",
" . c #756A54",
".. c #7B6D53",
"X. c #71675B",
"o. c #746A5A",
"O. c #7A6E5B",
"+. c #7E7053",
"@. c #7D715A",
"#. c #5E5E61",
"$. c #636364",
"%. c #6A6562",
"&. c #676669",
"*. c #6B6868",
"=. c #6B6B6D",
"-. c #756C64",
";. c #7C7264",
":. c #7D736A",
">. c #787469",
",. c #6D6D70",
"<. c #706F74",
"1. c #727175",
"2. c #777678",
"3. c #7B7B7D",
"4. c #80613F",
"5. c #836543",
"6. c #856847",
"7. c #866748",
"8. c #866A4B",
"9. c #886D4E",
"0. c #886D51",
"q. c #827356",
"w. c #8B7154",
"e. c #83755A",
"r. c #8C745A",
"t. c #87785D",
"y. c #8A7A5C",
"u. c #917B5E",
"i. c #857A64",
"p. c #867B66",
"a. c #947C63",
"s. c #847C74",
"d. c #897F74",
"f. c #749152",
"g. c #91805F",
"h. c #8C8267",
"j. c #948463",
"k. c #998765",
"l. c #9A8966",
"z. c #918268",
"x. c #9D8B68",
"c. c #8B837A",
"v. c #968B77",
"b. c #A4967B",
"n. c #91B76E",
"m. c #B0A07F",
"M. c #7E7E81",
"N. c #807F80",
"B. c #8A8783",
"V. c #86868C",
"C. c #8B8A8C",
"Z. c #958D85",
"A. c #968E86",
"S. c #9A9489",
"D. c #8D8D91",
"F. c #908F95",
"G. c #939193",
"H. c #9C9695",
"J. c #989798",
"K. c #9C9B9D",
"L. c #A89C87",
"P. c #A29C9A",
"I. c #9EB08C",
"U. c #ABA195",
"Y. c #B8AF93",
"T. c #B2AA9B",
"R. c #9E9DA1",
"E. c #A09FA4",
"W. c #A4A1A3",
"Q. c #A3A2AC",
"!. c #AAA6A8",
"~. c #ACAAAC",
"^. c #B7ADA0",
"/. c #B2AEAD",
"(. c #B9B1A7",
"). c #A8A7B1",
"_. c #AEAEB4",
"`. c #B1AEB2",
"'. c #B9B6B7",
"]. c #C2B7A3",
"[. c #C3BFBB",
"{. c #B8C799",
"}. c #BCC9AC",
"|. c #CDCFB6",
" X c #CBC4B9",
".X c #BDBDC5",
"XX c #C3BFC3",
"oX c #C0BEC9",
"OX c #C4C2C5",
"+X c #C9C7C6",
"@X c #C3C2CE",
"#X c #CCCBCD",
"$X c #D3CEC7",
"%X c #D4D6CB",
"&X c #DED6CA",
"*X c #C7C6D3",
"=X c #CFCEDB",
"-X c #D4D3D5",
";X c #DBD9D9",
":X c #E3DFD9",
">X c #E3E3DB",
",X c #DDDCE0",
"<X c #DFDDE8",
"1X c #E5E3E6",
"2X c #EBEAEC",
"3X c #F0EDEA",
"4X c #F3F0ED",
"5X c #EEEEF2",
"6X c #F3F3F5",
"7X c #F8F8F9",
/* pixels */
"j.a.r.w.9.8.9.9.8.9.8.0.0.8.8.0.8.0.8.8.0.0.8.8.0.0.7.0.8.0.8.8.0.0.0.0.8.0.8.8.0.8.0.9.9.8.9.9.9.8.8.w.9.9.6.9.9.9.9.9.9.w.u.u.",
"a.a.w.0.9.9.8.8.7.8.8.8.8.8.8.8.8.7.8.8.8.7.7.^ ! ! ! ! ! ! ^ ! ! ! ! ! ! ! ^ ! ! ! ' ] 7.8.7.8.] 8.8.8.9.6.6.9.7.7.9.9.9.w.u.u.",
"r.w.9.7.6.6.7.7.7.5.7.5.` 6.6.6.7.7.5.7.7.7.^ T n & n - n - - - = - - n - = - - = 3 q ! ` 7.7.8.6.6.6.6.6.6.6.6.7.6.6.6.6.6.9.9.",
"w.9.7.5.5.5.5.5.5.5.5.5.5.6.5.6.5.7.5.5.~ ! T A n n n n n n n n n n b n n b b b b 2 0 q ! ~ ` 6.5.5.5.6.6.6.4.6.5.5.6.4.6.6.5.6.",
"9.8.6.5.5.6.5.5.~ c c ~ 5.5.5.5.5.5.5.4.z Y Z M S L I #.#.#.#.) U U #.U #.#.#.K K C M N q Y ~ 6.5.5.5.5.5.5.4.6.7.5.5.7.6.5.5.4.",
"8.8.5.6.6.5.5.5.x x c ~ 5.5.5.5.5.5.! ! d 9 n V I $.&.=.&.&.&.=.=.=.=.=.=.=.=.&.$.I C V M q k ~ 5.5.5.5.5.6.6.6.7.7.5.5.6.4.4.4.",
"8.7.5.5.4.5.6.4.x z c ~ 5.4.5.5.4.~ d 9 - n n K #.&.*.,.,.=.,.=.=.=.=.=.,.=.=.=.&.#.I C M 3 9 h ~ 5.5.5.6.6.6.6.7.5.7.5.7.5.4.~ ",
"7.7.5.6.6.6.4.4.x x c c 4.4.4.4.4.x - - & n V K #.*.*.<.,.,.,.=.=.,.,.,.,.,.=.=.*.$.I C m = - q ! 5.5.5.4.4.4.4.4.5.5.5.5.5.4.~ ",
"7.7.6.6.7.5.5.5.4.4.~ ~ x x g g g a * & X n n K U $.=.=.,.,.,.,.,.=.,.=.,.,.,.=.#.#.K J m = - 0 x 5.5.v c c x x c 4.4.5.5.5.4.c ",
"9.7.4.4.5.7.5.5.5.4.~ x f f i i s $ * & n n J K U #.&.=.=.&.=.=.&.=.&.=.&.=.=.&.#.#.I J V m 2 0 x 4.c c z g l l l l c 4.4.5.4.~ ",
"6.6.6.6.5.7.5.5.~ x z f f t ; ; ; ; @ - C I #.#.U U #.$.$.$.$.$.$.$.$.$.$.$.&.#.#.U #.#.I K M q ! v z g i i r r t f f l 4.5.~ ~ ",
"6.6.6.5.5.5.5.4.x g s u O O O O ; ; * D #.=.2.2.=.=.=.,.,.=.,.,.,.,.,.,.=.,.,.,.&.=.,.,.,.%.L F E x z i r e e : ; r t l 4.5.~ ~ ",
"9.6.7.6.5.5.5.c z s i r r O O O $ % H { f.V.F.F.V.V.V.V.V.V.V.V.V.V.V.V.V.V.V.V.N.V.D.D.V.M.*.( R j g i e O O O o e r g c 5.~ ~ ",
"6.6.7.4.5.5.5.c l i r e O O O O # 9 / 2.V.J.E.).Q.Q.Q.Q.Q.Q.Q.Q.Q.Q.Q.Q.Q.Q.Q.Q.Q.Q.R.R.R.D.2.%.Y q g g i y e e r u i l 4.5.~ ~ ",
"4.9.7.4.5.5.4.c i i e > ; ; ; $ * N &.M.F.R.Q._..X@X@X@X@X@X@X@X*XoX*XoX*XoX*XoXoX.X.X).R.F.V.*.S 9 j z g a a a z x ! ` 5.5.~ ~ ",
"9.7.7.7.7.5.4.c l u $ % % % % * n J &.M.V.R.Q..X*X=X=X=X=X=X=X=X=X=X=X=X=X=X=X=X=X=X.X.XR.D.3.&.K N Y Y h q q d ! ` 5.6.5.5.4.~ ",
"9.4.4.4.9.9.4.4.z a *     & 2 N C K U &.2.D.R._.oX*X*X*X*X*X*X*X*X*X*X*X*X*X*X*X*X@X'.).F.M.&.U K J S N m & = 9 E 5.5.5.5.5.~ ~ ",
"9.9.9.4.4.4.4.4.j 7 . X X = V K I U I #.=.2.V.J.E.).).).).).).).).).).).).).).).).Q.E.F.M.,.#.I U I K C n X   3 T 5.5.5.5.6.v ! ",
"4.4.9.9.5.4.4.4.7 - X n B J I #.$.$.U U #.#.=.,.1.1.1.1.1.1.1.1.1.1.1.1.1.1.1.1.1.<.,.=.&.U #.U #.%.#.U J B n N ! 6.5.5.5.` ` c ",
"9.4.4.4.4.4.4.x 9 - = m B C I #.$.$.#.U #.U U U U U U U U U U U U U U U U U U U U U U U U U U #.&.$.#.I S V m M z ` 5.5.6.5.~ ~ ",
"6.6.6.~ x l l s a 8 -   X X B C K I #.$.$.&.$.&.&.&.$.&.$.&.&.$.&.&.&.$.&.&.$.&.&.&.&.$.&.$.$.#.U K J B b     - h v v 5.6.5.c c ",
"7.6.5.c l s s s l j 5 - 1 2 b n B J K I U U U #.#.#.$.#.$.$.#.$.#.#.$.#.#.$.$.#.#.#.#.U U U I K V B n X & & + * a z c 5.5.` ` x ",
"7.6.5.~ z l g g x x z k j q 1   X X X n b m n B C C C J C J J J C C C J J C J C C C C m b b b X X     & * $ $ $ e i l v 5.` ` v ",
"7.6.5.5.c x z z c v v c 4.k 5 .     = X = = - m N Z Z Z N D G G 4 b b m 2 m n m Z S S V 4 2 4 4 n - . & y u u u t i x v ` 5.` x ",
"7.7.6.5.v v c v v v v v v g 7 1 4 0 F R R R R Q _ _ Q _ _  .t. .N X b m m b X m _ o.o...| ..@.@.[ R 0 , g z l g z c 5.5.5.v c c ",
"7.7.6.5.5.5.5.4.4.4.v v v l 8 8 R _  .+.q.q.q.q.q.q.q.+.q.+.t. .m X m B B m X 4 [ ..@.t.g.g.k.j.+.Q 7 8 g c c c ` ` 5.5.5.5.` ~ ",
"7.7.5.5.5.5.5.5.4.4.v c v l 8 d  .t.g.l.x.x.x.l.x.x.x.x.l.h.W N m b C J J C m m M F [ e.j.x.l.t._ 7 7 , a g x v v 5.5.5.5.5.~ c ",
"7.5.5.5.5.` c v c c c c v l 8 h +.g.k.l.k.k.k.k.x.x.x.x.l.@.N X b N J K K J B m X V } h.b.m.b.j.@._ 7 6 u i p l x v ` 5.5.5.~ ~ ",
"7.5.5.5.~ c x l l l z z x g 8 q _ +.q.q.+...' ' +.q.t.y.q.' 2   b B J K K J C m X V 1.H.].].Y.Y.^.A.W , u r i p l v 4.5.5.v c ~ ",
"7.7.5.~ c z s s s s i p s s 6 7 _  .q.+...] v ' +.+.e.e.q. .D n m m C J K C m B J &.G.(.$X|.{.{.}.I._ , e r : p l c 4.5.5.5.` c ",
"7.7.5.c l s i r r e r r t y 1 0 ' t.g.h.g.y.y.y.g.g.k.k.k.g.@._ 4 X B C C B b J 2.K.[.;X>X>X|.{.n.f.w < e : e t p c ` 5.5.` ~ ~ ",
"7.5.5.c g i r e : O : : r > @ 0 _ t.g.j.g.g.g.g.j.k.l.k.j.h.h.[ D B D L G G P ,.R. X-X:X>X>X%X{.n.f.w < > e t i l c ` 5.5.5.~ c ",
"6.6.5.v x p i e : : e > u < 1 4 H | @.t.q.q.+.q.y.y.y.t.@.o.o. . .[ O.O.O.>.B.U.XX;X$X+X[. X%X}.I.f.{ 0 < u s l v v 5.5.5.5.v v ",
"6.6.6.v v l l i u t u u i a , 7 F _ [ ..] ' _ _  ...+... . .>.:.f.v.v.v.v.L./.@X,X;X+X[.(.'.+X XI.f.R 8 u i l v ` ` 5.4.5.v v v ",
"6.5.6.5.v v 4.v v x z z v g j 8 0 D R R R F w D R W Q [  .>.B.H.(.(.].].]. X;X>X;X#X[.~.W.Q.`.~.S.s.Q j l v v 4.` 5.v 5.5.v v x ",
"8.7.5.5.5.4.4.6.5.v v v v v l g 7 9 Z Z 0 4 4 M D H / -.f.Z.!. X%X&X&X&X&X>X4X2X-XXX).W.P.P.P.G.c.O.! z v v v 4.` 5.6.5.4.' ` v ",
"7.7.5.5.6.4.4.4.v 4.v v 4.l l p 8 7 9 3 2 2 2 m V H %.2.S.^.&X1X2X2X3X3X3X4X6X2X#X'.).E.K.G.N.-.[ h z v v v 4.4.4.5.5.5.5.v v v ",
"7.5.5.5.4.6.6.4.4.v v v 4.l 4.p g 8 9 3 2 X X m C U c.H.^. X>X5X4X6X5X5X4X4X2X1XoX`.W.H.C.s.-.Q h j l c x v 4.4.4.4.5.5.5.5.` v ",
"5.8.7.5.5.4.5.4.4.4.v v c c v c l j 6 1 2 .   b J ,.R.'.+X%X;X,X,X,X,X,X,X,X,X;XoX'.H.s.X.T Y j l z c c v c c 4.4.5.4.5.5.5.` x ",
"8.6.5.5.6.4.5.5.4.v v v v v l l l s 6 1 .   X b J =.J.`.`././././././././././.~.!.P.d.| Y a a s z v c v c c l l v v 5.5.5.` v ! ",
"8.6.5.5.5.5.5.4.4.4.v v v c c l l a 5 & X X 2 m B J I { { X.X.X.X.X.X.X.} X.X.} } [ R h j s l l l c 4.c c l s i l x 5.5.5.` v c ",
"6.6.6.5.5.` 5.4.v v v c c l l g 8 6 3 2 m B B B B m b = 3 1 1 0 0 0 0 3 1 1 1 1 1 1 5 8 d g z c 4.c c c c x g g z c ` 5.5.5.` v ",
"8.6.6.5.5.5.5.4.4.v x z p g s < , & m V C K K K K S C C M M C G S G G S M 4 m 2 2 2 2 2 5 8 l c 4.4.4.4.4.c v c ` ` 6.5.6.` ` x ",
"8.6.6.5.5.5.5.5.v v z l i u < 1 . 2 C K K K G K L U [ P J C K I I U U I K J C B B m X X - 5 l c 4.l 4.4.4.4.5.5.6.` ` 5.6.` ` v ",
"8.6.6.5.5.5.5.v v l l i t < @ & X B K U I K G G [ @.i.i.) J K P $.&.&.&.$.#.I J V B b X 1 1 j l l 4.4.4.4.5.4.5.5.5.5.5.` ` v v ",
"6.6.6.6.5.5.6.4.v x p i t > +   2 J U { U L D R ..y.g.y./ ) ,.<.=.&.&.&.&.$.I K V m b . & , a l l 4.l 4.4.4.5.5.5.5.5.5.6.5.` ~ ",
"8.6.5.5.5.5.5.4.4.v l i r > +   m K #.$.U H F _ y.g.e.| Y -.R.Q.1.I I I I I K B B m b . & , < i f p 4.4.4.4.5.4.5.5.5.5.5.5.` x ",
"6.6.5.5.5.v 5.5.4.v x i y @ & X C I $.$./ R Q +.b.L.v.i.Y ;.XXoXJ.M.M.M.3.2.=.#.K M 2 & @ # e t t f p 4.4.4.5.5.4.5.5.5.5.` ` ` ",
"8.6.5.v c c ~ 4.5.5.c z 5 * X m C I #.$./ / X.c.[.&X+XP.X.i.XX<X-X#X#X#X#X@X'.J.<.Y 5 % $ o e e O t x 4.4.5.5.5.5.5.5.5.7.5.4.c ",
"8.6.5.v c x c 5.5.5.5.T 1 X X B J I $.$./ / %.A.&X3X:X[.-.:.XX2X5X6X7X6X6X<XoXP.i.Y a < $ : : r t f x 4.4.4.5.5.5.5.5.7.7.5.4.~ ",
"8.8.5.5.c x 5.5.5.5.5.z 3   n B C I $.$./ / X.Z.#X2X,X(.-.i.XX2X5X5X7X7X2X+XH.s.^ d y > > : e y s z c 4.5.5.5.5.5.5.5.5.5.5.~ ~ ",
"8.5.5.5.c c 5.5.4.5.5.k 3   X B J I #.#.L W ( s.`.+XXXU.o.i.'.:X<X2X5X2X-X~.:.Q T s i i i u i f z ~ 4.5.5.5.5.5.5.5.5.5.5.5.4.~ ",
"8.6.6.5.5.4.5.5.5.5.5.E -   b B J K I / H A H [ d.Z.c.c.O.i.U.[.-X<X1X-X~.c.[ q j z x c x c c c ~ ~ 5.5.5.4.5.5.7.5.5.7.5.5.~ ~ ",
"8.8.6.5.5.6.5.5.5.5.5.z 3   X B J I I I L H H W ( } [ [  .t.v.U.'.oXoX`.Z.;.Y q g ! 4.4.5.5.5.4.5.5.5.5.5.5.5.5.5.5.7.5.7.5.~ ~ ",
"7.7.7.6.5.5.6.5.4.c c k 2   = B J K I I ) ) { ) ) / A Y Q ..@.h.A.A.Z.d.s.| Y 8 k x ~ 5.5.5.4.4.5.5.5.5.5.5.5.5.7.5.5.7.5.5.~ ~ ",
"8.7.5.6.7.5.4.4.c c x a - . X m V J K I U $.*.%./ H q q _ O.@.e.p.:.X.X.;.O.Y 8 k ~ 4.4.5.4.5.5.4.4.~ ~ ~ 4.4.5.5.7.5.7.5.5.~ ~ ",
"7.8.5.6.5.` c z g i s y @ & = = C S J K U ) ) / L F A Y :.d.i.e.i.O.Y ( d.d.Q d k ~ ~ 5.5.5.5.4.~ x z g l z x c 5.5.7.4.6.7.4.4.",
"8.7.5.5.5.` z s i u e e % % & = n C J K L L / L F A A ( A.H.v.a.a.e.Y W c.B.[ h z c ` 5.5.5.5.4.c x s s s f z c 5.5.7.4.6.4.4.4.",
"8.5.6.5.5.5.z f u ; O O o # +   = m V C S A A d 8 q A -.!.'.L.L.S.z.Q ( B.Z.X.T ! c 4.5.5.5.5.5.~ x g i u a z ~ 5.5.6.7.5.5.4.x ",
"8.8.6.5.6.5.c l f u t r ; e < * - n n M Z q d d a d Y :.`.XX(.T.T.v.^ W s.d.| ! ! ~ 5.5.5.4.5.5.4.c l l l z x ~ 5.4.5.5.5.5.~ x ",
"8.8.7.7.5.5.5.v ~ ~ c x x x ! Y 9 & = - 9 Y ! x x k Y ;.~.OX'.[.'.P.o.q W Q ! ~ ` 5.5.5.5.5.5.5.5.4.4.4.~ ~ 5.5.5.5.5.5.5.5.~ x ",
"w.9.6.5.5.5.5.5.6.6.` 5.~ ` ` ! d * - 9 d k ~ ` ~ ! T o.A.W.W.W.W.A.| h a a ~ ~ ~ 5.5.5.5.5.5.4.5.5.5.4.4.5.5.5.5.4.5.4.5.5.] ~ ",
"u.r.8.` ~ ! c ~ c x ~ ! x c c ! k k j j k z x ! x x z E _ [ [ [ | Q x g k k x x ! c x c c x c ~ c ! ~ x x ~ c c ~ ~ c ! ! ~ 0.r.",
"a.r.] ` x x x x x x x x x x x z ! x x x x ! x x x z l j 6 5 6 , , 8 j x x x x x x x x x x x x x x x x x x x x ! x z x x ! ^ r.a."
};
