/* XPM */
static char *result[] = {
/* columns rows colors chars-per-pixel */
"32 32 22 1 ",
"  c #323234",
". c #295E00",
"X c #4F422F",
"o c #444444",
"O c #5F5744",
"+ c #545456",
"@ c #6C5F46",
"# c #6F634C",
"$ c #796B50",
"% c #6D6D6E",
"& c #6C6C73",
"* c #887C62",
"= c #439C00",
"- c #9F8E6D",
"; c #AD9A73",
": c #81818A",
"> c #84848C",
", c #A7A7A9",
"< c #D3D2E0",
"1 c #E8E7EF",
"2 c white",
"3 c None",
/* pixels */
"33333333333333333333333333333333",
"33333333333333333333333333333333",
"33333333333333333333333333333333",
"333333333         33333333333333",
"33333333 +%%%%%%%+ 3333333333333",
"3333333 o%%%%%%%%%o 333333333333",
"3333333 o+%%%%%%%+o 333333333333",
"3333333o,+++++++++,o333333333333",
"333333 ,,<<<<<<<<<,, 33333333333",
"333  o++,<<<<<<<<<,++o  33333333",
"33 o+%%+++++++++++++%%+o 3333333",
"333  o+%%%%%%%%%%%%%+o  33333333",
"33333    ooooooooo    3333333333",
"33333 o $;;;X;;$$$$$OX3333333333",
"33333 o+ ;;XX;;;;;;;-X3333333333",
"33333 o+ ;;2.;;$$@X$#X3333333333",
"33333 o 22;==;;;;;;;-X3333333333",
"33333X<1X22;;;$$$@X$OX3333333333",
"333333X><>22222;;;;-X33333333333",
"3333333XX<1111111  X333333333333",
"333333333XXXXXXX oo 333333333333",
"33333333 ooo+++o++++ 33333333333",
"33333333 o+%%%++;#o%o 3333333333",
"33333333 oo+++1X$;X%+ 3333333333",
"333333333X<2221X22X%+o 333333333",
"3333333333X<211X11X%+o 333333333",
"3333333333XO<<-*XXX++o 333333333",
"3333333333X*X##OX&:++o 333333333",
"3333333333X<X--<XXX+o 3333333333",
"33333333333XX<<<X33  33333333333",
"3333333333333XXX3333333333333333",
"33333333333333333333333333333333"
};
