/* XPM */
static char *result[] = {
/* columns rows colors chars-per-pixel */
"64 64 201 2 ",
"   c #343335",
".  c #393635",
"X  c #3A3736",
"o  c #363638",
"O  c #3B3B3C",
"+  c #5E3917",
"@  c #5E3D1D",
"#  c #623E1B",
"$  c #493729",
"%  c #4C3C2C",
"&  c #533C25",
"*  c #5A3F24",
"=  c #533E2A",
"-  c #433B33",
";  c #4C3E31",
":  c #433F3B",
">  c #613E20",
",  c #386811",
"<  c #65411E",
"1  c #68421E",
"2  c #4B6F1D",
"3  c #4E422E",
"4  c #5F4123",
"5  c #52422E",
"6  c #5A442E",
"7  c #4E4233",
"8  c #46423E",
"9  c #4D443B",
"0  c #534533",
"q  c #584631",
"w  c #564936",
"e  c #5B4933",
"r  c #51463B",
"t  c #574B3C",
"y  c #5A4C3B",
"u  c #5E503C",
"i  c #654423",
"p  c #694524",
"a  c #6A4826",
"s  c #634629",
"d  c #6A4729",
"f  c #654A2D",
"g  c #6B4B2C",
"h  c #704F2E",
"j  c #6F512F",
"k  c #72512E",
"l  c #644D34",
"z  c #6B4E31",
"x  c #665036",
"c  c #6D5234",
"v  c #63533C",
"b  c #6B543C",
"n  c #69593E",
"m  c #725535",
"M  c #765936",
"N  c #7A5937",
"B  c #735639",
"V  c #755A3C",
"C  c #7B5D3D",
"Z  c #7F613E",
"A  c #3F3F41",
"S  c #444444",
"D  c #494642",
"F  c #4D4A45",
"G  c #474749",
"H  c #48474B",
"J  c #4A4A4B",
"K  c #524C42",
"L  c #524E4A",
"P  c #5D5343",
"I  c #585449",
"U  c #5B564D",
"Y  c #4F4F51",
"T  c #535355",
"R  c #585754",
"E  c #5C5952",
"W  c #575759",
"Q  c #585758",
"!  c #5A5A5D",
"~  c #625644",
"^  c #645A46",
"/  c #695A47",
"(  c #64594A",
")  c #765D41",
"_  c #7B5E40",
"`  c #715C48",
"'  c #635E5A",
"]  c #6D624B",
"[  c #7E6243",
"{  c #73654C",
"}  c #77684B",
"|  c #6C6254",
" . c #65615C",
".. c #6F6459",
"X. c #746852",
"o. c #7C6D53",
"O. c #71665B",
"+. c #756B5E",
"@. c #7F7053",
"#. c #7A715F",
"$. c #5E5E60",
"%. c #626264",
"&. c #666668",
"*. c #68676A",
"=. c #6C6C6E",
"-. c #7B746C",
";. c #6F6F74",
":. c #767576",
">. c #805F3E",
",. c #81623F",
"<. c #836543",
"1. c #856846",
"2. c #866748",
"3. c #866A4B",
"4. c #886B4D",
"5. c #896F51",
"6. c #847557",
"7. c #8C7155",
"8. c #83755A",
"9. c #8D745B",
"0. c #87785C",
"q. c #8B7B5C",
"w. c #93795C",
"e. c #8A7C63",
"r. c #837B6F",
"t. c #947C62",
"y. c #837D77",
"u. c #509B0D",
"i. c #509810",
"p. c #53A218",
"a. c #649C23",
"s. c #61A626",
"d. c #999C5D",
"f. c #8E8268",
"g. c #948264",
"h. c #968767",
"j. c #9C8C6B",
"k. c #9F9964",
"l. c #8A827C",
"z. c #A18F6A",
"x. c #A5926D",
"c. c #A39969",
"v. c #A79573",
"b. c #AD9A72",
"n. c #AF9E7D",
"m. c #9DA366",
"M. c #B1A07E",
"N. c #7E7D84",
"B. c #8B8886",
"V. c #83838A",
"C. c #938B85",
"Z. c #958E8A",
"A. c #9A948C",
"S. c #8E8E93",
"D. c #9B9491",
"F. c #97969C",
"G. c #9B9B9D",
"H. c #A49D9C",
"J. c #B6A482",
"K. c #BBAC8C",
"L. c #ACA39C",
"P. c #9F9EA1",
"I. c #A2A2A4",
"U. c #A5A5A9",
"Y. c #AAA7A9",
"T. c #B8AFA0",
"R. c #BCB3A8",
"E. c #ADACB3",
"W. c #B1AFB6",
"Q. c #B3B1B6",
"!. c #B3B1BC",
"~. c #BEBEBF",
"^. c #C6BCB4",
"/. c #B9C9AA",
"(. c #CCC5BC",
"). c #B8B6C3",
"_. c #C1BEC7",
"`. c #C3C3C5",
"'. c #C3C1CA",
"]. c #DED9C9",
"[. c #CAC8D5",
"{. c #CBCAD6",
"}. c #D0CFD9",
"|. c #D5D2D5",
" X c #DAD5D5",
".X c #D2D1DC",
"XX c #DCDBDD",
"oX c #E2DCCD",
"OX c #E4E5D9",
"+X c #D3D2E0",
"@X c #DDDBE2",
"#X c #DEDDE8",
"$X c #E5E4E6",
"%X c #EDEAE3",
"&X c #E8E6EC",
"*X c #E8E7EE",
"=X c #F4F2EC",
"-X c #EDECF3",
";X c #F4F3F6",
":X c #F4F3F8",
">X c #FCFCFD",
/* pixels */
"g.g.9.7.4.4.4.4.4.4.4.4.4.4.3.3.4.4.4.3.3.4.3.3.4.3.4.4.3.4.4.3.3.5.5.3.3.3.3.3.3.3.3.5.5.3.3.5.3.3.4.4.4.4.4.4.4.4.5.5.7.g.g.g.",
"g.t.9.5.4.4.4.3.3.3.4.3.4.4.3.3.4.3.3.3.3.3.3.3.3.3.3.3.3.2.3.3.3.3.3.3.3.3.3.3.3.3.3.3.3.3.3.3.o.3.3.4.4.4.4.4.5.,.,.g.4.7.w.w.",
"9.7.2.2.2.2.2.<.1.1.<.1.1.<.} 1.<.2.<.1.2.2.<.2.<.2._ 3.2.2.<.<.[ <.<.1.2.<.<.<.<.<.2.2.3.2.1.1.<.1.1.1.,.4.4.,.,.,.,.,.,.4.,.,.",
"7.5.2.<.<.<.<.<.<.<.<.<.<.<.1.1.2.<.1.1.2.<.<.<.<._ 2.2.<.<.<.<.2.<.<.<.<.<.<.<.<.<.<.<.[ 2.<.<.<.1.<.<.4.,.,.,.,.4.5.,.,.,.4.,.",
"4.3.,.1.1.,.2.<.) B C _ <.1.<.<.1.1.[ <.[ Z } Z _ <._ ,.,.2.>.<.<.,.,.>.<.<.<.<.<.<.<.<.1.1.,.1.2.2.<.2.1.,.,.4.1.1.,.,.,.,.,.,.",
"3.2.1.1.1.1.<.,.B B C C <.<.<.<.[ Z u K t t y t K K t t r K K r K y K P ) <.[ <.[ <.<.<.,.,.1.1.<.<.<.1.,.1.4.,.1.1.1.1.g.,.,.,.",
"2.2.1.1.<.1.1.,.B B _ _ <.<.<.<.[ n                                   o ) C c B M V ,.,.1.,.1.,.<.<.<.<.1.2.,.4.,.1.1.1.1.1.,.,.",
"3.2.1.,.,.1.,.<.C B C _ ,.<.>.N w 9 S G Y Y Y Y Y Y Y Y Y Y Y Y Y J G A r r l z c m ,.1.,.<.,.,.,.<.<.<.1.,.1.,.,.1.1.,.1.1.Z ,.",
"4.1.,.1.<.<.<.<.>.,.>._ B B z ;   O Y ! =.=.=.;.=.=.=.=.=.;.=.;.;.*.W Y o o 6 s f g [ <.<.[ ,.,.<.<.<.,.) V V V ,.C <.<.<.<.C _ ",
"1.1.1.1.1.2.<.<.,.<.C _ m l ; ; O S $.%.=.=.=.=.;.=.;.;.=.=.;.=.=.=.%.! : o ; % l z C <.<.,.,.<.,.,.Z C M B c m M N >.,.<.<.[ _ ",
"4.2.1.,.,.1.2.<.) ) z z > &   A S Y =.=.=.=.=.;.=.=.=.=.=.=.;.=.=.=.;.*.J S .   b C Z Z ,.<.,.<.<.Z b c g p i i a g g k ,.<._ C ",
"4.2.1.<.<.1.2.>.B B z z d $   o S J $.%.=.;.;.=.=.;.;.=.=.=.=.=.;.=.%.! S S o . b C Z Z ,.,.<.,.<.Z c z d i i < p p g h ,.<._ _ ",
"2.4.,.,.<.<.<.>.m z a p > &   O A G T ! =.=.=.=.;.=.=.=.;.;.=.;.=.*.W Y G S o   b C Z N Z Z Z Z Z Z m j i > # # # 4 s f <.<.Z C ",
"4.2.,.1.<.<.>._ h h p 1 # * O Y :.=.W W $.%.%.%.%.$.%. .$.$.$.$.%.' W ! ;.;.J : c C Z Z Z Z Z Z Z Z M m p i i > i < f x <.<.[ _ ",
"1.4.1.1.<.<.,.>.h g d d > * S *.P.S.! T T T T T T T W T T T T T T T T $.F.F.! 8 b N N Z Z Z Z Z Z ,.,.Z C _ V V V Z [ [ <.<._ _ ",
"1.,.4.1.2.2.,.>.h g d > * P *.N.I.P.V.V.V.V.V.V.V.V.V.V.V.V.V.V.V.V.V.V.I.I.:.&.~ e c V V N Z Z Z Z ,.<.[ [ V n [ [ 1.[ 1.<._ _ ",
"4.4.,.4.,.2.,.,.N M d %   =.P.I.U.W.[.{.{.{.{.{.[.{.{.{.{.{.{.{.{.{.{.[.E.U.I.G.Y . 6 g g g m m N C Z Z >.<.C <.[ <.<.1.<.<.[ V ",
"4.,.2.,.,.,.) C b b l 7 O %.S.F.I.Q..X+X+X+X+X+X+X+X+X+X+X+X+X+X+X+X+X}.E.I.F.B.Y O 5 e 6 6 6 e B C Z Z >.<.<.<.,.<.<.<.<.<.[ [ ",
"1.1.,.2.>.P .   o O D J T T W :.I.Q.}.+X+X}.+X+X+X+X+X+X+X}.+X+X+X+X+X{.Y.P.=.! T T S 8 .       6 m Z Z >.<.<.<.<.<.<.<.<.<.C ) ",
"1.1.1.,.b r o o O S Y T ! W T =.S.G.W.!.).!.!.).!.!.!.!.).!.).E.!.!.Q.E.F.S.%.T ! R T J A O o o 7 l m Z <.>._ _ ,.<.<.<.<.<._ _ ",
"3.2._ r   O S H T $.=.=.=.$.T T W W W $.$.$.W $.! ! ! $.! ! ! ! $.$.$.$.! ! T T %.=.=.*.W Y G A o o e C B V B ) V V [ <.<.<.) C ",
"3.2._ y - O A G J ! %.%.&.%.! ! $.$.W $.T $.$.T ! ! ! ! ! ! ! Q W W $.T ! ! ! ! %.*.%.%.T J S A O 7 l _ B B c c B M Z <.<.<.V [ ",
"3.2.<._ c 7     o O G Y W $.*.=.&.*.=.=.*.=.&.*.=.=.*.=.=.=.=.=.=.=.&.*.*.*.=.*.! T J S o     o y V N M g d i i i p V C [ <.Z Z ",
"3.<.<.<.V y - X - O A S Y T $.$.$.$.%.%.%.%.%.%.%.%.%.%.%.%.%.%.$.%.%.%.$.$.$.$.Y J S A - - - - z N C M z d i i i s V Z <.[ Z V ",
"3.<.2.<.C [ C V _ r         o   A o S S G G G G G S G S S G G S G G S S o   o o       . q f l c m m B M V V b B V [ <.<.<.<.C C ",
"1.2.2.<.<.<.<.<.[ y     o     o A A R R U U U I 8 F E E E U L L L J L F 8 : : : O O X . q j g c z m B M N Z V Z [ [ <.<.<.<._ _ ",
"3.<.<.<.<.<.<.<.,.y   o A O   9 ] @.j.x.x.x.j.g.0 v j.k.x.j.o.{ X.X.{ { { { { ] P P 7 3 4 a a a d g g g c c M V Z [ <.<.<.<.[ _ ",
"2.1.<.<.<.<._ C >.r   O S A   D ] @.v.b.b.v.x.q.w ~ x.b.b.x.6.5.@.@.@.@.@.@.@.@.] ^ w 5 s < p i p d a d f g m M C [ <.<.<.<._ C ",
"2.<.2.<._ C B B m 0   O A H Y G O I x.b.b.h.u w 3 ~ x.b.b.b.x.x.x.x.x.x.c.v.x.x.h.g.u 5 # # + # # # 1 1 1 p g j N N ,.<.<.<._ _ ",
"2.2.<.,.C V m z z ;   O S J T G   F x.b.b.j./ P 3 n z.b.b.b.x.x.x.x.x.x.j.k.x.x.j.h.v 3 # # # # # # # 1 p < p a M V <.<.<.<._ C ",
"2.<.<._ z z p p > %   O S Y T G   K x.b.b.K.OX/., 2 k.b.b.x.6.o.6.o.} { y v } o.} ] w 5 # # # # # # # 1 < p i p V V [ <.<.<._ _ ",
"2.2.<.C z z p i # %   O S H Y Y J  .n.J.b.K.OX/., 2 k.b.b.x.6.6.3.o.} ] u u } o.o.] e 5 + # # # # # # # < < p a c V <.<.<.<._ V ",
"2.<.<.<.B z g s > $   A S A o :.XX$X=XoXM.d.s.p.u.p.c.b.b.b.x.x.x.x.x.x.z.z.c.x.j.g.v 5 4 + + + + + + + 4 f c b Z <.<.<.<.,.Z V ",
"2.<.<.<.C M z d i %   S W J H V.XX=X>XOXK.m.p.u.i.a.c.b.x.x.x.x.x.x.z.x.z.z.x.x.h.h.u 3 4 < < 4 < 4 4 4 f f V V [ <.<.<.<.<.C [ ",
"2.2.<.<.<.<.>.>._ l 3 y.'.[.}.I.] l.;X>X=X].c.c.d.z.b.x.6.6.6.o.@.@.} { u u [ @.] ^ w 5 f f c c c b V N Z N Z Z ,.<.[ <.<.<.C Z ",
"2.2.<.<.<.<.<.<.<.b 0 l.'.{.@XY./ r.%X=X>X%XK.M.M.M.J.M.g.q.#.5.@.@.{ ] e u { o.^ u w 5 l c c B V V Z [ Z Z Z ,.<.<.,.<.<.<._ V ",
"2.<.2.<.<.<.<.,.<.Z C ~ P -.S.P.).!.G.W.>X>X=X=X=X=X=X=X=XOXn.z.x.x.x.x.x.x.j.g.v 0 l c k m m k M V Z Z Z Z Z ,.,.<.<.<.<.<.[ C ",
"2.2.2.<.<.<.,.<.Z C C c 0 | N.P.'.).S.Y.:X>X>X>X>X>X>X>X>X=XK.n.n.n.x.x.j.j.h.g.v 5 g k m m M N N N N V M Z Z Z <.<.<.<.<.<.C _ ",
"2.2.<.<.<.,.<.,.<.,.,.C m x P ( ..y.).{.-X-X-X-X-X-X;X-X-X&X X|.|.(.' F F F u v f f k k m M N N Z M Z Z Z Z N _ ,.,.<.<.<.<._ ) ",
"1.2.<.<.<.<.<.<.>.<.Z C Z l 5 5 0 .._.}.@X@X@X@X@X@X@XXX@X@XXX@X@X'.G       - 3 f j k k m M N N M Z Z M Z N C M C ,.[ <.<.<._ C ",
"1.1.<.<.<.[ <.<.Z Z Z Z C M c c l b ..O.+.+.+.+.+.+.+.+.+.+.+.+.%.! S A A A X . l m m m m V N N C N >.>._ B f f B C <.<.<.<._ _ ",
"1.1.<.<.<.<.<.[ <.,.C Z Z N m c g l 7 7 7 3 7 7 0 0 7 7 7 0 7 % o o S S S S o X e c m m M M N >.N C _ _ C C g f B B ,.<.<.<._ _ ",
"3.1.2.<.<.Z <.<.<.C V m c c f 6 - - 8 : 8 8 8 D J Y Y Y L F D D J J Y J Y Y J J : 3 j M V V N C C >.>.>.>.>.>.>.<.<.,.<.<.<._ V ",
"1.3.[ 2.<.<.<.<.[ Z m c f f s 5     S S S S D J R R R T R T G S W W R R T T T T O . e m B C N N N >.>.>.>.>.<.<.<.<.2.<.<.<.C _ ",
"1.1.1.1.<.<.<.,.C C z h p p < &   o S S Y T %.%.&.&.&.%.W T Y R e.f.| ( J J $.&.S A X 3 e c m B C >.C >.,.,.<.<.,.<.<.1.2.<.) _ ",
"3.1.<.1.1.<.<.<._ M g g p p < &   o S G Y ! *.=.=.*.=.*.$.! R E j.x.X.] F G %.*.J S     e c c m B C >.>.,.,.<.,.<.<.<.1.<.<._ _ ",
"3.1.1.1.<.<.<.<.,.Z j j 1 1 1 &     S S G J ! ! ! ! ! &.!.Q.U t @.0.h.g.w 7  .=.! Y O   4 p d g h m C C <.,.,.<.<.<.<.,.<.<._ _ ",
"3.1.<.<.,.<.[ <.<.[ m c a p p &   . S G J T ! $.$.$.$.;.XX|.~ 0 o.e.b.v.u 0  .=.! Y O   4 4 a a d h C >.,.,.<.<.,.<.1.,.<.2._ _ ",
"2.1.<.,.V V >.>.<.<.Z Z C _ B l 0 0 7 E F.U.~.).^.~.`.`.$X.X~ ~ ^.(.].(.~ 7  .=.! T A O $ $ * i i p V _ <.<.<.<.[ <.<.2.<.<.<.C ",
"3.2.<.Z V B <.>.<.<.[ Z [ [ V V c z 7 ..[.#X>X>X>X>X>X>X&X}.~ ( $X>X>X$X( 0  .=.! T H S o   * i i p N _ >.<.<.<.<.<.<.<.<.<.>._ ",
"3.1.<.<.B V <.<.<.<.<.<.[ Z [ ,.C V v ` l.H.$X-X>X>X:X;X*X|.~ ^ XX;X:XXX( 7  .=.! T G S o   = s b B <.<.<.<.<.<.<.<.<.<.<.<._ _ ",
"4.3.<.,._ C >.<.<.<.,.<.<.<.,.<.<.>.<.B 0 O.[.#X>X:X-X*X-X|.~ ~ |.&X*X|.( 0  .=.! T G S o   6 g B V [ <.<.<.<.<.<.<.2.<.2.2._ _ ",
"3.3.1.,.<.<.<.1.<.<.<.,.<.[ <.,.<.Z >.B 0 ~ Z.Y.&X*X$X@X^.T.X.| Z.D.D.C.t 0 ! $.R T G S o o b _ _ <.<.<.<.<.<.2.2.<.<.<.<.<.[ C ",
"3.3.1.<.1.1.<.1.<.<.,.<.Z <.Z <.,.Z <.B 5 0 P r.[.+X.X[.v.h.f.8.w 3 5 3 7 7 L T T T G S X   b <.<.<.<.<.<.<.<.<.<.2.1.1.1.<._ _ ",
"3.3.2.1.1.1.<.<.[ [ _ _ _ _ C Z ,.<.<.V 0 w { #.B.Z.D.A.e.8.o.] 0 0 I E ' ' ! T T T G S o   V <.<.<.<.<.<.<.<.<.<.2.<.1.1.<._ _ ",
"2.<.2.1.<.<.,.<.C C V C B V N V C C <.M 0 y 8.o.0 w ] ] ] | ~ P 0 0 =.;.N.N.$.T T T G S o o n ,.<.Z [ ,._ <.<.<.<.<.1.<.2.<._ _ ",
"3.2.1.<.<.<.B c z g d d g d g g z c N m 0 ( H.C.w y 6.0.0.e.A.B.t 7 I E  .' R T Y H A O r y V [ _ B c z z z B C <.<.1.1.<.,.,.,.",
"3.1.1.2.2.[ B z g g p s p p d d g g B c 0 O.[.W.t ~ h.j.j.v.[.'.~ 3 3 7 5 0 Y T H A o . b 2.<.<.V V z z z z C C <.<.1.,.,.1.>.>.",
"1.1.1.<.<.[ M m i i @ + + + # @ 4 s B / v { B.r.0 / L.R.R.R.{.'.P 0 x x x v F S A O r K _ <.<.<._ C z z z z V _ <.1.<.1.<.<._ _ ",
"3.3.1.<.<.<.M m s p i < > # > i s d B ) ,.V w 0 7 O.'..X.X+X.X'.~ 0 ) [ <.V :       ) ,.<.<.<.<.>.C c z z z V _ <.<.<.1.<.<.) _ ",
"4.4.2.<.2.<.<.,.<.[ _ [ _ ) [ [ [ <.<.<.<._ l v x { D.H.H.H.H.D./ x Z <.<.[ y 9 9 r ) <.1.<.<.2.2.<.<.,.<.<.<.<.<.2.<.<.1.<.V ) ",
"5.4.2.<.<.2.<.<.2.3.<.<.[ [ } [ <.<.<.<.[ <.[ [ [ V y t u w t e N [ Z Z <.,.Z [ ) [ <.<.,.<.<.<.<.<.<.<.<.<.<.<.<.<.<.<.<.<.[ [ ",
"t.t.[ [ ) V V ) ) ) ) V C V _ V ) ) V V ) V V V V b e q e q q e V V V Z V V V V V V Z V N V V V V V V V V ) V _ _ B ) B ) ) 8.e.",
"t.e.[ [ _ V B V V B V V B V ) V V ) V V V V M V V V m b n M V n V V V V V V V V V V V V V V V ) V V B V V V V B ) V B B ) ) 9.t."
};
