/* XPM */
static char *result[] = {
/* columns rows colors chars-per-pixel */
"64 64 171 2 ",
"   c #363535",
".  c #383634",
"X  c #3C3935",
"o  c #363638",
"O  c #3D3C3D",
"+  c #5D3C1E",
"@  c #643E1B",
"#  c #48382B",
"$  c #4A392B",
"%  c #573E24",
"&  c #5B3D22",
"*  c #543E2B",
"=  c #403730",
"-  c #443D35",
";  c #4A3E33",
":  c #423E3C",
">  c #483F39",
",  c #623E20",
"<  c #65401E",
"1  c #68431F",
"2  c #5B4125",
"3  c #53422D",
"4  c #5C432B",
"5  c #5F482F",
"6  c #4B4136",
"7  c #45413C",
"8  c #4C443C",
"9  c #4D483E",
"0  c #544533",
"q  c #594632",
"w  c #5C4A35",
"e  c #52463A",
"r  c #55493B",
"t  c #5B4C3A",
"y  c #5C503C",
"u  c #654323",
"i  c #694624",
"p  c #6B4826",
"a  c #65472A",
"s  c #66492C",
"d  c #6B4B2C",
"f  c #714F2F",
"g  c #71502F",
"h  c #644D34",
"j  c #6C4E31",
"k  c #614E3B",
"l  c #675035",
"z  c #6D5234",
"x  c #65523D",
"c  c #6B543C",
"v  c #6F583F",
"b  c #725435",
"n  c #765836",
"m  c #795937",
"M  c #735639",
"N  c #755A3C",
"B  c #7A5D3D",
"V  c #7E603F",
"C  c #3F3F40",
"Z  c #403F41",
"A  c #434344",
"S  c #4B4542",
"D  c #4D4946",
"F  c #47474A",
"G  c #48474A",
"H  c #4B4B4C",
"J  c #524C45",
"K  c #584D42",
"L  c #544F4A",
"P  c #5D5242",
"I  c #55504B",
"U  c #5B554C",
"Y  c #5D584D",
"T  c #4E4E50",
"R  c #514F50",
"E  c #535354",
"W  c #585654",
"Q  c #5D5A53",
"!  c #565659",
"~  c #585759",
"^  c #5B5B5C",
"/  c #645643",
"(  c #695742",
")  c #665A44",
"_  c #6A5C46",
"`  c #65574A",
"'  c #635B4B",
"]  c #695A4B",
"[  c #755C40",
"{  c #7B5E40",
"}  c #635B56",
"|  c #665E5A",
" . c #6C614B",
".. c #7D6142",
"X. c #73644C",
"o. c #7B6349",
"O. c #75684F",
"+. c #676050",
"@. c #6C6453",
"#. c #6F675D",
"$. c #736751",
"%. c #796652",
"&. c #746954",
"*. c #7A6D54",
"=. c #756B5A",
"-. c #7E7157",
";. c #7C715B",
":. c #5E5E60",
">. c #636364",
",. c #666669",
"<. c #68676A",
"1. c #6A6A6D",
"2. c #716D6B",
"3. c #7F7560",
"4. c #6D6C71",
"5. c #716F72",
"6. c #717074",
"7. c #767579",
"8. c #80613F",
"9. c #836543",
"0. c #856847",
"q. c #856748",
"w. c #86694B",
"e. c #886D4E",
"r. c #856C53",
"t. c #896E50",
"y. c #817357",
"u. c #8B7154",
"i. c #8C745A",
"p. c #87795B",
"a. c #8A7B5D",
"s. c #91795E",
"d. c #817761",
"f. c #8C7E61",
"g. c #947C63",
"h. c #8A7D71",
"j. c #8E8063",
"k. c #938363",
"l. c #988766",
"z. c #9A8966",
"x. c #958768",
"c. c #9C8C6A",
"v. c #A08F6A",
"b. c #A4926D",
"n. c #A9966F",
"m. c #AA9770",
"M. c #AC9971",
"N. c #7D7C81",
"B. c #848486",
"V. c #86858C",
"C. c #8B8B8D",
"Z. c #948B84",
"A. c #8B8A92",
"S. c #969491",
"D. c #979799",
"F. c #99999B",
"G. c #9D9CA3",
"H. c #A09FA4",
"J. c #AEAEAE",
"K. c #B2ABA7",
"L. c #ACABB0",
"P. c #B0AFB4",
"I. c #B5B2B0",
"U. c #B4B3BD",
"Y. c #C0BDBC",
"T. c #BBBAC6",
"R. c #C2C1CB",
"E. c #D0CCCE",
"W. c #CBCAD7",
"Q. c #D8D8D9",
"!. c #E6E6EA",
/* pixels */
"k.g.i.t.t.w.e.w.w.e.e.e.w.t.w.e.e.e.w.e.w.e.r.w.w.r.r.q.w.r.w.w.r.w.e.w.w.r.w.w.r.w.w.w.r.w.e.e.w.w.r.e.e.e.0.e.0.e.e.e.t.u.s.v.",
"g.g.i.t.e.w.w.w.w.w.w.w.w.w.w.w.w.w.q.w.e.q.w.w.w.q.q.q.w.q.q.w.w.q.w.q.w.w.w.w.w.w.w.w.w.w.w.w.q.w.w.w.e.e.e.0.0.e.e.e.e.t.s.u.",
"i.i.e.q.0.0.0.0.q.q.w.q.9.q.q.q.0.0.q.w.q.q.q.9.9.9.q.q.9.q.q.q.9.q.9.q.q.9.9.q.q.q.q.q.q.w.w.0.0.0.0.0.0.0.0.0.0.0.0.0.9.e.e.e.",
"t.e.0.9.0.9.9.9.9.8.8.9.9.9.9.9.0.9.9.9.9.9.9.9.{ [ [ [ [ [ [ { [ [ [ [ [ [ [ [ [ { { 9.9.9.9.9.9.9.9.0.8.0.8.0.9.9.9.9.9.9.0.9.",
"e.e.0.9.9.9.9.9.{ [ { 8.9.9.0.0.9.9.9.q.9.9.9.{ K w k k * K e r r r r r e r r r r t { 9.9.9.9.9.9.9.9.9.0.9.0.0.9.q.0.q.9.9.9.8.",
"w.0.0.9.9.9.9.8.N M N 8.9.9.9.9.9.9.9.9.9...[ x r Z Z Z K Z K Z e S S S S S S 8 S e ( [ 9.9.9.9.9.0.9.9.8.0.8.0.9.0.0.9.0.9.8.8.",
"w.0.0.9.9.9.9.9.N M B { 9.8.9.8.8.8.8.8.{ N k e D G E W W W W W W W W W W W W E H S e k N 9.9.9.9.9.9.9.0.0.8.0.9.0.q.9.q.9.8.{ ",
"0.0.0.9.0.9.0.8.{ m B B 8.8.8.8.B B B N c k 8 7 R ! :.>.>.>.:.>.>.>.>.>.>.:.>.:.! T 7 e x B B 9.9.8.9.9.8.9.0.8.9.9.9.9.9.9.{ { ",
"w.0.0.9.0.9.9.9.8.8.8.{ M M z z z z d h q ; : G ! >.,.1.1.1.,.1.<.<.<.<.1.<.1.,.>.! D 7 e k [ 9.9.9.9.{ B [ B N 8.m 8.9.9.9.8.{ ",
"0.0.9.9.9.q.9.9.8.8.{ N b f j a a i a 4 # X : G ^ ,.1.1.1.4.4.4.4.4.1.4.4.4.1.1.,.^ H O = e [ 9.8.8.B B M b j b b m m 8.9.9.{ { ",
"e.0.0.9.9.0.9.9.{ [ b f f p , , @ < + % = o Z H ! >.1.1.4.1.4.4.1.1.4.1.1.5.1.1.>.! H O o > M 9.9.B M z d p i i p d f m 8.9.{ { ",
"e.0.0.0.9.9.8.8.[ z j a , @ @ @ @ @ @ + = C H ~ ! ^ ,.,.,.1.,.,.1.1.1.1.<.<.1.>.^ ! ! T C 7 M 8.8.V b j p i u , , i p b 8.8.8.{ ",
"0.0.0.0.9.9.9.8.b f p p , @ @ @ @ + < + - H 1.6.:.^ :.:.:.:.:.:.^ >.^ >.^ :.:.^ ! :.5.1.H 9 ( 8.8.B M d i , @ @ @ u a j { 9.8.{ ",
"0.0.0.0.0.9.8.B b f p 1 @ p @ @ @ @ + 2 J >.B.C.7.1.6.6.6.6.6.6.6.6.6.4.6.6.6.6.4.7.C.B.>.U _ N V V m g d i u p u s d M { 9.{ { ",
"0.0.9.9.9.9.9.m f p p i i @ @ @ @ + 3 r 1.B.D.H.G.F.G.G.G.G.G.G.G.G.G.G.G.G.G.G.G.G.H.D.B.2.P t N ..8.V N M M b M N { { 9.9.{ { ",
"0.0.0.0.9.9.9.B b f p i , , , @ % 2 # L 6.C.H.J.U.T.T.T.T.T.T.T.T.T.T.T.T.T.T.T.T.U.J.G.C.7.I e x [ N N [ [ [ { ....{ q.q.9.8.{ ",
"0.0.0.9.9.9.9.8.m b p u * $ # $ ; ; Z R <.N.F.P.R.W.W.W.W.W.W.W.W.W.W.W.W.W.W.W.W.R.P.F.N.<.E D K t r e r k [ 8.8.8.9.9.q.9.8.{ ",
"0.0.0.9.9.9.9.8.8.M d * ; = - : S L R ! :.5.C.H.U.T.T.T.T.T.T.T.T.T.T.T.T.T.T.T.T.U.H.C.5.:.E E I J S : > r ( [ 8.9.9.9.9.9.8.[ ",
"0.0.0.9.9.8.9.8.8.[ w > : : A H W ^ :.:.^ >.5.N.V.A.A.C.A.A.A.A.A.A.A.A.A.A.A.A.A.V.N.6.:.^ :.:.| ~ L F Z > > k { q.9.q.q.8.{ { ",
"0.0.0.0.8.8.8.8.{ N t > : Z G E | >.,.,.:.^ ,.<.4.6.6.6.6.6.6.6.6.6.6.6.6.6.6.6.6.4.1.>.^ :.>.,.:.:.R G Z Z > r ( 8.8.9.q.8.{ { ",
"q.q.9.8.8.f b b M N x t : C H ! ^ :.<.<.>.>.,.<.1.1.1.1.1.1.1.1.4.4.<.4.1.1.1.1.1.1.,.,.>.,.<.,.:.:.E H Z : K k M B 8.9.9.9.{ { ",
"q.q.9.[ f f f j M N M k 8 7 H H E ~ :.,.>.>.<.<.1.1.1.>.1.,.1.1.,.<.<.,.<.<.<.<.,.1.,.,.>.>.,.>.~ T R H : - * k j M B 9.9.8.{ { ",
"q.q.9.8.M b j c n { B N x r A A A F R ~ :.:.<.1.1.1.1.1.1.1.1.1.1.1.1.1.1.1.1.1.1.1.1.<.>.^ ! E F A A : ; * , , a d m B { 9.{ B ",
"q.q.9.8.8.M M M B V V B M x 8 7 : O A G R ! :.>.>.>.1.>.>.>.,.>.,.,.>.,.<.>.,.>.,.>.>.:.E T H A C O : > q s s s p d M { 9.9.{ B ",
"q.q.q.9.8.8.{ { 8.8.{ { m v x e ; : O O A A H T E ! E ! E E ! E E E W W W E E ! ^ E T H A A O O : > r k c M M M M B B 9.9.9.B B ",
"q.q.9.9.9.9.8.8.8.8.8.8.V m z l 0 ; 8 D D D L I Q Q Q Q U U Q Q U E H H T Y Q Q Q Q U L H D 9 9 ; * w l M N n [ { ..9.9.9.9.{ B ",
"q.q.q.9.9.9.9.8.9.8.B 8.B B n z 0 t ' &.&.;.*.-.3.3.;.;.$.@.-.*.@.U D D Y @.;.d.;.;.-.*.;.@.&.+.r 3 s d j M n m { 9.9.9.9.9.{ { ",
"q.q.9.9.8.8.{ 8.m B B m B n M z q t $.d.p.j.j.j.x.c.x.x.y.-.k.k.;.+.Y U Y &.j.x.z.x.j.j.j.j.;.&.t 3 4 a a d b n B ..9.9.9.9.{ { ",
"q.0.9.9.8.{ [ M M M M M M b h w 3 t X.-.p.p.p.k.v.b.n.v.z.k.v.z.-.*.;.#.' @.k.b.n.v.j.p.p.p.-.X.t 3 3 2 u p p g m B 9.9.9.8.B { ",
"0.q.8.8.M b f f j d d j f d w 4 3 t X.y.p.p.p.k.c.b.v.v.b.b.M.v.j.d.x.j.@.&.j.c.v.z.k.p.j.p.y.X.y 3 3 2 u p p d b m 8.9.9.9.{ B ",
"q.q.8.8.b f a d i i i p p p h h 0 t *.j.j.k.k.z.k.j.j.k.v.n.M.v.z.z.v.c.j.;.=.;.p.k.k.k.j.j.j.*.t 3 2 2 < < u p b n B 9.9.9.{ { ",
"0.q.8.8.b a a , , @ @ u i a a q 0 y *.j.j.k.z.z.j.j.j.j.n.M.M.M.b.b.m.n.c.j.=.+.O.*.j.j.j.j.a.*.t 3 2 , u u p d M B 8.9.9.9.{ { ",
"0.0.0.V M g d u u < 2 2 u 5 5 3 3 y  .*.-.a.z.c.z.k.l.v.m.M.M.M.M.M.M.m.b.v.j.;.+.Y +.&.;.-.*. .y 3 3 2 2 s z z V V 8.0.0.0.V V ",
"0.0.9.V V n z g d p p s d l h 5 0 w y  .&.p.j.z.z.z.k.z.c.v.m.m.n.n.n.n.b.v.x.;.' P Y '  . .) y 0 0 3 5 s l n V V ..8.0.8.8.V V ",
"q.9.9.9.V V 8.V m V N n V z z l l h y ) O.-.;.p.p.p.p.p.a.j.v.b.b.n.b.v.j.j.;.;. .Y ' Y 9 9 9 9 w y l l n n V V ..V 0.8.....V N ",
"w.q.9.9.9.9.8.9...V V V V V n b z l 0 r  .*. .O.-.-.-.-.-.a.z.v.v.v.v.z.j.-.-.*.@. .) y 9 X . 7 h n v B V V V V ..0.V 0.....V V ",
"w.9.9.9.8.9.8.9.8.9.V V V m m n b l 3 6 y  .y  .O.-.-.p.j.j.z.c.v.v.v.c.j.j.-.-.;.@.) r 6 - . - l n n V V V V V 8.9.8.0...0.V V ",
"9.w.0.9.0.9.9.8.8.V V V V m m m n l - X 6 r 0 y  .-.&.-.-.a.j.j.j.j.j.j.y.-.-.*.*.@.y 6 6 X   - y n V n V V V V 8.8.9.8.0...V V ",
"w.9.9.9.9.8.9.9.8.V V V B B B m n l - . X - 7 9 P ) ) _  .X.X.O.X.X. . . . .v  .v P 9 6 X .   X l V V V n V n V 9.8.0.9.....V V ",
"9.0.0.9.9.9.8.8.8.V V V B V m m b w - . X X 7 S r P y P P P y y P P P P y P y y y 9 9 - .     - y n n V V V n n V V V 9.0.....v ",
"w.9.9.9.9.9.9.9.V 8.B 8.B B m c r 6 A A C O A A J J L L J U L L I I I I I I J L I J A C o   o C > w M 8.B M j d M m 8.9.9.9.V V ",
"w.w.0.9.9.9.9.8.9.8.B B m m l h 9 S H H A A A H H L I E I Q W U W W W U W U U I L H D C o o O O = e M m B n z z v V ..9.9.9...V ",
"w.w.9.9.9.8.9.8.9.B N b M h 0 8 I E E T A A H H E E E ! :.>.>.:.>.:.#.:.>.^ ! E E T F C o o O C O ; c B 8.B V V V ....9.o...V N ",
"w.9.9.9.9.9.9.9...B M j s 0 ; S Q :.~ T H H T E E ! ! ^ >.1.,.1.<.<.<.,.1.>.! E E I F C o o A C o - c 8.8.9.9.9...0.9.9.9.....V ",
"w.0.0.9.9.9.9.8.{ m b h 3 6 A T :.>.~ E T H E E E ! :.>.1.1.1.1.1.1.1.1.1.,.^ E E T F C o o A O o - ( 8.8.8.9.9.8.9.9.9.9.9.V V ",
"w.0.0.0.9.9.9.9.{ n f s $ 7 H ~ <.<.^ E E E T E E ^ >.1.1.4.1.1.1.1.1.4.4.<.:.! E E H A O o O A o - c 8.8.8.8.9.0.0.8.0.9.9.....",
"w.0.9.9.9.0.9.9.9.m b h 8 G ~ >.1.,.^ E E E H T E ! ,.1.1.5.4.1.>.>.<.4.2.1.,.:.! E T F C O A O o - c B 8.8.8.0.8.0.9.9.9...V V ",
"w.0.9.9.V 8.9.8.9.B z w 8 H :.<.1.,.~ ! E T H H E ^ 1.5.2.1.4.<.^ :.<.1.1.1.1.>.^ E E H A A A O o - c 8.9.8.8.8.9.8.9.9.9.....[ ",
"w.9.9.8.B B { 8.9.[ t > J R ,.1.4.,.^ E E R F H ^ >.1.1.1.5.1.<.^ ^ ,.1.4.1.1.,.~ E ! H G A A Z o - x 8.8.8.9.9.9.9.9.9.9.9.8.8.",
"w.9.9.8.B N { 8.8.[ e > H ^ ,.1.1.>.~ E E R H T >.1.1.1.5.1.1.>.^ ^ ,.1.<.1.,.>.~ E ! E G A A Z o - x 8.8.9.9.9.9.9.0.9.9.9.8.{ ",
"w.0.9.9.B B 8.9.9.( ; > H ^ ,.<.>.^ ! R H H H E >.2.1.5.1.1.>.:.! ^ ,.1.>.:.:.^ ! E ! H G S Z Z o - ( 9.9.9.9.9.9.9.9.0.9.9.{ { ",
"w.0.9.9.{ { 8.9.9.[ ; Z G R :.:.^ E R R H F T ! ,.4.4.1.<.>.^ ~ ! ! :.>.^ E E E E E E R G A Z Z : e M 9.8.9.9.9.9.9.9.9.9.9.{ { ",
"w.0.0.9.9.9.9.9.9.{ ( e Z F G H T H H G Z H R ^ ,.1.1.1.>.^ ~ ! E E ! E T H H H H H E T L Z Z > e x { 9.9.9.9.9.9.9.9.9.9.8.8.{ ",
"w.w.0.0.9.9.9.9.9.8.[ / r > Z Z Z Z Z F Z Z H ~ :.>.>.:.! E T T E T D E >.1.1.#.T D T H Z Z > > x { ..9.9.9.9.9.0.9.w.9.w.9.{ { ",
"w.0.0.9.9.9.9.9.8.{ { M k e e - Z C C C Z Z Z Z H H T F A A A A F F 9 +.S.J.L.S.} 9 D F Z > Z / [ 9.9.9.9.9.9.9.9.0.9.w.q.8.{ { ",
"0.0.0.0.0.9.9.8.{ B m M x k e S G Z Z G G G R Z T T T F C O X O 9 9 9 #.I.Q.Q.I.&.6 J D Z ; [ [ ....{ { B { 9.9.9.0.9.9.q.q.8.{ ",
"0.w.w.9.q.8.B M j j j d q r U | :.>.<.4.4.<.4.4.4.1.,.^ 9 - X 6 e r 6 =.Y.!.!.Y.=.* / ` P c [ { { [ M z z b m { 9.q.0.0.0.9.8.8.",
"w.0.0.9.9.{ N z d a u u & q U :.>.<.4.6.N.4.5.5.4.6.1.+.J 0 0 r y l w =.K.E.E.K.#.h ( { [ { 8.8.{ M l j j f M { 9.9.8.0.9.9.8.8.",
"w.0.q.9.9...m j a , , & + * K U ` } } | } | | | | | Q Y x c x n m V c  .h.Z.Z.j.%.( { { 8.8.9.9.{ N f j s j M { 8.9.9.0.9.9.m { ",
"w.0.9.9.9.9.m M f p p a u a k / ( ` ] } ` ` ] ` ] ` )  .v V V V V V V ..%.=.=.=.{ { 9.9.9.9.9.9.8.8.M z b M [ { 9.9.9.9.9.8.{ [ ",
"e.w.0.9.9.9.9.{ { { B B N B { [ { { %.{ { o.o.o.o.{ o.....V ..o.9.......q.q.o.q.9.8.9.9.9.9.q.9.8.8.8.8.8.8.8.9.9.q.9.9.9.9.{ [ ",
"u.e.0.9.9.9...9.9.q.....{ o.o.q.q.8.8.9.9.{ 9...9.......V V ..V V ......{ 9.....8.9.9.9.8.9.8.8.8.9.9.8.9.8.8.9.9.8.8.8.9.9.{ { ",
"f.i.w.8.{ { B { { [ { N B [ { [ [ { [ B { [ [ B N { B N V N V N V V m V V N B B [ [ m [ B { { [ { { [ [ { [ N { { { { [ [ [ r.i.",
"g.f.q.{ [ N M N N N N N N N N [ [ N N N N N N N N N N N N N c V v v N N N N N N M B [ N M B N M [ M N N N N N N [ M [ [ ] o.i.g."
};
