/* XPM */
static char *result[] = {
/* columns rows colors chars-per-pixel */
"64 64 215 2 ",
"   c #343334",
".  c #393633",
"X  c #3E3934",
"o  c #373738",
"O  c #3C3B3B",
"+  c #5B3C1D",
"@  c #633E1D",
"#  c #493A2C",
"$  c #5C3E23",
"%  c #533C29",
"&  c #413730",
"*  c #433C35",
"=  c #4A3E34",
"-  c #423E3B",
";  c #623E20",
":  c #64401F",
">  c #5D4125",
",  c #54422D",
"<  c #5B442B",
"1  c #5E482E",
"2  c #4C4235",
"3  c #45413D",
"4  c #4B443B",
"5  c #534534",
"6  c #584733",
"7  c #564837",
"8  c #5C4A34",
"9  c #52463A",
"0  c #554A3B",
"q  c #5C4D3B",
"w  c #5F523D",
"e  c #644324",
"r  c #684625",
"t  c #694827",
"y  c #64472B",
"u  c #66492C",
"i  c #6B4B2C",
"p  c #71502F",
"a  c #634D34",
"s  c #6C4E32",
"d  c #604E3B",
"f  c #6D5235",
"g  c #64523C",
"h  c #68553B",
"j  c #6C543B",
"k  c #725435",
"l  c #755837",
"z  c #725639",
"x  c #755A3C",
"c  c #7A5D3D",
"v  c #7E603F",
"b  c #3F3F40",
"n  c #403F40",
"m  c #434243",
"M  c #4A4643",
"N  c #4D4944",
"B  c #474748",
"V  c #484749",
"C  c #4C4C4D",
"Z  c #534D44",
"A  c #5A4F42",
"S  c #514E4B",
"D  c #5D5343",
"F  c #55514B",
"G  c #5B554C",
"H  c #5A564C",
"J  c #4F4F51",
"K  c #525253",
"L  c #5B5651",
"P  c #5D5954",
"I  c #575759",
"U  c #58575A",
"Y  c #5B5A5C",
"T  c #635644",
"R  c #645B47",
"E  c #6B5B45",
"W  c #645A4C",
"Q  c #6A5B48",
"!  c #735C44",
"~  c #7B5E40",
"^  c #725E49",
"/  c #655D54",
"(  c #695F52",
")  c #625D5B",
"_  c #6D614B",
"`  c #7E6141",
"'  c #73644C",
"]  c #7B6349",
"[  c #75694D",
"{  c #737848",
"}  c #656056",
"|  c #6C6354",
" . c #6E6559",
".. c #726654",
"X. c #756953",
"o. c #7A6C52",
"O. c #756A5A",
"+. c #756B5D",
"@. c #7E7157",
"#. c #7D715B",
"$. c #5F5F61",
"%. c #626264",
"&. c #6B6763",
"*. c #666668",
"=. c #6B6B6D",
"-. c #756D63",
";. c #766E68",
":. c #7B7162",
">. c #77726A",
",. c #6D6C70",
"<. c #717175",
"1. c #777777",
"2. c #7B7B7C",
"3. c #80613F",
"4. c #836544",
"5. c #856847",
"6. c #866748",
"7. c #866A4B",
"8. c #886D4E",
"9. c #886D51",
"0. c #8B7154",
"q. c #847658",
"w. c #84755B",
"e. c #8C745A",
"r. c #8B7B5E",
"t. c #917A5E",
"y. c #867A66",
"u. c #947C63",
"i. c #847D76",
"p. c #5E932A",
"a. c #689431",
"s. c #729837",
"d. c #798E49",
"f. c #7B9752",
"g. c #8D9057",
"h. c #8AA957",
"j. c #8D8269",
"k. c #948363",
"l. c #9B8A66",
"z. c #9B8B68",
"x. c #8B8375",
"c. c #8B847B",
"v. c #968A75",
"b. c #9B9270",
"n. c #A4926D",
"m. c #A89672",
"M. c #A99A76",
"N. c #9BAE6B",
"B. c #ADA57A",
"V. c #7F7F81",
"C. c #828285",
"Z. c #8D8583",
"A. c #86868C",
"S. c #8B8B8C",
"D. c #948D84",
"F. c #958D88",
"G. c #9A9287",
"H. c #9A938A",
"J. c #8D8D91",
"K. c #989595",
"L. c #A49A87",
"P. c #A29C95",
"I. c #ABA687",
"U. c #B7A989",
"Y. c #ADB587",
"T. c #ACA599",
"R. c #B4A996",
"E. c #BCBB96",
"W. c #9D9DA2",
"Q. c #A39FA1",
"!. c #A4A1A5",
"~. c #ABA7A5",
"^. c #A3A2AB",
"/. c #ADAAAD",
"(. c #B1ABA2",
"). c #B2ADAC",
"_. c #BAB2A6",
"`. c #A8A6B1",
"'. c #AAA9B2",
"]. c #B3AEB3",
"[. c #B7B5B8",
"{. c #C4BAA8",
"}. c #C4BEB6",
"|. c #CDC9AF",
" X c #C9C4BC",
".X c #D2C8B5",
"XX c #BCBBC4",
"oX c #C1BEC7",
"OX c #C5C4C5",
"+X c #CBC8C7",
"@X c #C3C2CD",
"#X c #CCCBCC",
"$X c #D2CDC4",
"%X c #D9D3CA",
"&X c #C7C6D3",
"*X c #C9C7D2",
"=X c #CFCEDB",
"-X c #D0CED4",
";X c #D9D7D7",
":X c #D5D4DA",
">X c #E2DCCF",
",X c #E2DDD3",
"<X c #E5E2D6",
"1X c #E4E1DC",
"2X c #DFDEE2",
"3X c #E5E3E4",
"4X c #E9E7E7",
"5X c #ECE9E5",
"6X c #ECEBEC",
"7X c #F0EDEB",
"8X c #F2F0ED",
"9X c #EEEEF2",
"0X c #F0EFF0",
"qX c #F2F2F2",
"wX c #FAFAFA",
/* pixels */
"k.u.e.0.0.7.7.8.7.8.8.8.8.7.8.7.7.7.7.9.7.9.7.9.7.7.7.7.9.7.7.7.7.9.9.8.8.7.7.9.8.7.7.7.9.7.7.7.9.7.7.7.8.8.8.8.8.8.8.8.0.0.t.t.",
"u.u.0.9.8.6.7.7.7.7.7.7.7.7.7.7.6.6.7.7.7.6.6.~ ^ ^ ^ ^ ^ 4.^ ^ ^ ! ^ ~ ! ^ ! ^ ^ ^ ^ 7.7.7.7.7.7.7.7.7.8.6.5.6.5.5.6.8.8.0.t.t.",
"t.0.8.6.5.5.6.4.6.6.6.5.5.5.] 6.6.6.6.6.6.4.! g n n n = n = n = - = n n = n n = = N d E ~ 6.6.6.6.4.7.6.5.5.6.6.5.5.5.5.5.6.8.8.",
"0.8.6.4.5.4.4.4.` 4.` 4.4.4.5.5.4.4.6.4.! ! T N = n n n n n n n n n n n n n n n n = n q Q ~ 6.4.5.4.] 6.5.3.5.4.6.4.4.4.3.5.4.5.",
"8.6.5.4.5.4.4.4.c x c 4.4.4.4.4.4.6.4.~ ! d Z n S K U U Y Y ) U Y Y ) U ) U Y U K C V M 0 g ~ 4.4.4.5.4.4.5.5.4.4.4.6.4.5.4.3.4.",
"6.6.4.4.5.4.4.3.x x x ~ v 5.4.4.6.3.! ! q A n V U %.*.*.=.=.*.=.=.*.=.=.,.=.=.*.$.I C M - 9 g ~ 4.6.4.4.3.4.4.4.6.6.4.6.5.4.3.3.",
"6.6.5.5.4.4.4.3.x l c ~ 3.3.4.4.3.~ T = = n V K ) *.=.=.=.=.,.=.=.=.=.=.=.=.=.=.*.%.I C M - 9 d x 4.4.4.5.5.5.5.4.4.4.6.4.4.3.~ ",
"6.6.5.4.5.4.5.3.c x c c 3.3.3.3.3.z 7 * - n C K $.=.=.,.,.,.,.=.,.,.,.,.,.,.,.=.*.%.Y J m - * 9 x 4.4.4.3.4.3.3.4.4.4.4.6.4.3.~ ",
"6.6.4.4.4.6.6.4.3.3.3.~ x x k s j a = & b b V K Y *.=.,.,.,.,.,.,.,.,.,.,.,.,.=.%.$.K C m O - 4 x 4.3.3.c x x x c c 3.4.4.4.3.c ",
"8.6.4.4.4.4.4.4.4.3.~ x p s i i i $ # * n n J K Y $.*.*.=.=.*.*.&.=.*.=.*.,.=.*.$.$.I J C V - 4 x 3.c x l k k k l l c 3.3.4.~ 3.",
"6.6.6.4.6.4.4.3.~ x k s p r ; ; ; ; % - C K $.$.Y Y %.%.%.%.%.%.%.%.%.%.%.%.%.$.$.$.$.$.$.K m 9 E c x k i i r r t i p l 3.4.3.~ ",
"8.6.6.4.6.4.4.3.x k s u @ @ @ @ ; ; = S $.=.<.<.*.*.=.,.,.,.,.,.,.,.,.,.,.,.,.,.%.=.,.,.<.*.L A ! x k i r e e @ : r i p c 4.~ ~ ",
"6.6.3.6.6.4.3.c z s i r @ r @ @ $ % T  .1.C.J.J.A.A.A.A.A.A.A.A.A.A.A.A.A.A.A.A.A.A.J.J.J.V.<./ T a k s e e @ @ : e e f 3.4.~ ~ ",
"8.5.5.3.4.4.3.3.f i r e @ @ @ @ % = ) 1.A.K.^.^.^.^.^.^.^.^.^.^.`.Q.`.`.^.^.`.`.^.^.`.W.W.J.i.&.D 8 s p t y e e e u i k 3.4.~ c ",
"5.6.5.3.4.4.3.c p t y e $ ; ; $ * V ,.V.J.W.'.[.XX@X@X@X@X@X@X@XoXoXoX&XoXoXoX&XXXoXXX`.^.K.A.<.S 9 T z f a a a f z c ` 4.4.3.~ ",
"5.8.5.5.4.4.4.c k y % % % % % = n C *.f.S.W.'.XX&X=X=X=X=X=X=X=X=X=X=X=X=X=X=X=X=X&XXXXX^.K.V.=.K N D T q q q w j ] ] 6.4.4.~ ~ ",
"8.6.3.3.8.8.3.3.z a = . . * - N S K Y %.1.J.Q.XXoX&X&X&X&X&X&X&X&X&X&X&X&X&X&X&X&X@XXX'.K.C.=.Y K S S M - - * = T ~ 3.6.4.4.~ ~ ",
"5.5.8.3.3.3.3.3.h 7 * o O n V K U Y I Y *.2.A.K.^.`.`.`.`.`.`.`.`.`.`.`.`.`.`.`.`.^.W.J.A.<.$.I U U K V n O o - 7 E ! 3.4.3.~ ~ ",
"5.3.8.8.4.4.3.l 9 * n n V J U $.%.%.$.Y $.$.*.,.<.<.<.<.<.<.<.<.<.<.<.<.<.<.<.<.<.<.,.*.*.$.Y Y $.*.$.U J V n n - d ! ~ 4.4.~ ~ ",
"5.5.3.3.4.c v f 5 - - m B J U $.%.%.$.Y I I $.$.Y Y Y Y Y Y Y Y Y Y I Y Y Y Y Y Y Y Y Y Y Y Y $.%.%.$.U K C n n - = ! ~ ` 4.~ ~ ",
"6.6.4.~ l f f s a 6 * o O b B J K U $.%.$.$.%.%.%.*.%.%.%.%.%.%.%.%.*.%.%.%.*.%.%.*.%.*.%.%.%.$.Y K J V n O o * 7 g c ` 4.4.~ ~ ",
"6.6.4.c k f s s k h 9 = = 3 O 3 B C K I $.$.$.$.$.$.%.$.%.%.%.$.%.$.$.%.$.%.%.%.$.$.$.$.$.Y Y K C M n O & & & # a f c 4.4.` ~ ~ ",
"6.5.4.3.x k f f x x z f h q 2 o O O b b b b b B C J J J J C C J J J C C J J C J J C B m b b b O O o o & = $ % $ e y l c ` 4.~ c ",
"6.5.4.3.x x k x c v v c 3.j 2 X X O O O b o o b n m m b b M F H S Z K L H H H H N N m B 4 4 3 3 - O X = y s i i t i x c 4.4.~ c ",
"6.6.5.4.4.c c v v v v v v h 6 2 0 D D D 0 3 O O b m m b O Z #.r.[ [ e.u.j.j.y.w._ R W _ o.X._ T D 0 2 5 f l l k x x 3.4.4.3.~ x ",
"6.6.4.4.4.3.4.3.3.3.v v v k 1 7 Q _ _ W Z 3 b b B B B b O N o.y.@.j.l.m.n.n.z.r.{ h [ q.k.k.q.o.[ Q 7 8 f x x x c 4.4.4.4.4.3.~ ",
"6.4.5.4.4.4.4.4.3.3.v c v k 8 w [ o.} 0 3 3 b B C J C B b m Z W g.l.n.m.M.z.e.' w w ' q.l.n.l.k.j.[ q < a k l c ~ 4.4.4.4.4.~ ~ ",
"6.5.4.4.4.3.v c 3.c c c l h 1 w o.o.H 3 b b B C J K K C B b O K v.I.M.M.M.n.k.@._ h ' q.l.n.l.k.r.o.w , 1 s f l c 3.v 4.4.4.~ ~ ",
"6.6.4.4.~ x x l k k z f a 8 , 8 _ _ Z 3 b b B C J K K C B b o $.E..XU.M.M.B.R.I.f.X.{ q.l.z.r.q.9._ 8 , , 1 u p l c 3.4.4.4.c c ",
"6.4.4.4.x x f i i i s i 1 , , 8 _ _ D N 4 m m C J J J C m B J V.$X>X|.U.B.B.E.Y.f.s.a.{ g.z.r.q.o._ 7 , , > e i k c 3.4.4.3.~ ~ ",
"6.6.` c k i i r r r r e e < , q [ q.#.X.P Z M m B C B B m I A.XX3X7X>X|.U.B.N.h.s.p.a.d.l.n.l.u.g.[ 8 , > > e t p c c 4.4.3.~ c ",
"6.6.4.x k i t e : @ : e > < , q [ w.r.#.| H N M S F S K K f.XX2X3X5X5X>X|.Y.h.f.p.p.s.g.g.n.z.k.w.o.8 , > > e i k c 4.4.4.4.~ ~ ",
"4.5.4.v l p t r > : : : < 1 , 8 ' #.#.#.( W F W }  . .-.f.W.;X3X X+X3X5X.XE.N.h.s.s.g.g.g.r.k.r.w.' 8 , , y s k c ` 3.4.4.3.v v ",
"6.5.4.3.c l k i i t y 1 1 , , 8 R _ .._ | | ..#.y.j.j.G.'.OX3X2X(.R.;X7X1X.XY.N.h.h.g.g.k.r.w.q.[ Q 7 , , a f x ` 4.4.4.4.4.` c ",
"6.6.4.4.3.v 3.c c l v f a , , 8 w D G }  .:.i.b.L.I.R.{.:X4X3X#XH.F.oX3X7X<X|.E.Y.B.M.b.j.y.o..._ w 8 6 6 8 l c ` 4.3.4.4.` v c ",
"6.6.5.4.4.4.5.3.4.3.v v h 8 a 7 9 Z Z / ;.c.L._.{.|..X%X6X9X;XXXK.K.[.%X7X8X<X.X.X{._.R.L.x.#._ w 8 q a a f x 3.` 4.4.4.` ` v c ",
"6.6.4.4.3.5.3.5.3.3.v v l l p f 2 9 G +.c.T.}.>X1X5X5X6XqX3X[.'.[.[.`.XX,X9X6X6X4X,X;X$X[.L.y.' w 8 f l l x c 3.3.4.4.4.5.` v v ",
"6.4.5.4.5.3.3.3.3.3.v v c c v p 6 0 D X.i.P.[.-X3X6X6X6X6X2X[.'.*X*X'.[.:X6X9X6X9X4X:XoX(.D.:.E a a l v v v v 3.3.4.3.4.4.` v ` ",
"6.4.4.4.3.5.4.3.3.3.v v c c c z f a w w T  .i.P.oX-X=X:X;X:X#X#X=X-X+X+X:X:X:X-X=XoX~.F.-.Q D d h h l v v c c 3.3.4.4.4.4.` ` x ",
"6.5.5.4.5.3.4.4.3.v v v v c l k h 8 7 9 9 Z ( 1.H.!.!.!./././.).).).).).)././.!.Q.K.i. .Z = 4 7 8 f l v c c l l v v ` 4.4.` ` ~ ",
"6.5.4.4.4.4.4.3.3.3.c 3.c c x s 5 = M N M N Z H } |  . . . . . . . . . . . . .| } } L Z M 3 - = = = j ~ c l s s k c ` 4.4.4.v c ",
"7.5.5.4.4.3.4.3.3.4.c c l l s 6 & . 3 M V V N 4 4 9 4 9 2 2 2 2 2 2 2 4 2 2 4 9 9 4 4 4 - M 3 - & * 7 z x x s p z c ` 4.4.4.` v ",
"5.5.5.4.4.4.4.4.3.c x z k a = & o . * 4 N N S J S S S C 4 3 m 3 m 3 3 3 3 M N C S S S V M - = & o o & 9 z ~ c ~ ~ ` 4.4.] ` v x ",
"7.5.6.] 4.4.4.v 4.c k s a , * . . X 2 w D H H K K K K K J C C J C C J S C J K K K K K F K L / D - . . & d ! ~ 4.4.` 4.4.5.` ` v ",
"5.5.5.5.5.5.3.3.~ x k a 2 X X 3 2 0 _ [ o.+.} H S C K I $.%.$.%.%.Y %.%.%.Y Y K J J L } >.c.K.C.G & . . - 9 x ` 4.5.4.4.4.4.v c ",
"5.5.5.5.4.3.5.4.c x i , * X b 3 3 w :.b.M.v.y.+.P K I I $.%.=.=.=.=.=.*.*.%.Y K C F } >.D.T.[.P./ & .     * h ` 3.3.4.4.5.4.` c ",
"5.5.5.4.5.5.3.4.` j 7 & - 3 B V 2 } H.}.$X X).H.>.} I I Y $.*.=.=.<.=.*.%.I I K N H ;.D./.XXoXP.( & .     - h ` 4.4.4.5.4.4.v ~ ",
"6.5.5.3.v v 4.3.` h = o O B J N 9 | (.%X5X5X$X(.x.:.1.1.2.V.S.S.S.S.S.S.c.2.2.,.} } ;.c.!./.~.S.G &       X w x v 3.4.4.4.` v ~ ",
"7.5.4.v c c 3.3.3.E = o n n I J 9 | (.;X7X5X+XT.x.c.).OXOXOX#X#X#X#X#X+X+XOXOX(.c.-.( ( -.;.;./ n . .       X 0 j 4.4.4.4.4.3.c ",
"5.5.4.` c x 3.3.~ E - o n n J J 9 } K. X%X$X_.H.y.c. X1X4X8XqXqXqXqX0X8X6X7X1X XG.+.D 7 q D 0 7 * .         o = h ~ 4.6.4.4.3.~ ",
"6.6.4.` x x c 4.3.j * o n J J J N H >.c.F.v.x.:.X.>.R..X7XwXwXwXwXwXwXwXwX7X%X{.v._ q 5 5 5 = = = .           = T ~ 4.4.4.4.~ ~ ",
"7.5.4.4.c c 4.4.3.T * O V J K J V V H } } } H R R +.M._.;X8XwXwXwXwXwXwXqX,X}.L.y.W 0 5 9 5 9 9 = & .         - g ` 4.4.4.4.3.~ ",
"8.5.5.4.4.4.4.4.3.T = - V K K K C B N 4 4 9 2 7 w _ y.G.|.%X4X9X9X9X9X6X;X XI.v.X.g 0 0 Z F F S S N * & . .   * T ~ 4.4.6.4.~ ~ ",
"6.6.5.4.4.4.4.4.3.! = n V K K K K C 3 X X X & = 9 w X.x.T.}.-X;X:X:X:X#X_.T.v.y._ g D Z L L W L / F 4 * = * . = E ~ 4.4.4.4.~ ~ ",
"6.6.5.5.4.4.4.4.3.! = n n J J K K C b X o   . . 2 0 H #.G.T.).].].].].~.H.v.u.w.E w D Z L ) ) ) $.) F Z Z 4 - = j 3.4.6.4.4.~ ~ ",
"8.6.5.5.5.4.4.c ! s a q n n C K K C m O o   . . X 2 w O.D.K.F.Z.Z.Z.Z.c.j.y.j.w.' T D A G L L ) %.%./ G G Z 4 7 ! 3.4.4.6.4.3.~ ",
"6.6.6.6.6.3.x z p i u % = - V C C C n - - * * * 2 9 w +.H.F.O.} Q W W | y.j.M.v.w.^ q 0 q q D T ) %.) ) ) L 0 a z 3.4.4.6.4.3.~ ",
"6.6.4.4.4.3.x f s ; u $ % = n n m m 4 4 9 9 9 7 9 q T ..c.x.D , 8 6 5 R x.R.{.R.j...T 6 a g g T W P L L U W q h ~ 6.6.4.4.4.~ ~ ",
"7.6.4.4.4.3.l p ; ; ; ; + % # & O = 7 d j ! ! x x ! v ! Q W 0 8 k j 8 ..(.%X,X%XP.:.^ a ! c ~ j q 0 0 q q q g ! ~ 4.4.4.4.4.~ ~ ",
"7.6.6.4.6.3.x l k i i ; ; y % = = 7 g x 3.4.4.4.4.4.v x h 8 8 h c x 8 O.[.3X0X:XP.y.^ E ~ 4.4.x h d 8 a 8 a z ~ 3.4.4.4.4.4.~ x ",
"8.6.5.4.4.4.4.` ~ ~ x x x x ! ! ! ! ~ ` ` 6.4.4.4.4.4.v ` v j v 4.x d  .(.:X2X#XP.y.^ z ` 4.4.` c x c c x ~ ` 4.4.4.4.4.4.4.~ ! ",
"0.0.5.4.4.4.4.` 4.6.4.` ~ ] ` ~ 4.] 4.` ` ` ` ` v 4.` ` ` ` ` ` v x h ^ F.).).~.c.O.E z v 4.4.` 4.4.4.` 4.4.4.4.4.4.3.3.4.4.] ~ ",
"t.e.5.] ~ ~ c x ~ ~ x ~ ~ x ~ ~ ~ ~ c ! ~ ~ c c c c c c v x c c c x z E | ..O...^ E j x x c c ~ ~ x x c ~ x x ~ ~ x ~ ! ~ ^ 9.e.",
"u.r.] ` x x x x x x x x x x ! z z x x x x x x x j x x x x x x z x x x f 8 5 % 5 8 h x x x x x x x x x x x x x x x x x x ! ^ 0.u."
};
