/* XPM */
static char *result[] = {
/* columns rows colors chars-per-pixel */
"32 32 21 1 ",
"  c #323234",
". c #4F422F",
"X c #444444",
"o c #5F5744",
"O c #545456",
"+ c #6C5F46",
"@ c #6F634C",
"# c #796B50",
"$ c #6D6D6E",
"% c #6C6C73",
"& c #887C62",
"* c #439C00",
"= c #9F8E6D",
"- c #AD9A73",
"; c #81818A",
": c #84848C",
"> c #A7A7A9",
", c #D3D2E0",
"< c #E8E7EF",
"1 c white",
"2 c None",
/* pixels */
"22222222222222222         222222",
"2222222222222222 O$$$$$$$O 22222",
"222222222222222 X$$$$$$$$$X 2222",
"222222222222222 XO$$$$$$$OX 2222",
"222222222222222X>OOOOOOOOO>X2222",
"22222222222222 >>,,,,,,,,,>> 222",
"22222222222  XOO>,,,,,,,,,>OOX  ",
"2222222222 XO$$OOOOOOOOOOOOO$$OX",
" 2222222222  XO$$$$$$$$$$$$$OX  ",
"2222222222222    XXXXXXXXX    22",
"2222222222222.o#####- XX -#-&.22",
"2222222222222.=----- XOOX --..22",
"2222222222222.@#.+## XOOX 1-1.22",
"2222222222222 =------ XX 111*.22",
"2222222222222.X#.+#XX---11.<,.22",
"22222222222222.XXXX-11111:,:.222",
"222222222222222.  <<<<<<<,..2222",
"222222222222222 XX .......222222",
"22222222222222 OOOOXOOOXXX 22222",
"2222222222222 X$X@-OO$$$OX 22222",
"2222222222222 O$.-#.<OOOXX 22222",
"222222222222 XO$.11.<111,.222222",
"222222222222 XO$.<<.<<1,.2222222",
"222222222222 XOO...&=,,o.2222222",
"222222222222 XOO;%.o@@.&.2222222",
"2222222222222 XO...,==.,.2222222",
"22222222222222  22.,,,..22222222",
"2222222222222222222...2222222222",
"22222222222222222222222222222222",
"22222222222222222222222222222222",
"22222222222222222222222222222222",
"22222222222222222222222222222222"
};
