/* XPM */
static char *protect[] = {
/* columns rows colors chars-per-pixel */
"64 64 185 2 ",
"   c #020202",
".  c #080606",
"X  c #060608",
"o  c #0B0709",
"O  c #07080A",
"+  c #0C0B0B",
"@  c #120C0D",
"#  c #0C0D12",
"$  c #140E10",
"%  c #1B0F12",
"&  c #0F1116",
"*  c #151314",
"=  c #1D1314",
"-  c #15161A",
";  c #15181E",
":  c #1B1A1C",
">  c #191518",
",  c #201416",
"<  c #271C14",
"1  c #241619",
"2  c #23181B",
"3  c #2B1B1D",
"4  c #281A16",
"5  c #301B17",
"6  c #301A1F",
"7  c #2D2115",
"8  c #32241B",
"9  c #171A21",
"0  c #1C1E25",
"q  c #1B1E29",
"w  c #2D1C20",
"e  c #341C22",
"r  c #1F2125",
"t  c #232324",
"y  c #22252C",
"u  c #2C242A",
"i  c #262A2C",
"p  c #2A2B2D",
"a  c #352321",
"s  c #3C2224",
"d  c #372827",
"f  c #30262C",
"g  c #212531",
"h  c #252A32",
"j  c #2B2E32",
"k  c #262B38",
"l  c #292D3C",
"z  c #302D33",
"x  c #2F3232",
"c  c #2D323B",
"v  c #333435",
"b  c #32333C",
"n  c #34383C",
"m  c #3B3B3C",
"M  c #39323A",
"N  c #472A26",
"B  c #4D3624",
"V  c #4D312C",
"C  c #4D3827",
"Z  c #53372C",
"A  c #62392F",
"S  c #653931",
"D  c #6C3D32",
"F  c #44403E",
"G  c #63472A",
"H  c #674733",
"J  c #724F34",
"K  c #7A5233",
"L  c #2D3442",
"P  c #303644",
"I  c #333A45",
"U  c #3B3D42",
"Y  c #343C4B",
"T  c #383E4B",
"R  c #3C4144",
"E  c #37404F",
"W  c #3C424C",
"Q  c #3D4655",
"!  c #3B4558",
"~  c #3F4B5F",
"^  c #3F4C60",
"/  c #424344",
"(  c #43464A",
")  c #4C4949",
"_  c #444C5C",
"`  c #434754",
"'  c #4C5254",
"]  c #46505F",
"[  c #4E515B",
"{  c #54545E",
"}  c #5D5B5C",
"|  c #535052",
" . c #414E61",
".. c #465161",
"X. c #485262",
"o. c #465469",
"O. c #4A5569",
"+. c #565761",
"@. c #555966",
"#. c #585967",
"$. c #555A6C",
"%. c #5D5F6E",
"&. c #505F78",
"*. c #505D72",
"=. c #5D6364",
"-. c #5B646C",
";. c #546076",
":. c #53637D",
">. c #59657B",
",. c #62676A",
"<. c #606473",
"1. c #646B74",
"2. c #676E79",
"3. c #6A6D7E",
"4. c #6C7375",
"5. c #6B737E",
"6. c #63707E",
"7. c #74737C",
"8. c #747A7D",
"9. c #7C797A",
"0. c #B27B3C",
"q. c #C78E40",
"w. c #586984",
"e. c #5A6D89",
"r. c #566782",
"t. c #5E718E",
"y. c #6B7785",
"u. c #6D7388",
"i. c #667185",
"p. c #747A82",
"a. c #72768A",
"s. c #667794",
"d. c #707F9C",
"f. c #737B92",
"g. c #778289",
"h. c #7B8493",
"j. c #72819C",
"k. c #768490",
"l. c #7C89A5",
"z. c #848388",
"x. c #818593",
"c. c #868D99",
"v. c #85939C",
"b. c #8B939A",
"n. c #929C9F",
"m. c #99989A",
"M. c #888CA2",
"N. c #838EAA",
"B. c #8F93AA",
"V. c #929CA3",
"C. c #9093AA",
"Z. c #8D96B1",
"A. c #939AB6",
"S. c #999DB4",
"D. c #979FB8",
"F. c #999FBA",
"G. c #A09DA0",
"H. c #99A2A6",
"J. c #96A0A2",
"K. c #9CA1BC",
"L. c #98A6B7",
"P. c #A4A4B4",
"I. c #A3A5BB",
"U. c #A5AEB8",
"Y. c #A2ACB0",
"T. c #A9B1BF",
"R. c #A3A7C2",
"E. c #A6AAC4",
"W. c #A8ADC6",
"Q. c #AEB6C7",
"!. c #ADB2C9",
"~. c #AFBDC6",
"^. c #B4BCCF",
"/. c #B0B6CC",
"(. c #B9C4CA",
"). c #BAC2D4",
"_. c #BCCBD5",
"`. c #BFC8D8",
"'. c #C5C4CA",
"]. c #C2CBDA",
"[. c #CBD8DD",
"{. c #D1D1D8",
"}. c #CBD6E1",
"|. c #DCEAEE",
" X c None",
/* pixels */
" X X X X X X X X X X X X X X X X X X X X X X X X X X X X X X X X X X X X X X X X X X X X X X X X X X X X X X X X X X X X X X X X",
" X X X X X X X X X X X X X X X X X X X X X X X X X X X X X X X X X X X X X X X X X X X X X X X X X X X X X X X X X X X X X X X X",
" X X X X X X X X X X X X X X X X X X X X X X X X X X X X X X X X X X X X X X X X X X X X X X X X X X X X X X X X X X X X X X X X",
" X X X X X X X X X X X X X X X X X X X X X X X X X X X X X X X X X X X X X X X X X X X X X X X X X X X X X X X X X X X X X X X X",
" X X X X X X X X X X X X X X X X X X X X X X X X X X X X X X X X X X X X X X X X X X X X X X X X X X X X X X X X X X X X X X X X",
" X X X X X X X X X X X X X X X X X X X X X X X X X X X X X X X X X X X X X X X X X X X X X X X X X X X X X X X X X X X X X X X X",
" X X X X X X X X X X X X X X X X X X X X X X X X X X X X X X X X X X X X X X X X X X X X X X X X X X X X X X X X X X X X X X X X",
" X X X X X X X X X X X X X X X X X X X X X X X X X X X X X X X X X X X X X X X X X X X X X X X X X X X X X X X X X X X X X X X X",
" X X X X X X X X X X X X X X X X X X X X X X X X X X X X X X X X X X X X X X X X X X X X X X X X X X X X X X X X X X X X X X X X",
" X X X X X X X X X X X X X X X X X X X X X X X X X X X X X X X X X X X X X X X X X X X X X X X X X X X X X X X X X X X X X X X X",
" X X X X X X X X X X X X X X X X X X X X X X X X X X X X X X X X X X X X X X X X X X X X X X X X X X X X X X X X X X X X X X X X",
" X X X X X X X X X X X X X X X X X X X X X X X X X X X X X X X X X X X X X X X X X X X X X X X X X X X X X X X X X X X X X X X X",
" X X X X X X X X X X X X X X X X X X X X X X X X X X X X X X X X X X X X X X X X X X X X X X X X X X X X X X X X X X X X X X X X",
" X X X X X X X X X X X X X X X X X X X X X X X X X X X X X X X X X X X X X X X X X X X X X X X X X X X X X X X X X X X X X X X X",
" X X X X X X X X X X X X X X X X X X X X X X X X X X X X X X X X X X X X X X X X X X X X X X X X X X X X X X X X X X X X X X X X",
" X X X X X X X X X X X X X X X X X X X X X X X X X X X X X X X X X X X X X X X X X X X X X X X X X X X X X X X X X X X X X X X X",
" X X X X X X X X X X X X X X X X X X X X X X X X X X X X X X X X X X X X X X X X X X X X X X X X X X X X X X X X X X X X X X X X",
" X X X X X X X X X X X X X X X X X X X X X X X X X X X X X X X X X X X X X X X X X X X X X X X X X X X X X X X X X X X X X X X X",
" X X X X X X X X X X X X X X X X X X X X X X X X X X X X X X X X X X X X X X X X X X X X X X X X X X X X X X X X X X X X X X X X",
" X X X X X X X X X X X X X X X X X X X X X X X X X X X X X X X X X X X+ @ @  X X X X X X X X X X X X X X X X X X X X X X X X X X",
" X X X X X X X X X X X X X X X X X X X X X X X X X X X X X X X X X Xj S.D.^.H. X X X X X X X X X X X X X X X X X X X X X X X X X",
" X X X X X X X X X X X X X X X X X X X X X X X X X X X X X X X X Xh M.!.`.W.!.b. X X X X X X X X X X X X X X X X X X X X X X X X",
" X X X X X X X X X X X X X X X X X X X X X X X X X X X X X X X X XE j.R.y.U U ( *  X X X X X X X X X X X X X X X X X X X X X X X",
" X X X X X X X X X X X X X X X X X X X X X X X X X X X X X X X X XL e._ w p v j v t  X X X X X X X X X X X X X X X X X X X X X X",
" X X X X X X X X X X X X X X X X X X X X X X X X X X X X X X X Xr ; Y ; u.R.n.c.Q.[  X X X X Xv ,.#  X X X X X X X X X X X X X X",
" X X X X X X X X X X X X X X X X X X X X X X X X X X X X X X Xz.m.v q h N.[ <.#.C.+  X X X X. 5.].:  X X X X X X X X X X X X X X",
" X X X X X X X X X X X X X X X X X X X X X X X X X X X X X XF ( p * + r Q P a.%.v  X X X X XX 2.^.-  X X X X X X X X X X X X X X",
" X X X X X X X X X X X X X X X X X X X X X X X X X X X X X    ' @.E c t { w.f.h.t  X X X X XX >.Q.-  X X X X X X X X X X X X X X",
" X X X X X X X X X X X X X X X X X X X X X X X X X X X X  r v.v.I Q y I 7.( T Z.t    X X X X. y.).-  X X X X X X X X X X X X X X",
" X X X X X X X X X X X X X X X X X X X X X X X X X X X Xi k.h ] X.X.] - 9.m./ / - n -. X Xo X $.R.-  X X X X X X X X X X X X X X",
" X X X X X X X X X X X X X X X X X X X X X X X X X X XR k.X.E h X.X.X.l } {.m.'.v : y.-.  1 + $.E.-  X X X X X X X X X X X X X X",
" X X X X X X X X X X X X X X X X X X X X X X X X X Xi k.$.X.X.E 0 P P O * 9.) } : p.I 6.#.1 + $.R.-  X X X X X X X X X X X X X X",
" X X X X X X X X X X X X X X X X X X X X X X X X Xj 0 Q X...Q k 9 . X o e 3 | a.E.n.9 Q i.W . $.E.-  X X X X X X X X X X X X X X",
" X X X X X X X X X X X X X X X X X X X X X X X XU k._ h I L ; X . $ 2 > M e u x.E.x.# k P i O #.I.-  X X X X X X X X X X X X X X",
" X X X X X X X X X X X X X X X X X X X X X X  P P Q ..Y & O     6 e % M.C.u e u B.b.  # 0 l & { P.>  X X X X X X X X X X X X X X",
" X X X X X X X X X X X X X X X X X X X X X X  m c : q -  X X Xo.0 u M.R.R.I.z e 7.b. X X@ % . $.I.-  X X X X X X X X X X X X X X",
" X X X X X X X X X X X X X X X X X X X X X X=.!.] #  X X X X XL :.u.R.R.R.R.,.Z B b  X X X@ O @.I.;  X X X X X X X X X X X X X X",
" X X X X X X X X X X X X X X X X X X X X X XV.D.E  X X X X X X Xc s.A.A._ u H B V .  X X X XX $.E.-  X X X X X X X X X X X X X X",
" X X X X X X X X X X X X X X X X X X X X Xx c.;.   X X X X X X X- *.O.T N D 0.5 3 +  X X X XX +.P.-  X X X X X X X X X X X X X X",
" X X X X X X X X X X X X X X X X X X X X X=.L.L  X X X X X X X X- I 6 8 S D 0.5 e 1  X X X X. #.I.-  X X X X X X X X X X X X X X",
" X X X X X X X X X X X X X X X X X X X X X[ j.o  X X X X X X X X  3 N V V S q.K = 3  X X X XX +.P.>  X X X X X X X X X X X X X X",
" X X X X X X X X X X X X X X X X X X X X0 K.c  X X X X X X X X XX * * > , 8 J C , @  X X X XX $.x.-  X X X X X X X X X X X X X X",
" X X X X X X X X X X X X X X X X X X X X+ T ;  X X X X X X X X4 $ 2 3 e e J e H N 4 o    X XX @.U  X X X X X X X X X X X X X X X",
" X X X X X X X X X X X X X X X X X X X  > @  X X X X X X X X X X+ * 2 : * 4 K B : @ = ,    XX +.m  X X X X X X X X X X X X X X X",
" X X X X X X X X X X X X X X X X X X X* 2 @  X X X X X X X X X X' J.}.R.i.d S S N 9 . .  X XX { V  X X X X X X X X X X X X X X X",
" X X X X X X X X X X X X X X X X X X Xo + .  X X X X X X X X2   |.}.W.R.R.u Z s T _    X X X. b i  X X X X X X X X X X X X X X X",
" X X X X X X X X X X X X X X X X X X7 G G G <  X X X X X X>   n.}.W.R.R.N.9 a P e.e.k  X X X. 9  X X X X X X X X X X X X X X X X",
" X X X X X X X X X X X X X X X X X X X  ;    X X X X X X X< p (.R.R.R.K.d.; 9 l r.e.Y  X X X     X X X X X X X X X X X X X X X X",
" X X X X X X X X X X X X X X X X X X X+ W +  X X    + , = 7 4.].R.R.R.d.~ # l l ! t.:.;  X X X X X X X X X X X X X X X X X X X X",
" X X X X X X X X X X X X X X X X X X X@ O.+  X+ 4 2 1 4 @ x [.!.R.K.j. . X X& k L t.t.&  X X X X X X X X X X X X X X X X X X X X",
" X X X X X X X X X X X X X X X X X X X+ O.+  Xo o + + @  Xp.`.E.K.j. . X X X# g L &.t.-  X X X X X X X X X X X X X X X X X X X X",
" X X X X X X X X X X X X X X X X X X X .L. . X X X X X X  ' ( i.d.^  X X X X X9 L T ! X  X X X X X X X X X X X X X X X X X X X X",
" X X X X X X X X X X X X X X X X X X Xt._.t. X X X X X+ c.~.(.R ^  X X X X X X. q # g.H. X X X X X X X X X X X X X X X X X X X X",
" X X X X X X X X X X X X X X X X X X Xt._.t. X X X X Xy X.] V.n  X X X X X X X XX y.y.h  X X X X X X X X X X X X X X X X X X X X",
" X X X X X X X X X X X X X X X X X X Xt._.t. X X X Xj 4.I X.V.U  X X X X X X X XO -.X.`    X X X X X X X X X X X X X X X X X X X",
" X X X X X X X X X X X X X X X X X X Xt.~. X X X Xp Y.-.1.` r  X X X X X X X Xl L b.T g    X X X X X X X X X X X X X X X X X X X",
" X X X X X X X X X X X X X X X X X X X X X X X XR U.^.;.1.4. X X X X X X X Xb l. .n g.,. X X X X X X X X X X X X X X X X X X X X",
" X X X X X X X X X X X X X X X X X X X X X X Xi U.W.K.O. X X X X X X X X XO f.s.e.q i R  X X X X X X X X X X X X X X X X X X X X",
" X X X X X X X X X X X X X X X X X X X X X X X' `.D... X X X X X X X X X XX N.w.L    X X X X X X X X X X X X X X X X X X X X X X",
" X X X X X X X X X X X X X X X X X X X X X X  Q.A.O. X X X X X X X X X X X` r.L O  X X X X X X X X X X X X X X X X X X X X X X X",
" X X X X X X X X X X X X X X X X X X X X X X8.D.O. X X X X X X X X X X X  >.o.O  X X X X X X X X X X X X X X X X X X X X X X X X",
" X X X X X X X X X X X X X X X X X X X X X- [ y  X X X X X X X X X X X Xj @.T  X X X X X X X X X X X X X X X X X X X X X X X X X",
" X X X X X X X X X X X X X X X X X X X Xt 4.8.,. X X X X X X X X X X Xx 4.8.'    X X X X X X X X X X X X X X X X X X X X X X X X",
" X X X X X X X X X X X X X X X X X X X X Xi + v  X X X X X X X X X X X Xr o o .   .  X X X X X X X X X X X X X X X X X X X X X X"
};
