/* XPM */
static char *_725d9dea6fb4ad2beebdd8491db1540TrMH3V9RngTM3Ey1[] = {
/* columns rows colors chars-per-pixel */
"86 86 23 1 ",
"  c None",
". c black",
"X c #050403",
"o c #0C0C0C",
"O c #0E0C0C",
"+ c #21181B",
"@ c #2D1B1E",
"# c #3B2027",
"$ c #282C3C",
"% c #323232",
"& c #4F342F",
"* c #673931",
"= c #485262",
"- c #855F39",
"; c #8C5B3E",
": c #807B7A",
"> c #D39741",
", c #5E718E",
"< c #A69E9A",
"1 c #A3A7C2",
"2 c #B8CCD8",
"3 c #DFE0E8",
"4 c #DCEAEE",
/* pixels */
"                                                                                      ",
"                                                                                      ",
"                                                                                      ",
"                                                                                      ",
"                                                                                      ",
"                                                                                      ",
"                                                                                      ",
"                                                                                      ",
"                                                                                      ",
"                                                                                      ",
"                                                                                      ",
"                                                                                      ",
"                                                                                      ",
"                                                                                      ",
"                                                                                      ",
"                                                                                      ",
"                                                                                      ",
"                                                                                      ",
"                                                                                      ",
"                                                                                      ",
"                                                                                      ",
"                                                                                      ",
"                                                                                      ",
"                                                                                      ",
"                                                                                      ",
"                                                                                      ",
"                                               OOOOO                                  ",
"                                              O11144O                                 ",
"                                             O1141114O                                ",
"                                            O,11141114O                               ",
"                                            O,,11XXXXXX                               ",
"                                            X,,,OOOOOOOOO                             ",
"                                            X$,OO1144141O      ....                   ",
"                                          O%X$OO,11X1X1O      .$44.                   ",
"                                         O33:X$O,1X1X11O      .$41.                   ",
"                                        O<....O$O,X1X1O       .$41.                   ",
"                                        ..22==.OO,,1X1X       .$11.                   ",
"                                       ......==.3O,,11X.      .$41.                   ",
"                                      ..222===.=.3OX,1...     .$41.                   ",
"                                      .2.======O.3:%OO..2.   ..$11.                   ",
"                                     .2==.======.33:33%.=2. .#.$11.                   ",
"                                    .2====.====$.:3:3:X.==2..#.$11.                   ",
"                                   .2======.$$$..O:O:OO4.==2.#.$11.                   ",
"                                  ..======$$....##O:O114.$==2..$11.                   ",
"                                 .2=.===$$...++.X##X1114.$$==..$11.                   ",
"                               ..2===.$$....#.#.1X##X111..$$.=.$<1.                   ",
"                              .==.===$.....###.111X##X14. .$.=.$<1.                   ",
"                              ...=.$$.   .,.#.11111X#+14.  .#..$11.                   ",
"                              .41.$..    .,,.1111111X-X1.   .#.$<1.                   ",
"                             .41,..       O,,111111=-#-..    ..$11.                   ",
"                             .41,.         O,,11,..;X-#OX     .$11.                   ",
"                             .1,.          .=,,,.**>*X#O      .$<1.                   ",
"                            .41,.          .==..***>*X#O      .$11.                   ",
"                            .4,.           .=.&&***>*X##X     .$<1.                   ",
"                            .1,.           ..&&&&&*>>*X#X     .$<1.                   ",
"                           .11.            .OOOOOOO--OOOO     .$11.                   ",
"                           .1,.           +O+++###-##-#+O     .$<.                    ",
"                          ....            +O++####-##-##OXXX  .$1.                    ",
"                          .++.           + OO....OO--OOOO@@X  .$<.                    ",
"                         .+++.           + ..4411.&****.XOXX  .$<.                    ",
"                         .+++.          + .4441111.&**.,.X    .$<.                    ",
"                         .....          + .4411111.&&.,,.     .$.                     ",
"                        .-----.        + .4411111,.&.,,,,.    .$.                     ",
"                         .....         XX.4111111,..$$,,,.    ..                      ",
"                          O=O       XXX-.4411111,,.$$$,,,$    ..                      ",
"                          O=O   XXXX@@@O.411111,,..$$$$,,,.                           ",
"                          O,O  X@@@@@@..441111,,.  .$$$,,,.                           ",
"                          O,O XOOOOOOO .41111,,.   .$$$,,,.                           ",
"                          O,O  XXX    .44111,,.     .$$$,,.                           ",
"                          ,4,         ....,,,.      .$$$,..                           ",
"                          ,4,        .4444.,.        .$..44.                          ",
"                          ,4,       .====4..          ..4=.                           ",
"                          ,4,       .====4.           .4===.                          ",
"                          ,4,      .4$$==4.          ..$===.                          ",
"                          ,4,     .4.4$$$.          .$$4$$$.                          ",
"                           ,     .44,.44.          .1,$.4$.                           ",
"                                .4111,..           .1,,$.44.                          ",
"                               .4111,.            .1,,,$...                           ",
"                               .411,.             .1,,$.                              ",
"                              .411,.              .,,$.                               ",
"                              .11,.              .1,$.                                ",
"                             .41,.               .,,.                                 ",
"                            ..$$.               .$$$.                                 ",
"                            .44.                .444.                                 ",
"                           .4..4.              .4....X                                ",
"                            .OO.                .OOOO..X                              "
};
