/* XPM */
static char *result[] = {
/* columns rows colors chars-per-pixel */
"64 64 34 1 ",
"  c #4C4C4C",
". c #545454",
"X c #5C5C5C",
"o c #646464",
"O c #6B6B6B",
"+ c #747474",
"@ c #7B7B7B",
"# c #848484",
"$ c #888886",
"% c #878888",
"& c #8C8C8C",
"* c #92938E",
"= c #949494",
"- c #999A96",
"; c #979798",
": c #979898",
"> c #9C9C9C",
", c #A0A19F",
"< c #9F9FA0",
"1 c #9FA0A0",
"2 c #A4A4A4",
"3 c #A7A8A6",
"4 c #A9ABA7",
"5 c #A7A7A8",
"6 c #A7A8A8",
"7 c #ABACAC",
"8 c #AFB0AE",
"9 c #B0B2AF",
"0 c #AFAFB0",
"q c #AFB0B0",
"w c #B3B3B3",
"e c #BCBCBC",
"r c #C3C3C3",
"t c gray79",
/* pixels */
"=-49wwwwwwwwwwwwwwwwwwww000www0wwqwqwwwwwwwwwwwwwwwwwwwwqwqq7,-*",
">,79987787870wq0000000000000877w07q707qq008qqqqwqqqqqqqqqq8872-*",
"44777722223777777077877077777757777776777777777777q07707q07743,-",
"84874321>>>267777777444525557523262666665777777777777777777774,,",
"847722222:=:276777575555552223222222225255557554777777777777731>",
"98773221:;&=276744555225222222222222222223355755766677777777831>",
"887772:=&&&=2676552,<>,,222222<22>21>>>><<25555566225677677772>>",
"877762>=*==:26625555222222<<<><>>21>:;;;;><22255526212677777731>",
"q777772212226511,509ww07552<>;;;><>>;=&=&&>25,55<277>>277777731>",
"077777776566662257eeere900752<;;>>>:;&&&$&><,5,22<2>==167777761>",
"07777772212260weerrrrewewwww05;=->>:>=$$&;><,>>25<%@#&176777721:",
"w77777732567qeerrrrreewwww075>=&;>:>:=&$=;><,<>>2:@+#*17777773,>",
"80777727qwereerrrrrree077<=$@##===;;;;==;>>>><>>=&#&:1677777722:",
"07777722wettttrrrrww5,;=&$@+O+#&=======;;;;>>>>-&&&;2666777777<>",
"qq777222weerrrrrrw7>#+OooooOo+#==;=====;=;-->>>;>:>>2227567772<>",
"077774,2weeeeewq5<&@oX.  .XoO@&=&&&=*=&;==;;;>>>>><22222652774>>",
"7q777622wew85>=&@OoX.    ..o+@&&&&*&&=&====;;;>;><2<,255222555>>",
"q7776622ww7>&#@OXX      .XoO@##&&&&&&&&&&=&==;-;>>>>,2222<<>22<;",
"qq76662207;#+ooX.       Xo+##%%&&&&$&&&&=&=&&&=;>>><<,,2,>;=><>>",
"q77762222>$+oXX..    ..Xo+#&&&#&%##$&*;;>>;;-;><>><><,,22;&&;<>>",
"q776622>&#+OOooX..   XO@@##%%$######=<wewwww007532<<<<,,2>$&<5>>",
"q777632:&@++OOOoX..XXO@#%&%#######&;5wrrreeeeeww77>->><,2<&=23<>",
"07765521>=&$#@+OXXOO@###%########&2werrreeewwewew7;=;><,<<<<33<>",
"q776522222>;&#@+OO+@&&&####@#@@##&20weew744700w0w2&&;>,<222353>>",
"q7762222><>:;&&&&##&%&####@#@@@@@#&&===&&=;><252>&$$*;><<22532>>",
"07765222>>>:;=;;==&&%$####@@@@@@@@@@#@@#@@@$$$&&###$&=>,<22335>>",
"77662221-;;;;====&&&######@@@@@@@@@@@##@@@OOoooO++#$&=;<222235<>",
"0776222>;====&&=&&&$####@@@@@@+@+@+@@@@#@+oX...XoO@@#&;<<22232<;",
"7766221>;==&&$&&&&&$###@@@@+@+++++@@@@@@@+OXXXXXXoO+@$;<<22252>>",
"q762222>:=&$#$&&&&&$#####@@@++++++++@@@#@++oooXXXXoO+@=><<2222>>",
"7766221>>&@+@$&=&&&$#$=;;=#+@++++++@+@@@@++++O+OOOOOO@&><,2232>>",
"q776622>>=@@#&=&=&##$$&=;&@@++++++++@@@@@@@@@@@@++++@@&><22222<;",
"0755222<>>=*&=*==%$$&&@++O+@@+++++++@+@@@@####$&##&&&=;><<2222>>",
"075522,,<>;>;==&&&#%&%@OoO++++++++++@@@@@#####&&===;;><<<<2252<-",
"0452,2<<><>;;===&&%%&&##@@@@@++++++@@@@@@####&&&&==;>>><<<2252>;",
"045,<<<<<>>;;==&=&&%%%%###@@+@@+@+@+@@@@@##$$$&&&*=;;;;<<22252>>",
"772<;>><<<>;;===&&&%%#####@@@@++@+@@@@@#@###$&&&====;;;>>22252>>",
"05<>==;>>>>;;=*&&&&&%%##@@@@@++@@@+@@@@@##$&&&&&&=;==*&=>,2552>>",
"05,*##*>><>;==&&&&&&#####@@@@@+++@@@@@@#@$&==&&&==;==&##>22252<>",
"05<=##=>,>>>>>>=;=&&%######@@@@@@@@@###&&=55<;=====;=&#%-22542>>",
"755<<>>,<<><0055<>=&$#$$###@@@@##@@@##;2weee0552>;=;;;;><<2552<>",
"0074552<><,0eew072>;=&&$%#####@####&=<5wrrrew007,>;>>><<225555>>",
"00475222>2wreew000075<=&%####@####;5eeerrrre07070445,<><<22545>>",
"0755522220rtrew070752<&&%&%######&>0errrrree25550005522<225542<>",
"077475,2wrttrew52<;=&###%&&%#$$$#$=;20wweee02<<5557000755<5472<>",
"007545<7etrew5<=%#@@++@#&&&%&%$$#&&=;>22752<==;<<2570552>>5545<>",
"00777450ere0>#+OooooO+#&&&&&&&&&&&&===;=&&#@@#&=><<22<;*&=5545>>",
"08777557002=#OX...XoO@&;=&=&*&&&&&&&==*&#++O++@#&&===&###*<475<>",
"0745752<>=#+oX....XO@$*===&=*&*&&=&====&@+OXoOO+@@@++++@$;2772<>",
"7070751>*#+oXX....X+$==;=========&=&==&&@OoXXXoOO+OOooO+&>2775<>",
"8775755>&@+oXXX...o@&>;;;;======;====&&#@OooXXXXoXXXoOO+=25773>>",
"00077762=%@@++OOoO+$;>>;;;;;=;;;=;;;==&#++OoooXXXXXXXOO@;55775<>",
"07777777111:>;==&&;;><>>>->;-;;;;;;;-;&$@+OOOOooXXXXOOO@>77773<>",
"08077777077777652<2<<><>>>;;;>->->>>>:;&&#@+++OOOoXXXO+@207775<:",
"077777777777665522,<,,><;>;;>>>;>>>><>>:;;=&#@+OOOoooO+#>77773<>",
"7077777767666665322222<2>;>->>>>,>><><,<,12>;&#@++OoXO+#277773<>",
"qq777777621255752722222>>>22<<>>><<,,<,,222<>>>;=#@OXX+&277775<>",
"0707777621>><25562255222>:>;&&=:><,,,2,522222772>;&@O+#=277776<:",
"7q7777761:=*;<5667537622<;$@++@&>,222,522526527762>:;=:2277774>:",
"777777661>==:157677552622;$@O+#=<22255252572777577777222777772>;",
"2677777762222677777727532,;&&=><223355554757777777777737777772=&",
">>22262666666262322222222<>:>>222222,,22222222222262422225222-&$",
"===::>:>:>>>>>:>>:>:>::>:-;=;;;>>;;:;;;>:>:->::>:::>>:::>::;*&$$",
"&&&=====:====;====;=;;=;;===========;==;=;;;=;=;;=;;=;;=;;=*$$$$"
};
