/* XPM */
static char *result[] = {
/* columns rows colors chars-per-pixel */
"32 32 142 2 ",
"   c #4B4B4B",
".  c #4C4C4C",
"X  c gray30",
"o  c #4E4E4E",
"O  c #505050",
"+  c #515151",
"@  c gray32",
"#  c #535353",
"$  c gray33",
"%  c #555555",
"&  c #565656",
"*  c gray34",
"=  c #585858",
"-  c gray35",
";  c #5A5A5A",
":  c #5B5B5B",
">  c gray36",
",  c #5D5D5D",
"<  c gray37",
"1  c #5F5F5F",
"2  c gray38",
"3  c #626262",
"4  c gray39",
"5  c #646464",
"6  c #656565",
"7  c gray40",
"8  c #676767",
"9  c #686868",
"0  c DimGray",
"q  c #6A6A6A",
"w  c #6C6C6C",
"e  c #6D6D6D",
"r  c gray43",
"t  c #6F6F6F",
"y  c gray44",
"u  c #717171",
"i  c gray45",
"p  c #747474",
"a  c gray46",
"s  c #757577",
"d  c #767676",
"f  c #777777",
"g  c gray47",
"h  c #797979",
"j  c gray48",
"k  c #7B7B7B",
"l  c #7C7C7C",
"z  c gray49",
"x  c #7E7E7E",
"c  c gray50",
"v  c #808080",
"b  c #818181",
"n  c gray51",
"m  c #838383",
"M  c #858583",
"N  c #848484",
"B  c gray52",
"V  c #878785",
"C  c #868686",
"Z  c gray53",
"A  c #888886",
"S  c #888888",
"D  c #898989",
"F  c gray54",
"G  c #8B8B8B",
"H  c gray55",
"J  c #8D8D8D",
"K  c #8E8E8E",
"L  c gray56",
"P  c #91928D",
"I  c #909090",
"U  c gray57",
"Y  c #929292",
"T  c #939393",
"R  c #949492",
"E  c gray58",
"W  c #959595",
"Q  c gray59",
"!  c #979797",
"~  c #989898",
"^  c gray60",
"/  c #9A9A9A",
"(  c #9B9B9B",
")  c #9D9D9B",
"_  c gray61",
"`  c #9D9D9D",
"'  c #9E9E9C",
"]  c #9F9F9D",
"[  c gray62",
"{  c #9F9F9F",
"}  c #A0A0A0",
"|  c gray63",
" . c #A2A2A2",
".. c gray64",
"X. c #A4A4A4",
"o. c #A5A5A5",
"O. c gray65",
"+. c #A7A7A7",
"@. c #A9AAA5",
"#. c #A9A9A7",
"$. c gray66",
"%. c #A9A9A9",
"&. c #AAAAA8",
"*. c #AAAAAA",
"=. c gray67",
"-. c #ADAEA9",
";. c #ACACAC",
":. c gray68",
">. c #AEAEAC",
",. c #AEAEAE",
"<. c #AFAFAF",
"1. c #B0B1AC",
"2. c #B1B1AF",
"3. c gray69",
"4. c #B1B1B1",
"5. c #B2B2B0",
"6. c #B2B2B2",
"7. c gray70",
"8. c #B4B4B4",
"9. c gray71",
"0. c #B7B7B7",
"q. c gray72",
"w. c #B9B9B9",
"e. c gray73",
"r. c #BBBBBB",
"t. c #BCBCBC",
"y. c gray74",
"u. c gray",
"i. c gray75",
"p. c #C0C0C0",
"a. c #C1C1C1",
"s. c gray76",
"d. c #C3C3C3",
"f. c gray77",
"g. c #C5C5C5",
"h. c gray78",
"j. c #C8C8C8",
"k. c gray79",
"l. c #CACACA",
"z. c gray80",
"x. c #D0D0D0",
"c. c #D2D2D2",
/* pixels */
"R 1.5.4.4.4.4.4.4.4.4.4.3.<.3.3.3.3.3.4.4.4.4.4.4.4.4.4.3.2.@.P ",
"-.*.%.] ( X.*.%.*.*.$.$.+.+.+.O.O.O.+.+.$.%.%.*.*.*.*.*.*.%.&.) ",
">.*...+.[ S %.%.%.$.O.O.o.X.X.....X.X.o.O.O.+.%.%.*.*.*.*.*.*.( ",
":.*.+.K N K +.$.+.} ^ { | | } } } } ~ ~ [ X.o.O.+.} o.*.%.*.*./ ",
":.*.*.*.%.%.O.~  .0.a.7.%.| ! W ` ( I K c |  .o./ 0.I O.*.*.*./ ",
",.*.*.%.[ [ ;.s.g.g.r.0.q.u.9.K / ^ _ x Q [ { ^ 6.7 z =.*.=.*./ ",
":.*.*. .0.x.g.s.s.s.q.=.[ z 9 D E W Q ! ^ ( _ ` n F +.+.%.*.*./ ",
":.*.%.' w.y.f.d.r.^ 7 O o 3 q W I U U T E ! ^ _ [ | ..O.$.%.*./ ",
":.*.%.[ e.<.T c 1 .   . # - v G H H J L U T Q ^ _ [ | o. .} %./ ",
":.%.+.| 7.m ; * .   X X 4 D F Z Z S Z S U F D Y ^ _ {  .{ D ( / ",
":.%.O.} d 9 9 5 & . % v H B B N m l } k.y.a.u.6.%._ ` } ..x ;./ ",
":.$.o...X.! N i - a I C B b v c b u.z.h.0.4.8.w.q.Z ( {  .O.$./ ",
":.+.o.| [ ( ! W W H Z N b x l l z l v c l L ^ X.C N Y [ | X.$./ ",
";.+.X.} T W U U J D N b x l h g g k z v k > @ @ e B F `  .X.O./ ",
";.O.X.[ W U n H H S N c d f f p a f k z j 6 < ; * 0 j ` } ..O.^ ",
";.O...} / 7 N T H Z v ` O.h a i i a g l k f d d y 9 0 ~ } ..O.^ ",
";.O...} _ _ E I H n W 0 : f a i i a g k x m C G I W ( _ }  .O.^ ",
";.X.} } ` ^ W U H S S D N k f a a d h l c m Z H I E ^ _ } ..O.^ ",
";.{ ~ _ ` / Q U J D B b x j h g g h k x n N S J U W E W } X.O./ ",
";.Q y ~ [ ^ U G K G C m v x h a j l x x k _ I D Y Q L a ..X.+./ ",
":.$.O. .{ ~ u.4...K N C m b c b n h m o.j.k.6.,.! Y _  .| o.$./ ",
":.$.O. .^ l.a.;.6.q.4.L Z B v m x =.c.j.d.i.X.;.4.,.` / ..O.$./ ",
":.%.$.( l.j.p.*.~ S a h H S Z Z C J _ ;.t.7.^ [ X.;.6.4.{ +.%./ ",
":.*.$.%.a.7.z - + , 7 Q K J H G G G E K l y f F ^ [ [ Z N $.*./ ",
":.*.%.` K 8 - $ & , U E T U I I I L Y T f ; < 9 s t 4 t U %.*./ ",
":.*.%.+.b q 2 = X a _ ~ ! W E E E E Y C y 6 < ; ; - 8 q ..*.*./ ",
":.*.*.*.=.=.*.+.} } ` _ / ^ ^ ~ ~ ^ / J h w r 9 2 : 9 r ,.*.*./ ",
":.*.*.*.*.%.+.O.X. .} { ^ E ( ( _ _ ` [ | [ Z u r 4 2 j =.*.*./ ",
":.=.*.*...[ o.$.O.o.X. .~ %._ ^ [ } } |  ...o.%.! d $ m *.=.*./ ",
":.*.*.%./ C ! %.$.+.+.o.` p : b  ...X.X.o.O.+.$.%.*.X. .*.*.*.~ ",
"| *.*.*.=.=.*.*.*.%.$.+.+.~ ` %.+.O.O.+.$.%.%.*.*.*.*.*.*.*.#.A ",
"H L T E E W E E E E E E E T T T E T T E E E E E E E E E E T M V "
};
